<?xml version="1.0" encoding="utf-8"?>
<svg xmlns="http://www.w3.org/2000/svg" xmlns:xlink="http://www.w3.org/1999/xlink" width="420" height="330" viewBox="0 0 1680 1320">
<defs>
  <clipPath id="clip940">
    <rect x="0" y="0" width="1680" height="1320"/>
  </clipPath>
</defs>
<path clip-path="url(#clip940)" d="M0 1320 L1680 1320 L1680 0 L0 0  Z" fill="#ffffff" fill-rule="evenodd" fill-opacity="1"/>
<defs>
  <clipPath id="clip941">
    <rect x="464" y="112" width="985" height="985"/>
  </clipPath>
</defs>
<path clip-path="url(#clip940)" d="M325.375 1117.52 L1632.76 1117.52 L1632.76 112.394 L325.375 112.394  Z" fill="#ffffff" fill-rule="evenodd" fill-opacity="1"/>
<defs>
  <clipPath id="clip942">
    <rect x="325" y="112" width="1308" height="1006"/>
  </clipPath>
</defs>
<polyline clip-path="url(#clip940)" style="stroke:#000000; stroke-linecap:round; stroke-linejoin:round; stroke-width:4; stroke-opacity:1; fill:none" points="325.375,1117.52 1632.76,1117.52 "/>
<polyline clip-path="url(#clip940)" style="stroke:#000000; stroke-linecap:round; stroke-linejoin:round; stroke-width:4; stroke-opacity:1; fill:none" points="476.227,1117.52 476.227,1098.62 "/>
<polyline clip-path="url(#clip940)" style="stroke:#000000; stroke-linecap:round; stroke-linejoin:round; stroke-width:4; stroke-opacity:1; fill:none" points="727.646,1117.52 727.646,1098.62 "/>
<polyline clip-path="url(#clip940)" style="stroke:#000000; stroke-linecap:round; stroke-linejoin:round; stroke-width:4; stroke-opacity:1; fill:none" points="1230.48,1117.52 1230.48,1098.62 "/>
<polyline clip-path="url(#clip940)" style="stroke:#000000; stroke-linecap:round; stroke-linejoin:round; stroke-width:4; stroke-opacity:1; fill:none" points="1481.9,1117.52 1481.9,1098.62 "/>
<g clip-path="url(#clip940)">
<text style="fill:#000000; fill-opacity:1; font-family:Arial,Helvetica Neue,Helvetica,sans-serif; font-size:48px; text-anchor:start;" transform="rotate(0, 407.372, 1173.61)" x="407.372" y="1173.61">DDM-</text>
</g>
<g clip-path="url(#clip940)">
<text style="fill:#000000; fill-opacity:1; font-family:Arial,Helvetica Neue,Helvetica,sans-serif; font-size:48px; text-anchor:start;" transform="rotate(0, 418.755, 1223.91)" x="418.755" y="1223.91">HMM</text>
</g>
<g clip-path="url(#clip940)">
<text style="fill:#000000; fill-opacity:1; font-family:Arial,Helvetica Neue,Helvetica,sans-serif; font-size:48px; text-anchor:start;" transform="rotate(0, 627.36, 1173.61)" x="627.36" y="1173.61">multilevel</text>
</g>
<g clip-path="url(#clip940)">
<text style="fill:#000000; fill-opacity:1; font-family:Arial,Helvetica Neue,Helvetica,sans-serif; font-size:48px; text-anchor:start;" transform="rotate(0, 672.846, 1223.91)" x="672.846" y="1223.91">DDM</text>
</g>
<g clip-path="url(#clip940)">
<text style="fill:#000000; fill-opacity:1; font-family:Arial,Helvetica Neue,Helvetica,sans-serif; font-size:48px; text-anchor:start;" transform="rotate(0, 1161.63, 1173.61)" x="1161.63" y="1173.61">DDM-</text>
</g>
<g clip-path="url(#clip940)">
<text style="fill:#000000; fill-opacity:1; font-family:Arial,Helvetica Neue,Helvetica,sans-serif; font-size:48px; text-anchor:start;" transform="rotate(0, 1173.01, 1223.91)" x="1173.01" y="1223.91">HMM</text>
</g>
<g clip-path="url(#clip940)">
<text style="fill:#000000; fill-opacity:1; font-family:Arial,Helvetica Neue,Helvetica,sans-serif; font-size:48px; text-anchor:start;" transform="rotate(0, 1381.62, 1173.61)" x="1381.62" y="1173.61">multilevel</text>
</g>
<g clip-path="url(#clip940)">
<text style="fill:#000000; fill-opacity:1; font-family:Arial,Helvetica Neue,Helvetica,sans-serif; font-size:48px; text-anchor:start;" transform="rotate(0, 1427.1, 1223.91)" x="1427.1" y="1223.91">DDM</text>
</g>
<polyline clip-path="url(#clip940)" style="stroke:#000000; stroke-linecap:round; stroke-linejoin:round; stroke-width:4; stroke-opacity:1; fill:none" points="325.375,1117.52 325.375,112.394 "/>
<polyline clip-path="url(#clip940)" style="stroke:#000000; stroke-linecap:round; stroke-linejoin:round; stroke-width:4; stroke-opacity:1; fill:none" points="325.375,1097.42 344.273,1097.42 "/>
<polyline clip-path="url(#clip940)" style="stroke:#000000; stroke-linecap:round; stroke-linejoin:round; stroke-width:4; stroke-opacity:1; fill:none" points="325.375,890.607 344.273,890.607 "/>
<polyline clip-path="url(#clip940)" style="stroke:#000000; stroke-linecap:round; stroke-linejoin:round; stroke-width:4; stroke-opacity:1; fill:none" points="325.375,683.796 344.273,683.796 "/>
<polyline clip-path="url(#clip940)" style="stroke:#000000; stroke-linecap:round; stroke-linejoin:round; stroke-width:4; stroke-opacity:1; fill:none" points="325.375,476.984 344.273,476.984 "/>
<polyline clip-path="url(#clip940)" style="stroke:#000000; stroke-linecap:round; stroke-linejoin:round; stroke-width:4; stroke-opacity:1; fill:none" points="325.375,270.172 344.273,270.172 "/>
<g clip-path="url(#clip940)">
<text style="fill:#000000; fill-opacity:1; font-family:Arial,Helvetica Neue,Helvetica,sans-serif; font-size:48px; text-anchor:middle;" transform="rotate(0, 253.341, 1114.92)" x="253.341" y="1114.92">0.00</text>
</g>
<g clip-path="url(#clip940)">
<text style="fill:#000000; fill-opacity:1; font-family:Arial,Helvetica Neue,Helvetica,sans-serif; font-size:48px; text-anchor:middle;" transform="rotate(0, 253.341, 908.107)" x="253.341" y="908.107">0.05</text>
</g>
<g clip-path="url(#clip940)">
<text style="fill:#000000; fill-opacity:1; font-family:Arial,Helvetica Neue,Helvetica,sans-serif; font-size:48px; text-anchor:middle;" transform="rotate(0, 253.341, 701.296)" x="253.341" y="701.296">0.10</text>
</g>
<g clip-path="url(#clip940)">
<text style="fill:#000000; fill-opacity:1; font-family:Arial,Helvetica Neue,Helvetica,sans-serif; font-size:48px; text-anchor:middle;" transform="rotate(0, 253.341, 494.484)" x="253.341" y="494.484">0.15</text>
</g>
<g clip-path="url(#clip940)">
<text style="fill:#000000; fill-opacity:1; font-family:Arial,Helvetica Neue,Helvetica,sans-serif; font-size:48px; text-anchor:middle;" transform="rotate(0, 253.341, 287.672)" x="253.341" y="287.672">0.20</text>
</g>
<g clip-path="url(#clip940)">
<text style="fill:#000000; fill-opacity:1; font-family:Arial,Helvetica Neue,Helvetica,sans-serif; font-size:53px; text-anchor:start;" transform="rotate(-90, 127.244, 922.478)" x="127.244" y="922.478">mean |model − data| ACF</text>
</g>
<g clip-path="url(#clip940)">
<text style="fill:#000000; fill-opacity:1; font-family:Arial,Helvetica Neue,Helvetica,sans-serif; font-size:53px; text-anchor:start;" transform="rotate(-90, 183.831, 750.388)" x="183.831" y="750.388">(lags 1–20)</text>
</g>
<g clip-path="url(#clip940)">
<text style="fill:#000000; fill-opacity:1; font-family:Arial,Helvetica Neue,Helvetica,sans-serif; font-size:59px; text-anchor:middle;" transform="rotate(0, 979.066, 51.6)" x="979.066" y="51.6">RT ACF error</text>
</g>
<polyline clip-path="url(#clip942)" style="stroke:#1f9e89; stroke-linecap:round; stroke-linejoin:round; stroke-width:3.2; stroke-opacity:0.35; fill:none" points="476.227,951.444 727.646,915.127 "/>
<polyline clip-path="url(#clip942)" style="stroke:#1f9e89; stroke-linecap:round; stroke-linejoin:round; stroke-width:3.2; stroke-opacity:0.35; fill:none" points="476.227,1044.64 727.646,1001.15 "/>
<polyline clip-path="url(#clip942)" style="stroke:#1f9e89; stroke-linecap:round; stroke-linejoin:round; stroke-width:3.2; stroke-opacity:0.35; fill:none" points="476.227,1051.78 727.646,852.72 "/>
<polyline clip-path="url(#clip942)" style="stroke:#1f9e89; stroke-linecap:round; stroke-linejoin:round; stroke-width:3.2; stroke-opacity:0.35; fill:none" points="476.227,996.669 727.646,969.831 "/>
<polyline clip-path="url(#clip942)" style="stroke:#1f9e89; stroke-linecap:round; stroke-linejoin:round; stroke-width:3.2; stroke-opacity:0.35; fill:none" points="476.227,1061.02 727.646,917.023 "/>
<polyline clip-path="url(#clip942)" style="stroke:#1f9e89; stroke-linecap:round; stroke-linejoin:round; stroke-width:3.2; stroke-opacity:0.35; fill:none" points="476.227,943.377 727.646,953.483 "/>
<polyline clip-path="url(#clip942)" style="stroke:#1f9e89; stroke-linecap:round; stroke-linejoin:round; stroke-width:3.2; stroke-opacity:0.35; fill:none" points="476.227,1040.57 727.646,984.831 "/>
<polyline clip-path="url(#clip942)" style="stroke:#1f9e89; stroke-linecap:round; stroke-linejoin:round; stroke-width:3.2; stroke-opacity:0.35; fill:none" points="476.227,1009.55 727.646,964.913 "/>
<polyline clip-path="url(#clip942)" style="stroke:#1f9e89; stroke-linecap:round; stroke-linejoin:round; stroke-width:3.2; stroke-opacity:0.35; fill:none" points="476.227,992.087 727.646,940.558 "/>
<polyline clip-path="url(#clip942)" style="stroke:#1f9e89; stroke-linecap:round; stroke-linejoin:round; stroke-width:3.2; stroke-opacity:0.35; fill:none" points="476.227,1047.47 727.646,981.558 "/>
<polyline clip-path="url(#clip942)" style="stroke:#1f9e89; stroke-linecap:round; stroke-linejoin:round; stroke-width:3.2; stroke-opacity:0.35; fill:none" points="476.227,1016.28 727.646,978.97 "/>
<polyline clip-path="url(#clip942)" style="stroke:#1f9e89; stroke-linecap:round; stroke-linejoin:round; stroke-width:3.2; stroke-opacity:0.35; fill:none" points="476.227,1021.19 727.646,1001.33 "/>
<circle clip-path="url(#clip942)" cx="476.227" cy="951.444" r="14.4" fill="#1f9e89" fill-rule="evenodd" fill-opacity="0.9" stroke="none"/>
<circle clip-path="url(#clip942)" cx="476.227" cy="1044.64" r="14.4" fill="#1f9e89" fill-rule="evenodd" fill-opacity="0.9" stroke="none"/>
<circle clip-path="url(#clip942)" cx="476.227" cy="1051.78" r="14.4" fill="#1f9e89" fill-rule="evenodd" fill-opacity="0.9" stroke="none"/>
<circle clip-path="url(#clip942)" cx="476.227" cy="996.669" r="14.4" fill="#1f9e89" fill-rule="evenodd" fill-opacity="0.9" stroke="none"/>
<circle clip-path="url(#clip942)" cx="476.227" cy="1061.02" r="14.4" fill="#1f9e89" fill-rule="evenodd" fill-opacity="0.9" stroke="none"/>
<circle clip-path="url(#clip942)" cx="476.227" cy="943.377" r="14.4" fill="#1f9e89" fill-rule="evenodd" fill-opacity="0.9" stroke="none"/>
<circle clip-path="url(#clip942)" cx="476.227" cy="1040.57" r="14.4" fill="#1f9e89" fill-rule="evenodd" fill-opacity="0.9" stroke="none"/>
<circle clip-path="url(#clip942)" cx="476.227" cy="1009.55" r="14.4" fill="#1f9e89" fill-rule="evenodd" fill-opacity="0.9" stroke="none"/>
<circle clip-path="url(#clip942)" cx="476.227" cy="992.087" r="14.4" fill="#1f9e89" fill-rule="evenodd" fill-opacity="0.9" stroke="none"/>
<circle clip-path="url(#clip942)" cx="476.227" cy="1047.47" r="14.4" fill="#1f9e89" fill-rule="evenodd" fill-opacity="0.9" stroke="none"/>
<circle clip-path="url(#clip942)" cx="476.227" cy="1016.28" r="14.4" fill="#1f9e89" fill-rule="evenodd" fill-opacity="0.9" stroke="none"/>
<circle clip-path="url(#clip942)" cx="476.227" cy="1021.19" r="14.4" fill="#1f9e89" fill-rule="evenodd" fill-opacity="0.9" stroke="none"/>
<circle clip-path="url(#clip942)" cx="727.646" cy="915.127" r="12.6" fill="#ffffff" fill-rule="evenodd" fill-opacity="1" stroke="#1f9e89" stroke-opacity="1" stroke-width="3.168"/>
<circle clip-path="url(#clip942)" cx="727.646" cy="1001.15" r="12.6" fill="#ffffff" fill-rule="evenodd" fill-opacity="1" stroke="#1f9e89" stroke-opacity="1" stroke-width="3.168"/>
<circle clip-path="url(#clip942)" cx="727.646" cy="852.72" r="12.6" fill="#ffffff" fill-rule="evenodd" fill-opacity="1" stroke="#1f9e89" stroke-opacity="1" stroke-width="3.168"/>
<circle clip-path="url(#clip942)" cx="727.646" cy="969.831" r="12.6" fill="#ffffff" fill-rule="evenodd" fill-opacity="1" stroke="#1f9e89" stroke-opacity="1" stroke-width="3.168"/>
<circle clip-path="url(#clip942)" cx="727.646" cy="917.023" r="12.6" fill="#ffffff" fill-rule="evenodd" fill-opacity="1" stroke="#1f9e89" stroke-opacity="1" stroke-width="3.168"/>
<circle clip-path="url(#clip942)" cx="727.646" cy="953.483" r="12.6" fill="#ffffff" fill-rule="evenodd" fill-opacity="1" stroke="#1f9e89" stroke-opacity="1" stroke-width="3.168"/>
<circle clip-path="url(#clip942)" cx="727.646" cy="984.831" r="12.6" fill="#ffffff" fill-rule="evenodd" fill-opacity="1" stroke="#1f9e89" stroke-opacity="1" stroke-width="3.168"/>
<circle clip-path="url(#clip942)" cx="727.646" cy="964.913" r="12.6" fill="#ffffff" fill-rule="evenodd" fill-opacity="1" stroke="#1f9e89" stroke-opacity="1" stroke-width="3.168"/>
<circle clip-path="url(#clip942)" cx="727.646" cy="940.558" r="12.6" fill="#ffffff" fill-rule="evenodd" fill-opacity="1" stroke="#1f9e89" stroke-opacity="1" stroke-width="3.168"/>
<circle clip-path="url(#clip942)" cx="727.646" cy="981.558" r="12.6" fill="#ffffff" fill-rule="evenodd" fill-opacity="1" stroke="#1f9e89" stroke-opacity="1" stroke-width="3.168"/>
<circle clip-path="url(#clip942)" cx="727.646" cy="978.97" r="12.6" fill="#ffffff" fill-rule="evenodd" fill-opacity="1" stroke="#1f9e89" stroke-opacity="1" stroke-width="3.168"/>
<circle clip-path="url(#clip942)" cx="727.646" cy="1001.33" r="12.6" fill="#ffffff" fill-rule="evenodd" fill-opacity="1" stroke="#1f9e89" stroke-opacity="1" stroke-width="3.168"/>
<polyline clip-path="url(#clip942)" style="stroke:#000000; stroke-linecap:round; stroke-linejoin:round; stroke-width:4; stroke-opacity:1; fill:none" points="476.227,271.539 476.227,242.39 727.646,242.39 727.646,271.539 "/>
<polyline clip-path="url(#clip942)" style="stroke:#8e6bbf; stroke-linecap:round; stroke-linejoin:round; stroke-width:3.2; stroke-opacity:0.35; fill:none" points="1230.48,1040.37 1481.9,781.378 "/>
<polyline clip-path="url(#clip942)" style="stroke:#8e6bbf; stroke-linecap:round; stroke-linejoin:round; stroke-width:3.2; stroke-opacity:0.35; fill:none" points="1230.48,1032.04 1481.9,897.634 "/>
<polyline clip-path="url(#clip942)" style="stroke:#8e6bbf; stroke-linecap:round; stroke-linejoin:round; stroke-width:3.2; stroke-opacity:0.35; fill:none" points="1230.48,989.075 1481.9,979.34 "/>
<polyline clip-path="url(#clip942)" style="stroke:#8e6bbf; stroke-linecap:round; stroke-linejoin:round; stroke-width:3.2; stroke-opacity:0.35; fill:none" points="1230.48,1030.46 1481.9,973.215 "/>
<polyline clip-path="url(#clip942)" style="stroke:#8e6bbf; stroke-linecap:round; stroke-linejoin:round; stroke-width:3.2; stroke-opacity:0.35; fill:none" points="1230.48,1044.46 1481.9,736.805 "/>
<polyline clip-path="url(#clip942)" style="stroke:#8e6bbf; stroke-linecap:round; stroke-linejoin:round; stroke-width:3.2; stroke-opacity:0.35; fill:none" points="1230.48,1004.51 1481.9,873.742 "/>
<polyline clip-path="url(#clip942)" style="stroke:#8e6bbf; stroke-linecap:round; stroke-linejoin:round; stroke-width:3.2; stroke-opacity:0.35; fill:none" points="1230.48,989.517 1481.9,825.662 "/>
<polyline clip-path="url(#clip942)" style="stroke:#8e6bbf; stroke-linecap:round; stroke-linejoin:round; stroke-width:3.2; stroke-opacity:0.35; fill:none" points="1230.48,950.317 1481.9,880.232 "/>
<polyline clip-path="url(#clip942)" style="stroke:#8e6bbf; stroke-linecap:round; stroke-linejoin:round; stroke-width:3.2; stroke-opacity:0.35; fill:none" points="1230.48,1033.38 1481.9,830.782 "/>
<polyline clip-path="url(#clip942)" style="stroke:#8e6bbf; stroke-linecap:round; stroke-linejoin:round; stroke-width:3.2; stroke-opacity:0.35; fill:none" points="1230.48,1038.01 1481.9,1002.26 "/>
<polyline clip-path="url(#clip942)" style="stroke:#8e6bbf; stroke-linecap:round; stroke-linejoin:round; stroke-width:3.2; stroke-opacity:0.35; fill:none" points="1230.48,1021.15 1481.9,911.133 "/>
<polyline clip-path="url(#clip942)" style="stroke:#8e6bbf; stroke-linecap:round; stroke-linejoin:round; stroke-width:3.2; stroke-opacity:0.35; fill:none" points="1230.48,950.656 1481.9,905.066 "/>
<polyline clip-path="url(#clip942)" style="stroke:#8e6bbf; stroke-linecap:round; stroke-linejoin:round; stroke-width:3.2; stroke-opacity:0.35; fill:none" points="1230.48,1026.62 1481.9,816.208 "/>
<polyline clip-path="url(#clip942)" style="stroke:#8e6bbf; stroke-linecap:round; stroke-linejoin:round; stroke-width:3.2; stroke-opacity:0.35; fill:none" points="1230.48,941.872 1481.9,427.334 "/>
<polyline clip-path="url(#clip942)" style="stroke:#8e6bbf; stroke-linecap:round; stroke-linejoin:round; stroke-width:3.2; stroke-opacity:0.35; fill:none" points="1230.48,888.084 1481.9,802.91 "/>
<polyline clip-path="url(#clip942)" style="stroke:#8e6bbf; stroke-linecap:round; stroke-linejoin:round; stroke-width:3.2; stroke-opacity:0.35; fill:none" points="1230.48,1004.05 1481.9,616.769 "/>
<polyline clip-path="url(#clip942)" style="stroke:#8e6bbf; stroke-linecap:round; stroke-linejoin:round; stroke-width:3.2; stroke-opacity:0.35; fill:none" points="1230.48,1010.74 1481.9,881.492 "/>
<polyline clip-path="url(#clip942)" style="stroke:#8e6bbf; stroke-linecap:round; stroke-linejoin:round; stroke-width:3.2; stroke-opacity:0.35; fill:none" points="1230.48,914.95 1481.9,498.295 "/>
<path clip-path="url(#clip942)" d="M1214.48 1024.37 L1214.48 1056.37 L1246.48 1056.37 L1246.48 1024.37 L1214.48 1024.37 Z" fill="#8e6bbf" fill-rule="evenodd" fill-opacity="0.9" stroke="none"/>
<path clip-path="url(#clip942)" d="M1214.48 1016.04 L1214.48 1048.04 L1246.48 1048.04 L1246.48 1016.04 L1214.48 1016.04 Z" fill="#8e6bbf" fill-rule="evenodd" fill-opacity="0.9" stroke="none"/>
<path clip-path="url(#clip942)" d="M1214.48 973.075 L1214.48 1005.08 L1246.48 1005.08 L1246.48 973.075 L1214.48 973.075 Z" fill="#8e6bbf" fill-rule="evenodd" fill-opacity="0.9" stroke="none"/>
<path clip-path="url(#clip942)" d="M1214.48 1014.46 L1214.48 1046.46 L1246.48 1046.46 L1246.48 1014.46 L1214.48 1014.46 Z" fill="#8e6bbf" fill-rule="evenodd" fill-opacity="0.9" stroke="none"/>
<path clip-path="url(#clip942)" d="M1214.48 1028.46 L1214.48 1060.46 L1246.48 1060.46 L1246.48 1028.46 L1214.48 1028.46 Z" fill="#8e6bbf" fill-rule="evenodd" fill-opacity="0.9" stroke="none"/>
<path clip-path="url(#clip942)" d="M1214.48 988.515 L1214.48 1020.51 L1246.48 1020.51 L1246.48 988.515 L1214.48 988.515 Z" fill="#8e6bbf" fill-rule="evenodd" fill-opacity="0.9" stroke="none"/>
<path clip-path="url(#clip942)" d="M1214.48 973.517 L1214.48 1005.52 L1246.48 1005.52 L1246.48 973.517 L1214.48 973.517 Z" fill="#8e6bbf" fill-rule="evenodd" fill-opacity="0.9" stroke="none"/>
<path clip-path="url(#clip942)" d="M1214.48 934.317 L1214.48 966.317 L1246.48 966.317 L1246.48 934.317 L1214.48 934.317 Z" fill="#8e6bbf" fill-rule="evenodd" fill-opacity="0.9" stroke="none"/>
<path clip-path="url(#clip942)" d="M1214.48 1017.38 L1214.48 1049.38 L1246.48 1049.38 L1246.48 1017.38 L1214.48 1017.38 Z" fill="#8e6bbf" fill-rule="evenodd" fill-opacity="0.9" stroke="none"/>
<path clip-path="url(#clip942)" d="M1214.48 1022.01 L1214.48 1054.01 L1246.48 1054.01 L1246.48 1022.01 L1214.48 1022.01 Z" fill="#8e6bbf" fill-rule="evenodd" fill-opacity="0.9" stroke="none"/>
<path clip-path="url(#clip942)" d="M1214.48 1005.15 L1214.48 1037.15 L1246.48 1037.15 L1246.48 1005.15 L1214.48 1005.15 Z" fill="#8e6bbf" fill-rule="evenodd" fill-opacity="0.9" stroke="none"/>
<path clip-path="url(#clip942)" d="M1214.48 934.656 L1214.48 966.656 L1246.48 966.656 L1246.48 934.656 L1214.48 934.656 Z" fill="#8e6bbf" fill-rule="evenodd" fill-opacity="0.9" stroke="none"/>
<path clip-path="url(#clip942)" d="M1214.48 1010.62 L1214.48 1042.62 L1246.48 1042.62 L1246.48 1010.62 L1214.48 1010.62 Z" fill="#8e6bbf" fill-rule="evenodd" fill-opacity="0.9" stroke="none"/>
<path clip-path="url(#clip942)" d="M1214.48 925.872 L1214.48 957.872 L1246.48 957.872 L1246.48 925.872 L1214.48 925.872 Z" fill="#8e6bbf" fill-rule="evenodd" fill-opacity="0.9" stroke="none"/>
<path clip-path="url(#clip942)" d="M1214.48 872.084 L1214.48 904.084 L1246.48 904.084 L1246.48 872.084 L1214.48 872.084 Z" fill="#8e6bbf" fill-rule="evenodd" fill-opacity="0.9" stroke="none"/>
<path clip-path="url(#clip942)" d="M1214.48 988.046 L1214.48 1020.05 L1246.48 1020.05 L1246.48 988.046 L1214.48 988.046 Z" fill="#8e6bbf" fill-rule="evenodd" fill-opacity="0.9" stroke="none"/>
<path clip-path="url(#clip942)" d="M1214.48 994.741 L1214.48 1026.74 L1246.48 1026.74 L1246.48 994.741 L1214.48 994.741 Z" fill="#8e6bbf" fill-rule="evenodd" fill-opacity="0.9" stroke="none"/>
<path clip-path="url(#clip942)" d="M1214.48 898.95 L1214.48 930.95 L1246.48 930.95 L1246.48 898.95 L1214.48 898.95 Z" fill="#8e6bbf" fill-rule="evenodd" fill-opacity="0.9" stroke="none"/>
<path clip-path="url(#clip942)" d="M1467.9 767.378 L1467.9 795.378 L1495.9 795.378 L1495.9 767.378 L1467.9 767.378 Z" fill="#ffffff" fill-rule="evenodd" fill-opacity="1" stroke="#8e6bbf" stroke-opacity="1" stroke-width="3.168"/>
<path clip-path="url(#clip942)" d="M1467.9 883.634 L1467.9 911.634 L1495.9 911.634 L1495.9 883.634 L1467.9 883.634 Z" fill="#ffffff" fill-rule="evenodd" fill-opacity="1" stroke="#8e6bbf" stroke-opacity="1" stroke-width="3.168"/>
<path clip-path="url(#clip942)" d="M1467.9 965.34 L1467.9 993.34 L1495.9 993.34 L1495.9 965.34 L1467.9 965.34 Z" fill="#ffffff" fill-rule="evenodd" fill-opacity="1" stroke="#8e6bbf" stroke-opacity="1" stroke-width="3.168"/>
<path clip-path="url(#clip942)" d="M1467.9 959.215 L1467.9 987.215 L1495.9 987.215 L1495.9 959.215 L1467.9 959.215 Z" fill="#ffffff" fill-rule="evenodd" fill-opacity="1" stroke="#8e6bbf" stroke-opacity="1" stroke-width="3.168"/>
<path clip-path="url(#clip942)" d="M1467.9 722.805 L1467.9 750.805 L1495.9 750.805 L1495.9 722.805 L1467.9 722.805 Z" fill="#ffffff" fill-rule="evenodd" fill-opacity="1" stroke="#8e6bbf" stroke-opacity="1" stroke-width="3.168"/>
<path clip-path="url(#clip942)" d="M1467.9 859.742 L1467.9 887.742 L1495.9 887.742 L1495.9 859.742 L1467.9 859.742 Z" fill="#ffffff" fill-rule="evenodd" fill-opacity="1" stroke="#8e6bbf" stroke-opacity="1" stroke-width="3.168"/>
<path clip-path="url(#clip942)" d="M1467.9 811.662 L1467.9 839.662 L1495.9 839.662 L1495.9 811.662 L1467.9 811.662 Z" fill="#ffffff" fill-rule="evenodd" fill-opacity="1" stroke="#8e6bbf" stroke-opacity="1" stroke-width="3.168"/>
<path clip-path="url(#clip942)" d="M1467.9 866.232 L1467.9 894.232 L1495.9 894.232 L1495.9 866.232 L1467.9 866.232 Z" fill="#ffffff" fill-rule="evenodd" fill-opacity="1" stroke="#8e6bbf" stroke-opacity="1" stroke-width="3.168"/>
<path clip-path="url(#clip942)" d="M1467.9 816.782 L1467.9 844.782 L1495.9 844.782 L1495.9 816.782 L1467.9 816.782 Z" fill="#ffffff" fill-rule="evenodd" fill-opacity="1" stroke="#8e6bbf" stroke-opacity="1" stroke-width="3.168"/>
<path clip-path="url(#clip942)" d="M1467.9 988.256 L1467.9 1016.26 L1495.9 1016.26 L1495.9 988.256 L1467.9 988.256 Z" fill="#ffffff" fill-rule="evenodd" fill-opacity="1" stroke="#8e6bbf" stroke-opacity="1" stroke-width="3.168"/>
<path clip-path="url(#clip942)" d="M1467.9 897.133 L1467.9 925.133 L1495.9 925.133 L1495.9 897.133 L1467.9 897.133 Z" fill="#ffffff" fill-rule="evenodd" fill-opacity="1" stroke="#8e6bbf" stroke-opacity="1" stroke-width="3.168"/>
<path clip-path="url(#clip942)" d="M1467.9 891.066 L1467.9 919.066 L1495.9 919.066 L1495.9 891.066 L1467.9 891.066 Z" fill="#ffffff" fill-rule="evenodd" fill-opacity="1" stroke="#8e6bbf" stroke-opacity="1" stroke-width="3.168"/>
<path clip-path="url(#clip942)" d="M1467.9 802.208 L1467.9 830.208 L1495.9 830.208 L1495.9 802.208 L1467.9 802.208 Z" fill="#ffffff" fill-rule="evenodd" fill-opacity="1" stroke="#8e6bbf" stroke-opacity="1" stroke-width="3.168"/>
<path clip-path="url(#clip942)" d="M1467.9 413.334 L1467.9 441.334 L1495.9 441.334 L1495.9 413.334 L1467.9 413.334 Z" fill="#ffffff" fill-rule="evenodd" fill-opacity="1" stroke="#8e6bbf" stroke-opacity="1" stroke-width="3.168"/>
<path clip-path="url(#clip942)" d="M1467.9 788.91 L1467.9 816.91 L1495.9 816.91 L1495.9 788.91 L1467.9 788.91 Z" fill="#ffffff" fill-rule="evenodd" fill-opacity="1" stroke="#8e6bbf" stroke-opacity="1" stroke-width="3.168"/>
<path clip-path="url(#clip942)" d="M1467.9 602.769 L1467.9 630.769 L1495.9 630.769 L1495.9 602.769 L1467.9 602.769 Z" fill="#ffffff" fill-rule="evenodd" fill-opacity="1" stroke="#8e6bbf" stroke-opacity="1" stroke-width="3.168"/>
<path clip-path="url(#clip942)" d="M1467.9 867.492 L1467.9 895.492 L1495.9 895.492 L1495.9 867.492 L1467.9 867.492 Z" fill="#ffffff" fill-rule="evenodd" fill-opacity="1" stroke="#8e6bbf" stroke-opacity="1" stroke-width="3.168"/>
<path clip-path="url(#clip942)" d="M1467.9 484.295 L1467.9 512.295 L1495.9 512.295 L1495.9 484.295 L1467.9 484.295 Z" fill="#ffffff" fill-rule="evenodd" fill-opacity="1" stroke="#8e6bbf" stroke-opacity="1" stroke-width="3.168"/>
<polyline clip-path="url(#clip942)" style="stroke:#000000; stroke-linecap:round; stroke-linejoin:round; stroke-width:4; stroke-opacity:1; fill:none" points="1230.48,271.539 1230.48,242.39 1481.9,242.39 1481.9,271.539 "/>
<path clip-path="url(#clip940)" d="M587.015 198.252 L577.666 203.304 L587.015 208.383 L585.504 210.935 L576.754 205.648 L576.754 215.466 L573.786 215.466 L573.786 205.648 L565.036 210.935 L563.525 208.383 L572.874 203.304 L563.525 198.252 L565.036 195.674 L573.786 200.961 L573.786 191.143 L576.754 191.143 L576.754 200.961 L585.504 195.674 L587.015 198.252 Z" fill="#000000" fill-rule="nonzero" fill-opacity="1" /><path clip-path="url(#clip940)" d="M613.681 198.252 L604.332 203.304 L613.681 208.383 L612.171 210.935 L603.421 205.648 L603.421 215.466 L600.452 215.466 L600.452 205.648 L591.702 210.935 L590.192 208.383 L599.541 203.304 L590.192 198.252 L591.702 195.674 L600.452 200.961 L600.452 191.143 L603.421 191.143 L603.421 200.961 L612.171 195.674 L613.681 198.252 Z" fill="#000000" fill-rule="nonzero" fill-opacity="1" /><path clip-path="url(#clip940)" d="M640.348 198.252 L630.999 203.304 L640.348 208.383 L638.837 210.935 L630.087 205.648 L630.087 215.466 L627.119 215.466 L627.119 205.648 L618.369 210.935 L616.858 208.383 L626.207 203.304 L616.858 198.252 L618.369 195.674 L627.119 200.961 L627.119 191.143 L630.087 191.143 L630.087 200.961 L638.837 195.674 L640.348 198.252 Z" fill="#000000" fill-rule="nonzero" fill-opacity="1" /><path clip-path="url(#clip940)" d="M473.673 133.842 L473.673 138.402 Q471.011 137.129 468.65 136.504 Q466.289 135.879 464.09 135.879 Q460.271 135.879 458.187 137.36 Q456.127 138.842 456.127 141.573 Q456.127 143.865 457.493 145.045 Q458.882 146.203 462.724 146.92 L465.548 147.499 Q470.78 148.494 473.257 151.017 Q475.757 153.517 475.757 157.73 Q475.757 162.753 472.377 165.346 Q469.021 167.939 462.516 167.939 Q460.062 167.939 457.284 167.383 Q454.53 166.828 451.567 165.74 L451.567 160.925 Q454.414 162.522 457.146 163.332 Q459.877 164.142 462.516 164.142 Q466.521 164.142 468.696 162.568 Q470.872 160.994 470.872 158.078 Q470.872 155.531 469.298 154.096 Q467.747 152.661 464.183 151.943 L461.335 151.388 Q456.104 150.346 453.766 148.124 Q451.428 145.902 451.428 141.943 Q451.428 137.36 454.646 134.721 Q457.886 132.082 463.558 132.082 Q465.988 132.082 468.511 132.522 Q471.034 132.962 473.673 133.842 Z" fill="#1f9e89" fill-rule="nonzero" fill-opacity="1" /><path clip-path="url(#clip940)" d="M505.039 153.24 L505.039 155.323 L485.456 155.323 Q485.733 159.721 488.094 162.036 Q490.479 164.328 494.715 164.328 Q497.169 164.328 499.46 163.726 Q501.775 163.124 504.043 161.92 L504.043 165.948 Q501.752 166.92 499.344 167.429 Q496.937 167.939 494.46 167.939 Q488.257 167.939 484.622 164.328 Q481.011 160.716 481.011 154.559 Q481.011 148.193 484.437 144.467 Q487.886 140.717 493.719 140.717 Q498.951 140.717 501.983 144.096 Q505.039 147.453 505.039 153.24 M500.78 151.99 Q500.733 148.494 498.812 146.411 Q496.914 144.328 493.766 144.328 Q490.201 144.328 488.048 146.342 Q485.919 148.355 485.595 152.013 L500.78 151.99 Z" fill="#1f9e89" fill-rule="nonzero" fill-opacity="1" /><path clip-path="url(#clip940)" d="M528.557 142.105 L528.557 146.133 Q526.752 145.207 524.807 144.744 Q522.863 144.281 520.78 144.281 Q517.608 144.281 516.011 145.254 Q514.437 146.226 514.437 148.17 Q514.437 149.652 515.571 150.508 Q516.705 151.342 520.131 152.105 L521.59 152.429 Q526.127 153.402 528.025 155.184 Q529.946 156.943 529.946 160.115 Q529.946 163.726 527.076 165.832 Q524.229 167.939 519.229 167.939 Q517.145 167.939 514.877 167.522 Q512.631 167.128 510.131 166.318 L510.131 161.92 Q512.493 163.147 514.784 163.772 Q517.076 164.374 519.321 164.374 Q522.33 164.374 523.951 163.355 Q525.571 162.314 525.571 160.439 Q525.571 158.703 524.391 157.777 Q523.233 156.851 519.275 155.994 L517.793 155.647 Q513.835 154.814 512.076 153.101 Q510.317 151.365 510.317 148.355 Q510.317 144.698 512.909 142.707 Q515.502 140.717 520.27 140.717 Q522.631 140.717 524.715 141.064 Q526.798 141.411 528.557 142.105 Z" fill="#1f9e89" fill-rule="nonzero" fill-opacity="1" /><path clip-path="url(#clip940)" d="M553.256 142.105 L553.256 146.133 Q551.451 145.207 549.506 144.744 Q547.562 144.281 545.478 144.281 Q542.307 144.281 540.71 145.254 Q539.136 146.226 539.136 148.17 Q539.136 149.652 540.27 150.508 Q541.404 151.342 544.83 152.105 L546.289 152.429 Q550.826 153.402 552.724 155.184 Q554.645 156.943 554.645 160.115 Q554.645 163.726 551.775 165.832 Q548.927 167.939 543.928 167.939 Q541.844 167.939 539.576 167.522 Q537.33 167.128 534.83 166.318 L534.83 161.92 Q537.191 163.147 539.483 163.772 Q541.775 164.374 544.02 164.374 Q547.029 164.374 548.65 163.355 Q550.27 162.314 550.27 160.439 Q550.27 158.703 549.09 157.777 Q547.932 156.851 543.974 155.994 L542.492 155.647 Q538.534 154.814 536.775 153.101 Q535.016 151.365 535.016 148.355 Q535.016 144.698 537.608 142.707 Q540.201 140.717 544.969 140.717 Q547.33 140.717 549.414 141.064 Q551.497 141.411 553.256 142.105 Z" fill="#1f9e89" fill-rule="nonzero" fill-opacity="1" /><path clip-path="url(#clip940)" d="M561.427 141.342 L565.687 141.342 L565.687 167.267 L561.427 167.267 L561.427 141.342 M561.427 131.249 L565.687 131.249 L565.687 136.643 L561.427 136.643 L561.427 131.249 Z" fill="#1f9e89" fill-rule="nonzero" fill-opacity="1" /><path clip-path="url(#clip940)" d="M584.645 144.328 Q581.219 144.328 579.228 147.013 Q577.238 149.675 577.238 154.328 Q577.238 158.98 579.205 161.666 Q581.196 164.328 584.645 164.328 Q588.048 164.328 590.038 161.642 Q592.029 158.957 592.029 154.328 Q592.029 149.721 590.038 147.036 Q588.048 144.328 584.645 144.328 M584.645 140.717 Q590.2 140.717 593.372 144.328 Q596.543 147.939 596.543 154.328 Q596.543 160.693 593.372 164.328 Q590.2 167.939 584.645 167.939 Q579.066 167.939 575.895 164.328 Q572.747 160.693 572.747 154.328 Q572.747 147.939 575.895 144.328 Q579.066 140.717 584.645 140.717 Z" fill="#1f9e89" fill-rule="nonzero" fill-opacity="1" /><path clip-path="url(#clip940)" d="M625.154 151.619 L625.154 167.267 L620.895 167.267 L620.895 151.758 Q620.895 148.078 619.46 146.249 Q618.024 144.42 615.154 144.42 Q611.705 144.42 609.714 146.619 Q607.723 148.818 607.723 152.615 L607.723 167.267 L603.441 167.267 L603.441 141.342 L607.723 141.342 L607.723 145.369 Q609.251 143.031 611.311 141.874 Q613.395 140.717 616.103 140.717 Q620.571 140.717 622.862 143.494 Q625.154 146.249 625.154 151.619 Z" fill="#1f9e89" fill-rule="nonzero" fill-opacity="1" /><path clip-path="url(#clip940)" d="M658.95 131.295 Q655.848 136.619 654.344 141.828 Q652.839 147.036 652.839 152.383 Q652.839 157.73 654.344 162.985 Q655.871 168.216 658.95 173.517 L655.246 173.517 Q651.774 168.078 650.038 162.823 Q648.325 157.568 648.325 152.383 Q648.325 147.221 650.038 141.99 Q651.751 136.758 655.246 131.295 L658.95 131.295 Z" fill="#1f9e89" fill-rule="nonzero" fill-opacity="1" /><path clip-path="url(#clip940)" d="M671.844 163.332 L688.163 163.332 L688.163 167.267 L666.219 167.267 L666.219 163.332 Q668.881 160.578 673.464 155.948 Q678.07 151.295 679.251 149.953 Q681.496 147.429 682.376 145.693 Q683.279 143.934 683.279 142.244 Q683.279 139.49 681.334 137.754 Q679.413 136.018 676.311 136.018 Q674.112 136.018 671.658 136.781 Q669.228 137.545 666.45 139.096 L666.45 134.374 Q669.274 133.24 671.728 132.661 Q674.181 132.082 676.218 132.082 Q681.589 132.082 684.783 134.768 Q687.978 137.453 687.978 141.943 Q687.978 144.073 687.167 145.994 Q686.38 147.892 684.274 150.485 Q683.695 151.156 680.593 154.374 Q677.492 157.568 671.844 163.332 Z" fill="#1f9e89" fill-rule="nonzero" fill-opacity="1" /><path clip-path="url(#clip940)" d="M733.996 151.619 L733.996 167.267 L729.737 167.267 L729.737 151.758 Q729.737 148.078 728.302 146.249 Q726.866 144.42 723.996 144.42 Q720.547 144.42 718.556 146.619 Q716.565 148.818 716.565 152.615 L716.565 167.267 L712.283 167.267 L712.283 131.249 L716.565 131.249 L716.565 145.369 Q718.093 143.031 720.153 141.874 Q722.237 140.717 724.945 140.717 Q729.413 140.717 731.704 143.494 Q733.996 146.249 733.996 151.619 Z" fill="#1f9e89" fill-rule="nonzero" fill-opacity="1" /><path clip-path="url(#clip940)" d="M741.82 131.295 L745.524 131.295 Q748.996 136.758 750.709 141.99 Q752.445 147.221 752.445 152.383 Q752.445 157.568 750.709 162.823 Q748.996 168.078 745.524 173.517 L741.82 173.517 Q744.899 168.216 746.403 162.985 Q747.931 157.73 747.931 152.383 Q747.931 147.036 746.403 141.828 Q744.899 136.619 741.82 131.295 Z" fill="#1f9e89" fill-rule="nonzero" fill-opacity="1" /><path clip-path="url(#clip940)" d="M1327.94 198.252 L1318.59 203.304 L1327.94 208.383 L1326.43 210.935 L1317.68 205.648 L1317.68 215.466 L1314.71 215.466 L1314.71 205.648 L1305.96 210.935 L1304.45 208.383 L1313.8 203.304 L1304.45 198.252 L1305.96 195.674 L1314.71 200.961 L1314.71 191.143 L1317.68 191.143 L1317.68 200.961 L1326.43 195.674 L1327.94 198.252 Z" fill="#000000" fill-rule="nonzero" fill-opacity="1" /><path clip-path="url(#clip940)" d="M1354.61 198.252 L1345.26 203.304 L1354.61 208.383 L1353.1 210.935 L1344.35 205.648 L1344.35 215.466 L1341.38 215.466 L1341.38 205.648 L1332.63 210.935 L1331.12 208.383 L1340.47 203.304 L1331.12 198.252 L1332.63 195.674 L1341.38 200.961 L1341.38 191.143 L1344.35 191.143 L1344.35 200.961 L1353.1 195.674 L1354.61 198.252 Z" fill="#000000" fill-rule="nonzero" fill-opacity="1" /><path clip-path="url(#clip940)" d="M1381.27 198.252 L1371.92 203.304 L1381.27 208.383 L1379.76 210.935 L1371.01 205.648 L1371.01 215.466 L1368.04 215.466 L1368.04 205.648 L1359.29 210.935 L1357.78 208.383 L1367.13 203.304 L1357.78 198.252 L1359.29 195.674 L1368.04 200.961 L1368.04 191.143 L1371.01 191.143 L1371.01 200.961 L1379.76 195.674 L1381.27 198.252 Z" fill="#000000" fill-rule="nonzero" fill-opacity="1" /><path clip-path="url(#clip940)" d="M1407.94 198.252 L1398.59 203.304 L1407.94 208.383 L1406.43 210.935 L1397.68 205.648 L1397.68 215.466 L1394.71 215.466 L1394.71 205.648 L1385.96 210.935 L1384.45 208.383 L1393.8 203.304 L1384.45 198.252 L1385.96 195.674 L1394.71 200.961 L1394.71 191.143 L1397.68 191.143 L1397.68 200.961 L1406.43 195.674 L1407.94 198.252 Z" fill="#000000" fill-rule="nonzero" fill-opacity="1" /><path clip-path="url(#clip940)" d="M1312.85 163.332 L1329.17 163.332 L1329.17 167.267 L1307.22 167.267 L1307.22 163.332 Q1309.89 160.578 1314.47 155.948 Q1319.08 151.295 1320.26 149.953 Q1322.5 147.429 1323.38 145.693 Q1324.29 143.934 1324.29 142.244 Q1324.29 139.49 1322.34 137.754 Q1320.42 136.018 1317.32 136.018 Q1315.12 136.018 1312.66 136.781 Q1310.23 137.545 1307.46 139.096 L1307.46 134.374 Q1310.28 133.24 1312.73 132.661 Q1315.19 132.082 1317.22 132.082 Q1322.6 132.082 1325.79 134.768 Q1328.98 137.453 1328.98 141.943 Q1328.98 144.073 1328.17 145.994 Q1327.39 147.892 1325.28 150.485 Q1324.7 151.156 1321.6 154.374 Q1318.5 157.568 1312.85 163.332 Z" fill="#8e6bbf" fill-rule="nonzero" fill-opacity="1" /><path clip-path="url(#clip940)" d="M1351.83 136.781 L1340.03 155.23 L1351.83 155.23 L1351.83 136.781 M1350.6 132.707 L1356.48 132.707 L1356.48 155.23 L1361.41 155.23 L1361.41 159.119 L1356.48 159.119 L1356.48 167.267 L1351.83 167.267 L1351.83 159.119 L1336.23 159.119 L1336.23 154.605 L1350.6 132.707 Z" fill="#8e6bbf" fill-rule="nonzero" fill-opacity="1" /><path clip-path="url(#clip940)" d="M1405.16 151.619 L1405.16 167.267 L1400.91 167.267 L1400.91 151.758 Q1400.91 148.078 1399.47 146.249 Q1398.03 144.42 1395.16 144.42 Q1391.72 144.42 1389.72 146.619 Q1387.73 148.818 1387.73 152.615 L1387.73 167.267 L1383.45 167.267 L1383.45 131.249 L1387.73 131.249 L1387.73 145.369 Q1389.26 143.031 1391.32 141.874 Q1393.41 140.717 1396.11 140.717 Q1400.58 140.717 1402.87 143.494 Q1405.16 146.249 1405.16 151.619 Z" fill="#8e6bbf" fill-rule="nonzero" fill-opacity="1" /></svg>
