<?xml version="1.0" encoding="utf-8"?>
<svg xmlns="http://www.w3.org/2000/svg" xmlns:xlink="http://www.w3.org/1999/xlink" width="600" height="400" viewBox="0 0 2400 1600">
<defs>
  <clipPath id="clip810">
    <rect x="0" y="0" width="2400" height="1600"/>
  </clipPath>
</defs>
<path clip-path="url(#clip810)" d="M0 1600 L2400 1600 L2400 0 L0 0  Z" fill="#ffffff" fill-rule="evenodd" fill-opacity="1"/>
<defs>
  <clipPath id="clip811">
    <rect x="480" y="0" width="1681" height="1600"/>
  </clipPath>
</defs>
<path clip-path="url(#clip810)" d="M242.516 1425.62 L2352.76 1425.62 L2352.76 47.2441 L242.516 47.2441  Z" fill="#ffffff" fill-rule="evenodd" fill-opacity="1"/>
<defs>
  <clipPath id="clip812">
    <rect x="242" y="47" width="2111" height="1379"/>
  </clipPath>
</defs>
<polyline clip-path="url(#clip812)" style="stroke:#000000; stroke-linecap:round; stroke-linejoin:round; stroke-width:2; stroke-opacity:0.1; fill:none" points="721.354,1425.62 721.354,47.2441 "/>
<polyline clip-path="url(#clip812)" style="stroke:#000000; stroke-linecap:round; stroke-linejoin:round; stroke-width:2; stroke-opacity:0.1; fill:none" points="1245.25,1425.62 1245.25,47.2441 "/>
<polyline clip-path="url(#clip812)" style="stroke:#000000; stroke-linecap:round; stroke-linejoin:round; stroke-width:2; stroke-opacity:0.1; fill:none" points="1769.14,1425.62 1769.14,47.2441 "/>
<polyline clip-path="url(#clip812)" style="stroke:#000000; stroke-linecap:round; stroke-linejoin:round; stroke-width:2; stroke-opacity:0.1; fill:none" points="2293.03,1425.62 2293.03,47.2441 "/>
<polyline clip-path="url(#clip812)" style="stroke:#000000; stroke-linecap:round; stroke-linejoin:round; stroke-width:2; stroke-opacity:0.1; fill:none" points="242.516,1205.52 2352.76,1205.52 "/>
<polyline clip-path="url(#clip812)" style="stroke:#000000; stroke-linecap:round; stroke-linejoin:round; stroke-width:2; stroke-opacity:0.1; fill:none" points="242.516,848.168 2352.76,848.168 "/>
<polyline clip-path="url(#clip812)" style="stroke:#000000; stroke-linecap:round; stroke-linejoin:round; stroke-width:2; stroke-opacity:0.1; fill:none" points="242.516,490.821 2352.76,490.821 "/>
<polyline clip-path="url(#clip812)" style="stroke:#000000; stroke-linecap:round; stroke-linejoin:round; stroke-width:2; stroke-opacity:0.1; fill:none" points="242.516,133.474 2352.76,133.474 "/>
<polyline clip-path="url(#clip810)" style="stroke:#000000; stroke-linecap:round; stroke-linejoin:round; stroke-width:4; stroke-opacity:1; fill:none" points="242.516,1425.62 2352.76,1425.62 "/>
<polyline clip-path="url(#clip810)" style="stroke:#000000; stroke-linecap:round; stroke-linejoin:round; stroke-width:4; stroke-opacity:1; fill:none" points="721.354,1425.62 721.354,1406.72 "/>
<polyline clip-path="url(#clip810)" style="stroke:#000000; stroke-linecap:round; stroke-linejoin:round; stroke-width:4; stroke-opacity:1; fill:none" points="1245.25,1425.62 1245.25,1406.72 "/>
<polyline clip-path="url(#clip810)" style="stroke:#000000; stroke-linecap:round; stroke-linejoin:round; stroke-width:4; stroke-opacity:1; fill:none" points="1769.14,1425.62 1769.14,1406.72 "/>
<polyline clip-path="url(#clip810)" style="stroke:#000000; stroke-linecap:round; stroke-linejoin:round; stroke-width:4; stroke-opacity:1; fill:none" points="2293.03,1425.62 2293.03,1406.72 "/>
<g clip-path="url(#clip810)">
<text style="fill:#000000; fill-opacity:1; font-family:Arial,Helvetica Neue,Helvetica,sans-serif; font-size:48px; text-anchor:middle;" transform="rotate(0, 721.354, 1487.47)" x="721.354" y="1487.47">5</text>
</g>
<g clip-path="url(#clip810)">
<text style="fill:#000000; fill-opacity:1; font-family:Arial,Helvetica Neue,Helvetica,sans-serif; font-size:48px; text-anchor:middle;" transform="rotate(0, 1245.25, 1487.47)" x="1245.25" y="1487.47">10</text>
</g>
<g clip-path="url(#clip810)">
<text style="fill:#000000; fill-opacity:1; font-family:Arial,Helvetica Neue,Helvetica,sans-serif; font-size:48px; text-anchor:middle;" transform="rotate(0, 1769.14, 1487.47)" x="1769.14" y="1487.47">15</text>
</g>
<g clip-path="url(#clip810)">
<text style="fill:#000000; fill-opacity:1; font-family:Arial,Helvetica Neue,Helvetica,sans-serif; font-size:48px; text-anchor:middle;" transform="rotate(0, 2293.03, 1487.47)" x="2293.03" y="1487.47">20</text>
</g>
<g clip-path="url(#clip810)">
<text style="fill:#000000; fill-opacity:1; font-family:Arial,Helvetica Neue,Helvetica,sans-serif; font-size:66px; text-anchor:middle;" transform="rotate(0, 1297.64, 1571.48)" x="1297.64" y="1571.48">Lag</text>
</g>
<polyline clip-path="url(#clip810)" style="stroke:#000000; stroke-linecap:round; stroke-linejoin:round; stroke-width:4; stroke-opacity:1; fill:none" points="242.516,1425.62 242.516,47.2441 "/>
<polyline clip-path="url(#clip810)" style="stroke:#000000; stroke-linecap:round; stroke-linejoin:round; stroke-width:4; stroke-opacity:1; fill:none" points="242.516,1205.52 261.414,1205.52 "/>
<polyline clip-path="url(#clip810)" style="stroke:#000000; stroke-linecap:round; stroke-linejoin:round; stroke-width:4; stroke-opacity:1; fill:none" points="242.516,848.168 261.414,848.168 "/>
<polyline clip-path="url(#clip810)" style="stroke:#000000; stroke-linecap:round; stroke-linejoin:round; stroke-width:4; stroke-opacity:1; fill:none" points="242.516,490.821 261.414,490.821 "/>
<polyline clip-path="url(#clip810)" style="stroke:#000000; stroke-linecap:round; stroke-linejoin:round; stroke-width:4; stroke-opacity:1; fill:none" points="242.516,133.474 261.414,133.474 "/>
<g clip-path="url(#clip810)">
<text style="fill:#000000; fill-opacity:1; font-family:Arial,Helvetica Neue,Helvetica,sans-serif; font-size:48px; text-anchor:middle;" transform="rotate(0, 159.682, 1223.02)" x="159.682" y="1223.02">0.00</text>
</g>
<g clip-path="url(#clip810)">
<text style="fill:#000000; fill-opacity:1; font-family:Arial,Helvetica Neue,Helvetica,sans-serif; font-size:48px; text-anchor:middle;" transform="rotate(0, 159.682, 865.668)" x="159.682" y="865.668">0.05</text>
</g>
<g clip-path="url(#clip810)">
<text style="fill:#000000; fill-opacity:1; font-family:Arial,Helvetica Neue,Helvetica,sans-serif; font-size:48px; text-anchor:middle;" transform="rotate(0, 159.682, 508.321)" x="159.682" y="508.321">0.10</text>
</g>
<g clip-path="url(#clip810)">
<text style="fill:#000000; fill-opacity:1; font-family:Arial,Helvetica Neue,Helvetica,sans-serif; font-size:48px; text-anchor:middle;" transform="rotate(0, 159.682, 150.974)" x="159.682" y="150.974">0.15</text>
</g>
<g clip-path="url(#clip810)">
<text style="fill:#000000; fill-opacity:1; font-family:Arial,Helvetica Neue,Helvetica,sans-serif; font-size:66px; text-anchor:middle;" transform="rotate(-90, 65.2861, 736.431)" x="65.2861" y="736.431">ACF</text>
</g>
<path clip-path="url(#clip812)" d="M302.24 794.031 L407.019 1076.62 L511.797 1178.07 L616.576 1122.31 L721.354 1229.18 L826.133 1288.05 L930.911 1271.51 L1035.69 1310.76 L1140.47 1287.7 L1245.25 1334.38 L1350.03 1316.63 L1454.8 1306.81 L1559.58 1311.8 L1664.36 1383.14 L1769.14 1353.1 L1873.92 1374.05 L1978.7 1330.41 L2083.48 1359.65 L2188.25 1386.61 L2293.03 1385.31 L2293.03 976.429 L2188.25 1046.67 L2083.48 984.573 L1978.7 1000.59 L1873.92 954.263 L1769.14 971.811 L1664.36 976.48 L1559.58 983.484 L1454.8 972.333 L1350.03 917.932 L1245.25 949.356 L1140.47 880.473 L1035.69 882.976 L930.911 850.042 L826.133 848.738 L721.354 792.36 L616.576 719.462 L511.797 653.997 L407.019 421.97 L302.24 86.2547  Z" fill="#009af9" fill-rule="evenodd" fill-opacity="0.5"/>
<polyline clip-path="url(#clip812)" style="stroke:#009af9; stroke-linecap:round; stroke-linejoin:round; stroke-width:12; stroke-opacity:0.5; fill:none" points="302.24,477.766 407.019,768.736 511.797,918.389 616.576,951.807 721.354,1005.24 826.133,1060.44 930.911,1079.4 1035.69,1107.37 1140.47,1097.78 1245.25,1145.39 1350.03,1148.38 1454.8,1142.09 1559.58,1157.61 1664.36,1165.75 1769.14,1175.13 1873.92,1176.35 1978.7,1173.47 2083.48,1181.21 2188.25,1196.76 2293.03,1180.51 "/>
<polyline clip-path="url(#clip812)" style="stroke:#000000; stroke-linecap:round; stroke-linejoin:round; stroke-width:12; stroke-opacity:1; fill:none" points="302.24,702.457 407.019,819.04 511.797,907.87 616.576,926.733 721.354,910.836 826.133,945.453 930.911,964.891 1035.69,997.785 1140.47,1019.05 1245.25,1000.83 1350.03,1071.71 1454.8,1080.89 1559.58,1022.41 1664.36,1067.31 1769.14,1090.44 1873.92,1056.19 1978.7,1090.1 2083.48,1106.88 2188.25,1059.73 2293.03,1071.92 "/>
<path clip-path="url(#clip810)" d="M1706.39 244.089 L2282.41 244.089 L2282.41 93.1899 L1706.39 93.1899  Z" fill="#ffffff" fill-rule="evenodd" fill-opacity="1"/>
<polyline clip-path="url(#clip810)" style="stroke:#000000; stroke-linecap:round; stroke-linejoin:round; stroke-width:4; stroke-opacity:1; fill:none" points="1706.39,244.089 2282.41,244.089 2282.41,93.1899 1706.39,93.1899 1706.39,244.089 "/>
<polyline clip-path="url(#clip810)" style="stroke:#009af9; stroke-linecap:round; stroke-linejoin:round; stroke-width:12; stroke-opacity:0.5; fill:none" points="1729.84,143.49 1870.52,143.49 "/>
<g clip-path="url(#clip810)">
<text style="fill:#000000; fill-opacity:1; font-family:Arial,Helvetica Neue,Helvetica,sans-serif; font-size:48px; text-anchor:start;" transform="rotate(0, 1893.97, 160.99)" x="1893.97" y="160.99">DDM-HMM PPC</text>
</g>
<polyline clip-path="url(#clip810)" style="stroke:#000000; stroke-linecap:round; stroke-linejoin:round; stroke-width:12; stroke-opacity:1; fill:none" points="1729.84,193.789 1870.52,193.789 "/>
<g clip-path="url(#clip810)">
<text style="fill:#000000; fill-opacity:1; font-family:Arial,Helvetica Neue,Helvetica,sans-serif; font-size:48px; text-anchor:start;" transform="rotate(0, 1893.97, 211.289)" x="1893.97" y="211.289">Real Data</text>
</g>
</svg>
