<?xml version="1.0" encoding="utf-8"?>
<svg xmlns="http://www.w3.org/2000/svg" xmlns:xlink="http://www.w3.org/1999/xlink" width="420" height="380" viewBox="0 0 1680 1520">
<defs>
  <clipPath id="clip580">
    <rect x="0" y="0" width="1680" height="1520"/>
  </clipPath>
</defs>
<path clip-path="url(#clip580)" d="M0 1520 L1680 1520 L1680 0 L0 0  Z" fill="#ffffff" fill-rule="evenodd" fill-opacity="1"/>
<defs>
  <clipPath id="clip581">
    <rect x="225" y="47" width="1409" height="1272"/>
  </clipPath>
</defs>
<path clip-path="url(#clip580)" d="M225.021 1317.98 L1632.76 1317.98 L1632.76 47.2441 L225.021 47.2441  Z" fill="#ffffff" fill-rule="evenodd" fill-opacity="1"/>
<polyline clip-path="url(#clip580)" style="stroke:#000000; stroke-linecap:round; stroke-linejoin:round; stroke-width:4; stroke-opacity:1; fill:none" points="225.021,1317.98 1632.76,1317.98 "/>
<polyline clip-path="url(#clip580)" style="stroke:#000000; stroke-linecap:round; stroke-linejoin:round; stroke-width:4; stroke-opacity:1; fill:none" points="264.863,1317.98 264.863,1299.08 "/>
<polyline clip-path="url(#clip580)" style="stroke:#000000; stroke-linecap:round; stroke-linejoin:round; stroke-width:4; stroke-opacity:1; fill:none" points="596.876,1317.98 596.876,1299.08 "/>
<polyline clip-path="url(#clip580)" style="stroke:#000000; stroke-linecap:round; stroke-linejoin:round; stroke-width:4; stroke-opacity:1; fill:none" points="928.889,1317.98 928.889,1299.08 "/>
<polyline clip-path="url(#clip580)" style="stroke:#000000; stroke-linecap:round; stroke-linejoin:round; stroke-width:4; stroke-opacity:1; fill:none" points="1260.9,1317.98 1260.9,1299.08 "/>
<polyline clip-path="url(#clip580)" style="stroke:#000000; stroke-linecap:round; stroke-linejoin:round; stroke-width:4; stroke-opacity:1; fill:none" points="1592.91,1317.98 1592.91,1299.08 "/>
<g clip-path="url(#clip580)">
<text style="fill:#000000; fill-opacity:1; font-family:Arial,Helvetica Neue,Helvetica,sans-serif; font-size:48px; text-anchor:middle;" transform="rotate(0, 264.863, 1374.07)" x="264.863" y="1374.07">1</text>
</g>
<g clip-path="url(#clip580)">
<text style="fill:#000000; fill-opacity:1; font-family:Arial,Helvetica Neue,Helvetica,sans-serif; font-size:48px; text-anchor:middle;" transform="rotate(0, 596.876, 1374.07)" x="596.876" y="1374.07">2</text>
</g>
<g clip-path="url(#clip580)">
<text style="fill:#000000; fill-opacity:1; font-family:Arial,Helvetica Neue,Helvetica,sans-serif; font-size:48px; text-anchor:middle;" transform="rotate(0, 928.889, 1374.07)" x="928.889" y="1374.07">3</text>
</g>
<g clip-path="url(#clip580)">
<text style="fill:#000000; fill-opacity:1; font-family:Arial,Helvetica Neue,Helvetica,sans-serif; font-size:48px; text-anchor:middle;" transform="rotate(0, 1260.9, 1374.07)" x="1260.9" y="1374.07">4</text>
</g>
<g clip-path="url(#clip580)">
<text style="fill:#000000; fill-opacity:1; font-family:Arial,Helvetica Neue,Helvetica,sans-serif; font-size:48px; text-anchor:middle;" transform="rotate(0, 1592.91, 1374.07)" x="1592.91" y="1374.07">5</text>
</g>
<g clip-path="url(#clip580)">
<text style="fill:#000000; fill-opacity:1; font-family:Arial,Helvetica Neue,Helvetica,sans-serif; font-size:66px; text-anchor:middle;" transform="rotate(0, 928.889, 1453.04)" x="928.889" y="1453.04">number of states (K)</text>
</g>
<polyline clip-path="url(#clip580)" style="stroke:#000000; stroke-linecap:round; stroke-linejoin:round; stroke-width:4; stroke-opacity:1; fill:none" points="225.021,1317.98 225.021,47.2441 "/>
<polyline clip-path="url(#clip580)" style="stroke:#000000; stroke-linecap:round; stroke-linejoin:round; stroke-width:4; stroke-opacity:1; fill:none" points="225.021,1282.01 243.919,1282.01 "/>
<polyline clip-path="url(#clip580)" style="stroke:#000000; stroke-linecap:round; stroke-linejoin:round; stroke-width:4; stroke-opacity:1; fill:none" points="225.021,1012.76 243.919,1012.76 "/>
<polyline clip-path="url(#clip580)" style="stroke:#000000; stroke-linecap:round; stroke-linejoin:round; stroke-width:4; stroke-opacity:1; fill:none" points="225.021,743.516 243.919,743.516 "/>
<polyline clip-path="url(#clip580)" style="stroke:#000000; stroke-linecap:round; stroke-linejoin:round; stroke-width:4; stroke-opacity:1; fill:none" points="225.021,474.269 243.919,474.269 "/>
<polyline clip-path="url(#clip580)" style="stroke:#000000; stroke-linecap:round; stroke-linejoin:round; stroke-width:4; stroke-opacity:1; fill:none" points="225.021,205.022 243.919,205.022 "/>
<g clip-path="url(#clip580)">
<text style="fill:#000000; fill-opacity:1; font-family:Arial,Helvetica Neue,Helvetica,sans-serif; font-size:48px; text-anchor:middle;" transform="rotate(0, 166.368, 1299.51)" x="166.368" y="1299.51">0.0</text>
</g>
<g clip-path="url(#clip580)">
<text style="fill:#000000; fill-opacity:1; font-family:Arial,Helvetica Neue,Helvetica,sans-serif; font-size:48px; text-anchor:middle;" transform="rotate(0, 166.368, 1030.26)" x="166.368" y="1030.26">0.2</text>
</g>
<g clip-path="url(#clip580)">
<text style="fill:#000000; fill-opacity:1; font-family:Arial,Helvetica Neue,Helvetica,sans-serif; font-size:48px; text-anchor:middle;" transform="rotate(0, 166.368, 761.016)" x="166.368" y="761.016">0.4</text>
</g>
<g clip-path="url(#clip580)">
<text style="fill:#000000; fill-opacity:1; font-family:Arial,Helvetica Neue,Helvetica,sans-serif; font-size:48px; text-anchor:middle;" transform="rotate(0, 166.368, 491.769)" x="166.368" y="491.769">0.6</text>
</g>
<g clip-path="url(#clip580)">
<text style="fill:#000000; fill-opacity:1; font-family:Arial,Helvetica Neue,Helvetica,sans-serif; font-size:48px; text-anchor:middle;" transform="rotate(0, 166.368, 222.522)" x="166.368" y="222.522">0.8</text>
</g>
<g clip-path="url(#clip580)">
<text style="fill:#000000; fill-opacity:1; font-family:Arial,Helvetica Neue,Helvetica,sans-serif; font-size:66px; text-anchor:middle;" transform="rotate(-90, 96.1533, 682.61)" x="96.1533" y="682.61">Δ held-out logL per trial (vs K = 1)</text>
</g>
<polyline clip-path="url(#clip581)" style="stroke:#b3b3b3; stroke-linecap:round; stroke-linejoin:round; stroke-width:4; stroke-opacity:1; fill:none" stroke-dasharray="16, 10" points="-1182.71,1282.01 3040.49,1282.01 "/>
<polyline clip-path="url(#clip581)" style="stroke:#a6a6a6; stroke-linecap:round; stroke-linejoin:round; stroke-width:4.8; stroke-opacity:0.9; fill:none" points="264.863,1282.01 596.876,674.201 928.889,641.976 1260.9,609.244 1592.91,594.321 "/>
<polyline clip-path="url(#clip581)" style="stroke:#a6a6a6; stroke-linecap:round; stroke-linejoin:round; stroke-width:4.8; stroke-opacity:0.9; fill:none" points="264.863,1282.01 596.876,457.43 928.889,392.976 1260.9,332.465 1592.91,83.2082 "/>
<polyline clip-path="url(#clip581)" style="stroke:#a6a6a6; stroke-linecap:round; stroke-linejoin:round; stroke-width:4.8; stroke-opacity:0.9; fill:none" points="264.863,1282.01 596.876,1129.23 928.889,1077.47 1260.9,1029.18 1592.91,1034.55 "/>
<polyline clip-path="url(#clip581)" style="stroke:#a6a6a6; stroke-linecap:round; stroke-linejoin:round; stroke-width:4.8; stroke-opacity:0.9; fill:none" points="264.863,1282.01 596.876,1090.25 928.889,1002.9 1260.9,944.352 1592.91,945.527 "/>
<polyline clip-path="url(#clip581)" style="stroke:#a6a6a6; stroke-linecap:round; stroke-linejoin:round; stroke-width:4.8; stroke-opacity:0.9; fill:none" points="264.863,1282.01 596.876,589.329 928.889,487.998 1260.9,431.445 1592.91,398.822 "/>
<polyline clip-path="url(#clip581)" style="stroke:#000000; stroke-linecap:round; stroke-linejoin:round; stroke-width:12; stroke-opacity:1; fill:none" points="264.863,1282.01 596.876,788.088 928.889,720.665 1260.9,669.337 1592.91,611.285 "/>
<circle clip-path="url(#clip581)" cx="264.863" cy="1282.01" r="18" fill="#000000" fill-rule="evenodd" fill-opacity="1" stroke="none"/>
<circle clip-path="url(#clip581)" cx="596.876" cy="788.088" r="18" fill="#000000" fill-rule="evenodd" fill-opacity="1" stroke="none"/>
<circle clip-path="url(#clip581)" cx="928.889" cy="720.665" r="18" fill="#000000" fill-rule="evenodd" fill-opacity="1" stroke="none"/>
<circle clip-path="url(#clip581)" cx="1260.9" cy="669.337" r="18" fill="#000000" fill-rule="evenodd" fill-opacity="1" stroke="none"/>
<circle clip-path="url(#clip581)" cx="1592.91" cy="611.285" r="18" fill="#000000" fill-rule="evenodd" fill-opacity="1" stroke="none"/>
</svg>
