<?xml version="1.0" encoding="utf-8"?>
<svg xmlns="http://www.w3.org/2000/svg" xmlns:xlink="http://www.w3.org/1999/xlink" width="750" height="520" viewBox="0 0 3000 2080">
<defs>
  <clipPath id="clip550">
    <rect x="0" y="0" width="3000" height="2080"/>
  </clipPath>
</defs>
<path clip-path="url(#clip550)" d="M0 2080 L3000 2080 L3000 0 L0 0  Z" fill="#ffffff" fill-rule="evenodd" fill-opacity="1"/>
<defs>
  <clipPath id="clip551">
    <rect x="250" y="124" width="2163" height="1775"/>
  </clipPath>
</defs>
<path clip-path="url(#clip550)" d="M250.361 1897.63 L2412.22 1897.63 L2412.22 124.022 L250.361 124.022  Z" fill="#ffffff" fill-rule="evenodd" fill-opacity="1"/>
<polyline clip-path="url(#clip551)" style="stroke:#000000; stroke-linecap:round; stroke-linejoin:round; stroke-width:2; stroke-opacity:0.1; fill:none" points="311.545,1897.63 311.545,124.022 "/>
<polyline clip-path="url(#clip551)" style="stroke:#000000; stroke-linecap:round; stroke-linejoin:round; stroke-width:2; stroke-opacity:0.1; fill:none" points="821.417,1897.63 821.417,124.022 "/>
<polyline clip-path="url(#clip551)" style="stroke:#000000; stroke-linecap:round; stroke-linejoin:round; stroke-width:2; stroke-opacity:0.1; fill:none" points="1331.29,1897.63 1331.29,124.022 "/>
<polyline clip-path="url(#clip551)" style="stroke:#000000; stroke-linecap:round; stroke-linejoin:round; stroke-width:2; stroke-opacity:0.1; fill:none" points="1841.16,1897.63 1841.16,124.022 "/>
<polyline clip-path="url(#clip551)" style="stroke:#000000; stroke-linecap:round; stroke-linejoin:round; stroke-width:2; stroke-opacity:0.1; fill:none" points="2351.03,1897.63 2351.03,124.022 "/>
<polyline clip-path="url(#clip551)" style="stroke:#000000; stroke-linecap:round; stroke-linejoin:round; stroke-width:2; stroke-opacity:0.1; fill:none" points="250.361,1713.61 2412.22,1713.61 "/>
<polyline clip-path="url(#clip551)" style="stroke:#000000; stroke-linecap:round; stroke-linejoin:round; stroke-width:2; stroke-opacity:0.1; fill:none" points="250.361,1437.18 2412.22,1437.18 "/>
<polyline clip-path="url(#clip551)" style="stroke:#000000; stroke-linecap:round; stroke-linejoin:round; stroke-width:2; stroke-opacity:0.1; fill:none" points="250.361,1160.75 2412.22,1160.75 "/>
<polyline clip-path="url(#clip551)" style="stroke:#000000; stroke-linecap:round; stroke-linejoin:round; stroke-width:2; stroke-opacity:0.1; fill:none" points="250.361,884.326 2412.22,884.326 "/>
<polyline clip-path="url(#clip551)" style="stroke:#000000; stroke-linecap:round; stroke-linejoin:round; stroke-width:2; stroke-opacity:0.1; fill:none" points="250.361,607.896 2412.22,607.896 "/>
<polyline clip-path="url(#clip551)" style="stroke:#000000; stroke-linecap:round; stroke-linejoin:round; stroke-width:2; stroke-opacity:0.1; fill:none" points="250.361,331.467 2412.22,331.467 "/>
<polyline clip-path="url(#clip550)" style="stroke:#000000; stroke-linecap:round; stroke-linejoin:round; stroke-width:4; stroke-opacity:1; fill:none" points="250.361,1897.63 2412.22,1897.63 "/>
<polyline clip-path="url(#clip550)" style="stroke:#000000; stroke-linecap:round; stroke-linejoin:round; stroke-width:4; stroke-opacity:1; fill:none" points="311.545,1897.63 311.545,1878.74 "/>
<polyline clip-path="url(#clip550)" style="stroke:#000000; stroke-linecap:round; stroke-linejoin:round; stroke-width:4; stroke-opacity:1; fill:none" points="821.417,1897.63 821.417,1878.74 "/>
<polyline clip-path="url(#clip550)" style="stroke:#000000; stroke-linecap:round; stroke-linejoin:round; stroke-width:4; stroke-opacity:1; fill:none" points="1331.29,1897.63 1331.29,1878.74 "/>
<polyline clip-path="url(#clip550)" style="stroke:#000000; stroke-linecap:round; stroke-linejoin:round; stroke-width:4; stroke-opacity:1; fill:none" points="1841.16,1897.63 1841.16,1878.74 "/>
<polyline clip-path="url(#clip550)" style="stroke:#000000; stroke-linecap:round; stroke-linejoin:round; stroke-width:4; stroke-opacity:1; fill:none" points="2351.03,1897.63 2351.03,1878.74 "/>
<g clip-path="url(#clip550)">
<text style="fill:#000000; fill-opacity:1; font-family:Arial,Helvetica Neue,Helvetica,sans-serif; font-size:48px; text-anchor:middle;" transform="rotate(0, 311.545, 1964.28)" x="311.545" y="1964.28">1</text>
</g>
<g clip-path="url(#clip550)">
<text style="fill:#000000; fill-opacity:1; font-family:Arial,Helvetica Neue,Helvetica,sans-serif; font-size:48px; text-anchor:middle;" transform="rotate(0, 821.417, 1964.28)" x="821.417" y="1964.28">2</text>
</g>
<g clip-path="url(#clip550)">
<text style="fill:#000000; fill-opacity:1; font-family:Arial,Helvetica Neue,Helvetica,sans-serif; font-size:48px; text-anchor:middle;" transform="rotate(0, 1331.29, 1964.28)" x="1331.29" y="1964.28">3</text>
</g>
<g clip-path="url(#clip550)">
<text style="fill:#000000; fill-opacity:1; font-family:Arial,Helvetica Neue,Helvetica,sans-serif; font-size:48px; text-anchor:middle;" transform="rotate(0, 1841.16, 1964.28)" x="1841.16" y="1964.28">4</text>
</g>
<g clip-path="url(#clip550)">
<text style="fill:#000000; fill-opacity:1; font-family:Arial,Helvetica Neue,Helvetica,sans-serif; font-size:48px; text-anchor:middle;" transform="rotate(0, 2351.03, 1964.28)" x="2351.03" y="1964.28">5</text>
</g>
<g clip-path="url(#clip550)">
<text style="fill:#000000; fill-opacity:1; font-family:Arial,Helvetica Neue,Helvetica,sans-serif; font-size:66px; text-anchor:middle;" transform="rotate(0, 1331.29, 2052.49)" x="1331.29" y="2052.49">number of states (K)</text>
</g>
<polyline clip-path="url(#clip550)" style="stroke:#000000; stroke-linecap:round; stroke-linejoin:round; stroke-width:4; stroke-opacity:1; fill:none" points="250.361,1897.63 250.361,124.022 "/>
<polyline clip-path="url(#clip550)" style="stroke:#000000; stroke-linecap:round; stroke-linejoin:round; stroke-width:4; stroke-opacity:1; fill:none" points="250.361,1713.61 265.478,1713.61 "/>
<polyline clip-path="url(#clip550)" style="stroke:#000000; stroke-linecap:round; stroke-linejoin:round; stroke-width:4; stroke-opacity:1; fill:none" points="250.361,1437.18 265.478,1437.18 "/>
<polyline clip-path="url(#clip550)" style="stroke:#000000; stroke-linecap:round; stroke-linejoin:round; stroke-width:4; stroke-opacity:1; fill:none" points="250.361,1160.75 265.478,1160.75 "/>
<polyline clip-path="url(#clip550)" style="stroke:#000000; stroke-linecap:round; stroke-linejoin:round; stroke-width:4; stroke-opacity:1; fill:none" points="250.361,884.326 265.478,884.326 "/>
<polyline clip-path="url(#clip550)" style="stroke:#000000; stroke-linecap:round; stroke-linejoin:round; stroke-width:4; stroke-opacity:1; fill:none" points="250.361,607.896 265.478,607.896 "/>
<polyline clip-path="url(#clip550)" style="stroke:#000000; stroke-linecap:round; stroke-linejoin:round; stroke-width:4; stroke-opacity:1; fill:none" points="250.361,331.467 265.478,331.467 "/>
<g clip-path="url(#clip550)">
<text style="fill:#000000; fill-opacity:1; font-family:Arial,Helvetica Neue,Helvetica,sans-serif; font-size:48px; text-anchor:middle;" transform="rotate(0, 158.527, 1731.11)" x="158.527" y="1731.11">−1.4</text>
</g>
<g clip-path="url(#clip550)">
<text style="fill:#000000; fill-opacity:1; font-family:Arial,Helvetica Neue,Helvetica,sans-serif; font-size:48px; text-anchor:middle;" transform="rotate(0, 158.527, 1454.68)" x="158.527" y="1454.68">−1.2</text>
</g>
<g clip-path="url(#clip550)">
<text style="fill:#000000; fill-opacity:1; font-family:Arial,Helvetica Neue,Helvetica,sans-serif; font-size:48px; text-anchor:middle;" transform="rotate(0, 158.527, 1178.25)" x="158.527" y="1178.25">−1.0</text>
</g>
<g clip-path="url(#clip550)">
<text style="fill:#000000; fill-opacity:1; font-family:Arial,Helvetica Neue,Helvetica,sans-serif; font-size:48px; text-anchor:middle;" transform="rotate(0, 158.527, 901.826)" x="158.527" y="901.826">−0.8</text>
</g>
<g clip-path="url(#clip550)">
<text style="fill:#000000; fill-opacity:1; font-family:Arial,Helvetica Neue,Helvetica,sans-serif; font-size:48px; text-anchor:middle;" transform="rotate(0, 158.527, 625.396)" x="158.527" y="625.396">−0.6</text>
</g>
<g clip-path="url(#clip550)">
<text style="fill:#000000; fill-opacity:1; font-family:Arial,Helvetica Neue,Helvetica,sans-serif; font-size:48px; text-anchor:middle;" transform="rotate(0, 158.527, 348.967)" x="158.527" y="348.967">−0.4</text>
</g>
<g clip-path="url(#clip550)">
<text style="fill:#000000; fill-opacity:1; font-family:Arial,Helvetica Neue,Helvetica,sans-serif; font-size:66px; text-anchor:middle;" transform="rotate(-90, 55.1304, 1010.83)" x="55.1304" y="1010.83">held-out log-likelihood per trial</text>
</g>
<g clip-path="url(#clip550)">
<text style="fill:#000000; fill-opacity:1; font-family:Arial,Helvetica Neue,Helvetica,sans-serif; font-size:84px; text-anchor:middle;" transform="rotate(0, 1331.29, 73.2)" x="1331.29" y="73.2">Cross-validated DDM-HMM fit vs K — session-based animals</text>
</g>
<path clip-path="url(#clip551)" d="M311.545 1828.27 L821.417 1044.94 L1331.29 1007.47 L1841.16 989.668 L2351.03 962.035 L2351.03 810.455 L1841.16 813.463 L1331.29 862.867 L821.417 891.575 L311.545 1356.29  Z" fill="#009af9" fill-rule="evenodd" fill-opacity="0.15"/>
<polyline clip-path="url(#clip551)" style="stroke:#009af9; stroke-linecap:round; stroke-linejoin:round; stroke-width:6; stroke-opacity:1; fill:none" points="311.545,1592.28 821.417,968.255 1331.29,935.17 1841.16,901.566 2351.03,886.245 "/>
<circle clip-path="url(#clip551)" cx="311.545" cy="1592.28" r="10.8" fill="#009af9" fill-rule="evenodd" fill-opacity="1" stroke="#000000" stroke-opacity="1" stroke-width="4.16"/>
<circle clip-path="url(#clip551)" cx="821.417" cy="968.255" r="10.8" fill="#009af9" fill-rule="evenodd" fill-opacity="1" stroke="#000000" stroke-opacity="1" stroke-width="4.16"/>
<circle clip-path="url(#clip551)" cx="1331.29" cy="935.17" r="10.8" fill="#009af9" fill-rule="evenodd" fill-opacity="1" stroke="#000000" stroke-opacity="1" stroke-width="4.16"/>
<circle clip-path="url(#clip551)" cx="1841.16" cy="901.566" r="10.8" fill="#009af9" fill-rule="evenodd" fill-opacity="1" stroke="#000000" stroke-opacity="1" stroke-width="4.16"/>
<circle clip-path="url(#clip551)" cx="2351.03" cy="886.245" r="10.8" fill="#009af9" fill-rule="evenodd" fill-opacity="1" stroke="#000000" stroke-opacity="1" stroke-width="4.16"/>
<path clip-path="url(#clip551)" d="M311.545 1589.32 L821.417 763.955 L1331.29 694.432 L1841.16 645.154 L2351.03 485.693 L2351.03 174.219 L1841.16 526.568 L1331.29 601.541 L821.417 664.365 L311.545 1532.15  Z" fill="#e26f46" fill-rule="evenodd" fill-opacity="0.15"/>
<polyline clip-path="url(#clip551)" style="stroke:#e26f46; stroke-linecap:round; stroke-linejoin:round; stroke-width:6; stroke-opacity:1; fill:none" points="311.545,1560.74 821.417,714.16 1331.29,647.987 1841.16,585.861 2351.03,329.956 "/>
<circle clip-path="url(#clip551)" cx="311.545" cy="1560.74" r="10.8" fill="#e26f46" fill-rule="evenodd" fill-opacity="1" stroke="#000000" stroke-opacity="1" stroke-width="4.16"/>
<circle clip-path="url(#clip551)" cx="821.417" cy="714.16" r="10.8" fill="#e26f46" fill-rule="evenodd" fill-opacity="1" stroke="#000000" stroke-opacity="1" stroke-width="4.16"/>
<circle clip-path="url(#clip551)" cx="1331.29" cy="647.987" r="10.8" fill="#e26f46" fill-rule="evenodd" fill-opacity="1" stroke="#000000" stroke-opacity="1" stroke-width="4.16"/>
<circle clip-path="url(#clip551)" cx="1841.16" cy="585.861" r="10.8" fill="#e26f46" fill-rule="evenodd" fill-opacity="1" stroke="#000000" stroke-opacity="1" stroke-width="4.16"/>
<circle clip-path="url(#clip551)" cx="2351.03" cy="329.956" r="10.8" fill="#e26f46" fill-rule="evenodd" fill-opacity="1" stroke="#000000" stroke-opacity="1" stroke-width="4.16"/>
<path clip-path="url(#clip551)" d="M311.545 860.39 L821.417 706.905 L1331.29 646.716 L1841.16 590.708 L2351.03 608.833 L2351.03 498.797 L1841.16 505.897 L1331.29 549.057 L821.417 595.149 L311.545 755.369  Z" fill="#3da44d" fill-rule="evenodd" fill-opacity="0.15"/>
<polyline clip-path="url(#clip551)" style="stroke:#3da44d; stroke-linecap:round; stroke-linejoin:round; stroke-width:6; stroke-opacity:1; fill:none" points="311.545,807.88 821.417,651.027 1331.29,597.886 1841.16,548.302 2351.03,553.815 "/>
<circle clip-path="url(#clip551)" cx="311.545" cy="807.88" r="10.8" fill="#3da44d" fill-rule="evenodd" fill-opacity="1" stroke="#000000" stroke-opacity="1" stroke-width="4.16"/>
<circle clip-path="url(#clip551)" cx="821.417" cy="651.027" r="10.8" fill="#3da44d" fill-rule="evenodd" fill-opacity="1" stroke="#000000" stroke-opacity="1" stroke-width="4.16"/>
<circle clip-path="url(#clip551)" cx="1331.29" cy="597.886" r="10.8" fill="#3da44d" fill-rule="evenodd" fill-opacity="1" stroke="#000000" stroke-opacity="1" stroke-width="4.16"/>
<circle clip-path="url(#clip551)" cx="1841.16" cy="548.302" r="10.8" fill="#3da44d" fill-rule="evenodd" fill-opacity="1" stroke="#000000" stroke-opacity="1" stroke-width="4.16"/>
<circle clip-path="url(#clip551)" cx="2351.03" cy="553.815" r="10.8" fill="#3da44d" fill-rule="evenodd" fill-opacity="1" stroke="#000000" stroke-opacity="1" stroke-width="4.16"/>
<path clip-path="url(#clip551)" d="M311.545 863.874 L821.417 670.931 L1331.29 542.75 L1841.16 465.621 L2351.03 465.533 L2351.03 362.696 L1841.16 360.196 L1331.29 403.292 L821.417 454.459 L311.545 655.275  Z" fill="#c271d2" fill-rule="evenodd" fill-opacity="0.15"/>
<polyline clip-path="url(#clip551)" style="stroke:#c271d2; stroke-linecap:round; stroke-linejoin:round; stroke-width:6; stroke-opacity:1; fill:none" points="311.545,759.574 821.417,562.695 1331.29,473.021 1841.16,412.908 2351.03,414.115 "/>
<circle clip-path="url(#clip551)" cx="311.545" cy="759.574" r="10.8" fill="#c271d2" fill-rule="evenodd" fill-opacity="1" stroke="#000000" stroke-opacity="1" stroke-width="4.16"/>
<circle clip-path="url(#clip551)" cx="821.417" cy="562.695" r="10.8" fill="#c271d2" fill-rule="evenodd" fill-opacity="1" stroke="#000000" stroke-opacity="1" stroke-width="4.16"/>
<circle clip-path="url(#clip551)" cx="1331.29" cy="473.021" r="10.8" fill="#c271d2" fill-rule="evenodd" fill-opacity="1" stroke="#000000" stroke-opacity="1" stroke-width="4.16"/>
<circle clip-path="url(#clip551)" cx="1841.16" cy="412.908" r="10.8" fill="#c271d2" fill-rule="evenodd" fill-opacity="1" stroke="#000000" stroke-opacity="1" stroke-width="4.16"/>
<circle clip-path="url(#clip551)" cx="2351.03" cy="414.115" r="10.8" fill="#c271d2" fill-rule="evenodd" fill-opacity="1" stroke="#000000" stroke-opacity="1" stroke-width="4.16"/>
<path clip-path="url(#clip551)" d="M311.545 1847.44 L821.417 1087.05 L1331.29 987.926 L1841.16 933.746 L2351.03 903.174 L2351.03 815.722 L1841.16 852.136 L1331.29 914.08 L821.417 1023.02 L311.545 1684.95  Z" fill="#ac8d18" fill-rule="evenodd" fill-opacity="0.15"/>
<polyline clip-path="url(#clip551)" style="stroke:#ac8d18; stroke-linecap:round; stroke-linejoin:round; stroke-width:6; stroke-opacity:1; fill:none" points="311.545,1766.2 821.417,1055.04 1331.29,951.003 1841.16,892.941 2351.03,859.448 "/>
<circle clip-path="url(#clip551)" cx="311.545" cy="1766.2" r="10.8" fill="#ac8d18" fill-rule="evenodd" fill-opacity="1" stroke="#000000" stroke-opacity="1" stroke-width="4.16"/>
<circle clip-path="url(#clip551)" cx="821.417" cy="1055.04" r="10.8" fill="#ac8d18" fill-rule="evenodd" fill-opacity="1" stroke="#000000" stroke-opacity="1" stroke-width="4.16"/>
<circle clip-path="url(#clip551)" cx="1331.29" cy="951.003" r="10.8" fill="#ac8d18" fill-rule="evenodd" fill-opacity="1" stroke="#000000" stroke-opacity="1" stroke-width="4.16"/>
<circle clip-path="url(#clip551)" cx="1841.16" cy="892.941" r="10.8" fill="#ac8d18" fill-rule="evenodd" fill-opacity="1" stroke="#000000" stroke-opacity="1" stroke-width="4.16"/>
<circle clip-path="url(#clip551)" cx="2351.03" cy="859.448" r="10.8" fill="#ac8d18" fill-rule="evenodd" fill-opacity="1" stroke="#000000" stroke-opacity="1" stroke-width="4.16"/>
<path clip-path="url(#clip550)" d="M2502.3 1179.98 L2952.76 1179.98 L2952.76 915.905 L2502.3 915.905  Z" fill="#ffffff" fill-rule="evenodd" fill-opacity="1"/>
<polyline clip-path="url(#clip550)" style="stroke:#000000; stroke-linecap:round; stroke-linejoin:round; stroke-width:4; stroke-opacity:1; fill:none" points="2502.3,1179.98 2952.76,1179.98 2952.76,915.905 2502.3,915.905 2502.3,1179.98 "/>
<polyline clip-path="url(#clip550)" style="stroke:#009af9; stroke-linecap:round; stroke-linejoin:round; stroke-width:5.25; stroke-opacity:1; fill:none" points="2532.32,959.917 2712.48,959.917 "/>
<circle clip-path="url(#clip550)" cx="2622.4" cy="959.917" r="17.28" fill="#009af9" fill-rule="evenodd" fill-opacity="1" stroke="#000000" stroke-opacity="1" stroke-width="6.656"/>
<g clip-path="url(#clip550)">
<text style="fill:#000000; fill-opacity:1; font-family:Arial,Helvetica Neue,Helvetica,sans-serif; font-size:41px; text-anchor:start;" transform="rotate(0, 2742.51, 974.917)" x="2742.51" y="974.917">Rhubarb</text>
</g>
<polyline clip-path="url(#clip550)" style="stroke:#e26f46; stroke-linecap:round; stroke-linejoin:round; stroke-width:5.25; stroke-opacity:1; fill:none" points="2532.32,1003.93 2712.48,1003.93 "/>
<circle clip-path="url(#clip550)" cx="2622.4" cy="1003.93" r="17.28" fill="#e26f46" fill-rule="evenodd" fill-opacity="1" stroke="#000000" stroke-opacity="1" stroke-width="6.656"/>
<g clip-path="url(#clip550)">
<text style="fill:#000000; fill-opacity:1; font-family:Arial,Helvetica Neue,Helvetica,sans-serif; font-size:41px; text-anchor:start;" transform="rotate(0, 2742.51, 1018.93)" x="2742.51" y="1018.93">Daenerys</text>
</g>
<polyline clip-path="url(#clip550)" style="stroke:#3da44d; stroke-linecap:round; stroke-linejoin:round; stroke-width:5.25; stroke-opacity:1; fill:none" points="2532.32,1047.94 2712.48,1047.94 "/>
<circle clip-path="url(#clip550)" cx="2622.4" cy="1047.94" r="17.28" fill="#3da44d" fill-rule="evenodd" fill-opacity="1" stroke="#000000" stroke-opacity="1" stroke-width="6.656"/>
<g clip-path="url(#clip550)">
<text style="fill:#000000; fill-opacity:1; font-family:Arial,Helvetica Neue,Helvetica,sans-serif; font-size:41px; text-anchor:start;" transform="rotate(0, 2742.51, 1062.94)" x="2742.51" y="1062.94">Dory</text>
</g>
<polyline clip-path="url(#clip550)" style="stroke:#c271d2; stroke-linecap:round; stroke-linejoin:round; stroke-width:5.25; stroke-opacity:1; fill:none" points="2532.32,1091.95 2712.48,1091.95 "/>
<circle clip-path="url(#clip550)" cx="2622.4" cy="1091.95" r="17.28" fill="#c271d2" fill-rule="evenodd" fill-opacity="1" stroke="#000000" stroke-opacity="1" stroke-width="6.656"/>
<g clip-path="url(#clip550)">
<text style="fill:#000000; fill-opacity:1; font-family:Arial,Helvetica Neue,Helvetica,sans-serif; font-size:41px; text-anchor:start;" transform="rotate(0, 2742.51, 1106.95)" x="2742.51" y="1106.95">Dobby</text>
</g>
<polyline clip-path="url(#clip550)" style="stroke:#ac8d18; stroke-linecap:round; stroke-linejoin:round; stroke-width:5.25; stroke-opacity:1; fill:none" points="2532.32,1135.97 2712.48,1135.97 "/>
<circle clip-path="url(#clip550)" cx="2622.4" cy="1135.97" r="17.28" fill="#ac8d18" fill-rule="evenodd" fill-opacity="1" stroke="#000000" stroke-opacity="1" stroke-width="6.656"/>
<g clip-path="url(#clip550)">
<text style="fill:#000000; fill-opacity:1; font-family:Arial,Helvetica Neue,Helvetica,sans-serif; font-size:41px; text-anchor:start;" transform="rotate(0, 2742.51, 1150.97)" x="2742.51" y="1150.97">Regina</text>
</g>
</svg>
