<?xml version="1.0" encoding="utf-8"?>
<svg xmlns="http://www.w3.org/2000/svg" xmlns:xlink="http://www.w3.org/1999/xlink" width="700" height="650" viewBox="0 0 2800 2600">
<defs>
  <clipPath id="clip080">
    <rect x="0" y="0" width="2800" height="2600"/>
  </clipPath>
</defs>
<path clip-path="url(#clip080)" d="M0 2600 L2800 2600 L2800 0 L0 0  Z" fill="#ffffff" fill-rule="evenodd" fill-opacity="1"/>
<defs>
  <clipPath id="clip081">
    <rect x="560" y="80" width="1961" height="1961"/>
  </clipPath>
</defs>
<path clip-path="url(#clip080)" d="M264.63 2384.33 L2752.76 2384.33 L2752.76 144.729 L264.63 144.729  Z" fill="#ffffff" fill-rule="evenodd" fill-opacity="1"/>
<defs>
  <clipPath id="clip082">
    <rect x="264" y="144" width="2489" height="2241"/>
  </clipPath>
</defs>
<polyline clip-path="url(#clip082)" style="stroke:#000000; stroke-linecap:round; stroke-linejoin:round; stroke-width:2; stroke-opacity:0.1; fill:none" points="335.049,2384.33 335.049,144.729 "/>
<polyline clip-path="url(#clip082)" style="stroke:#000000; stroke-linecap:round; stroke-linejoin:round; stroke-width:2; stroke-opacity:0.1; fill:none" points="473.125,2384.33 473.125,144.729 "/>
<polyline clip-path="url(#clip082)" style="stroke:#000000; stroke-linecap:round; stroke-linejoin:round; stroke-width:2; stroke-opacity:0.1; fill:none" points="611.201,2384.33 611.201,144.729 "/>
<polyline clip-path="url(#clip082)" style="stroke:#000000; stroke-linecap:round; stroke-linejoin:round; stroke-width:2; stroke-opacity:0.1; fill:none" points="749.276,2384.33 749.276,144.729 "/>
<polyline clip-path="url(#clip082)" style="stroke:#000000; stroke-linecap:round; stroke-linejoin:round; stroke-width:2; stroke-opacity:0.1; fill:none" points="887.352,2384.33 887.352,144.729 "/>
<polyline clip-path="url(#clip082)" style="stroke:#000000; stroke-linecap:round; stroke-linejoin:round; stroke-width:2; stroke-opacity:0.1; fill:none" points="1025.43,2384.33 1025.43,144.729 "/>
<polyline clip-path="url(#clip082)" style="stroke:#000000; stroke-linecap:round; stroke-linejoin:round; stroke-width:2; stroke-opacity:0.1; fill:none" points="1163.5,2384.33 1163.5,144.729 "/>
<polyline clip-path="url(#clip082)" style="stroke:#000000; stroke-linecap:round; stroke-linejoin:round; stroke-width:2; stroke-opacity:0.1; fill:none" points="1301.58,2384.33 1301.58,144.729 "/>
<polyline clip-path="url(#clip082)" style="stroke:#000000; stroke-linecap:round; stroke-linejoin:round; stroke-width:2; stroke-opacity:0.1; fill:none" points="1439.66,2384.33 1439.66,144.729 "/>
<polyline clip-path="url(#clip082)" style="stroke:#000000; stroke-linecap:round; stroke-linejoin:round; stroke-width:2; stroke-opacity:0.1; fill:none" points="1577.73,2384.33 1577.73,144.729 "/>
<polyline clip-path="url(#clip082)" style="stroke:#000000; stroke-linecap:round; stroke-linejoin:round; stroke-width:2; stroke-opacity:0.1; fill:none" points="1715.81,2384.33 1715.81,144.729 "/>
<polyline clip-path="url(#clip082)" style="stroke:#000000; stroke-linecap:round; stroke-linejoin:round; stroke-width:2; stroke-opacity:0.1; fill:none" points="1853.88,2384.33 1853.88,144.729 "/>
<polyline clip-path="url(#clip082)" style="stroke:#000000; stroke-linecap:round; stroke-linejoin:round; stroke-width:2; stroke-opacity:0.1; fill:none" points="1991.96,2384.33 1991.96,144.729 "/>
<polyline clip-path="url(#clip082)" style="stroke:#000000; stroke-linecap:round; stroke-linejoin:round; stroke-width:2; stroke-opacity:0.1; fill:none" points="2130.03,2384.33 2130.03,144.729 "/>
<polyline clip-path="url(#clip082)" style="stroke:#000000; stroke-linecap:round; stroke-linejoin:round; stroke-width:2; stroke-opacity:0.1; fill:none" points="2268.11,2384.33 2268.11,144.729 "/>
<polyline clip-path="url(#clip082)" style="stroke:#000000; stroke-linecap:round; stroke-linejoin:round; stroke-width:2; stroke-opacity:0.1; fill:none" points="2406.19,2384.33 2406.19,144.729 "/>
<polyline clip-path="url(#clip082)" style="stroke:#000000; stroke-linecap:round; stroke-linejoin:round; stroke-width:2; stroke-opacity:0.1; fill:none" points="2544.26,2384.33 2544.26,144.729 "/>
<polyline clip-path="url(#clip082)" style="stroke:#000000; stroke-linecap:round; stroke-linejoin:round; stroke-width:2; stroke-opacity:0.1; fill:none" points="2682.34,2384.33 2682.34,144.729 "/>
<polyline clip-path="url(#clip082)" style="stroke:#000000; stroke-linecap:round; stroke-linejoin:round; stroke-width:2; stroke-opacity:0.1; fill:none" points="335.049,2384.33 335.049,144.729 "/>
<polyline clip-path="url(#clip082)" style="stroke:#000000; stroke-linecap:round; stroke-linejoin:round; stroke-width:2; stroke-opacity:0.1; fill:none" points="473.125,2384.33 473.125,144.729 "/>
<polyline clip-path="url(#clip082)" style="stroke:#000000; stroke-linecap:round; stroke-linejoin:round; stroke-width:2; stroke-opacity:0.1; fill:none" points="611.201,2384.33 611.201,144.729 "/>
<polyline clip-path="url(#clip082)" style="stroke:#000000; stroke-linecap:round; stroke-linejoin:round; stroke-width:2; stroke-opacity:0.1; fill:none" points="749.276,2384.33 749.276,144.729 "/>
<polyline clip-path="url(#clip082)" style="stroke:#000000; stroke-linecap:round; stroke-linejoin:round; stroke-width:2; stroke-opacity:0.1; fill:none" points="887.352,2384.33 887.352,144.729 "/>
<polyline clip-path="url(#clip082)" style="stroke:#000000; stroke-linecap:round; stroke-linejoin:round; stroke-width:2; stroke-opacity:0.1; fill:none" points="1025.43,2384.33 1025.43,144.729 "/>
<polyline clip-path="url(#clip082)" style="stroke:#000000; stroke-linecap:round; stroke-linejoin:round; stroke-width:2; stroke-opacity:0.1; fill:none" points="1163.5,2384.33 1163.5,144.729 "/>
<polyline clip-path="url(#clip082)" style="stroke:#000000; stroke-linecap:round; stroke-linejoin:round; stroke-width:2; stroke-opacity:0.1; fill:none" points="1301.58,2384.33 1301.58,144.729 "/>
<polyline clip-path="url(#clip082)" style="stroke:#000000; stroke-linecap:round; stroke-linejoin:round; stroke-width:2; stroke-opacity:0.1; fill:none" points="1439.66,2384.33 1439.66,144.729 "/>
<polyline clip-path="url(#clip082)" style="stroke:#000000; stroke-linecap:round; stroke-linejoin:round; stroke-width:2; stroke-opacity:0.1; fill:none" points="1577.73,2384.33 1577.73,144.729 "/>
<polyline clip-path="url(#clip082)" style="stroke:#000000; stroke-linecap:round; stroke-linejoin:round; stroke-width:2; stroke-opacity:0.1; fill:none" points="1715.81,2384.33 1715.81,144.729 "/>
<polyline clip-path="url(#clip082)" style="stroke:#000000; stroke-linecap:round; stroke-linejoin:round; stroke-width:2; stroke-opacity:0.1; fill:none" points="1853.88,2384.33 1853.88,144.729 "/>
<polyline clip-path="url(#clip082)" style="stroke:#000000; stroke-linecap:round; stroke-linejoin:round; stroke-width:2; stroke-opacity:0.1; fill:none" points="1991.96,2384.33 1991.96,144.729 "/>
<polyline clip-path="url(#clip082)" style="stroke:#000000; stroke-linecap:round; stroke-linejoin:round; stroke-width:2; stroke-opacity:0.1; fill:none" points="2130.03,2384.33 2130.03,144.729 "/>
<polyline clip-path="url(#clip082)" style="stroke:#000000; stroke-linecap:round; stroke-linejoin:round; stroke-width:2; stroke-opacity:0.1; fill:none" points="2268.11,2384.33 2268.11,144.729 "/>
<polyline clip-path="url(#clip082)" style="stroke:#000000; stroke-linecap:round; stroke-linejoin:round; stroke-width:2; stroke-opacity:0.1; fill:none" points="2406.19,2384.33 2406.19,144.729 "/>
<polyline clip-path="url(#clip082)" style="stroke:#000000; stroke-linecap:round; stroke-linejoin:round; stroke-width:2; stroke-opacity:0.1; fill:none" points="2544.26,2384.33 2544.26,144.729 "/>
<polyline clip-path="url(#clip082)" style="stroke:#000000; stroke-linecap:round; stroke-linejoin:round; stroke-width:2; stroke-opacity:0.1; fill:none" points="2682.34,2384.33 2682.34,144.729 "/>
<polyline clip-path="url(#clip082)" style="stroke:#000000; stroke-linecap:round; stroke-linejoin:round; stroke-width:2; stroke-opacity:0.1; fill:none" points="264.63,2120.16 2752.76,2120.16 "/>
<polyline clip-path="url(#clip082)" style="stroke:#000000; stroke-linecap:round; stroke-linejoin:round; stroke-width:2; stroke-opacity:0.1; fill:none" points="264.63,1711.46 2752.76,1711.46 "/>
<polyline clip-path="url(#clip082)" style="stroke:#000000; stroke-linecap:round; stroke-linejoin:round; stroke-width:2; stroke-opacity:0.1; fill:none" points="264.63,1302.76 2752.76,1302.76 "/>
<polyline clip-path="url(#clip082)" style="stroke:#000000; stroke-linecap:round; stroke-linejoin:round; stroke-width:2; stroke-opacity:0.1; fill:none" points="264.63,894.057 2752.76,894.057 "/>
<polyline clip-path="url(#clip082)" style="stroke:#000000; stroke-linecap:round; stroke-linejoin:round; stroke-width:2; stroke-opacity:0.1; fill:none" points="264.63,485.355 2752.76,485.355 "/>
<polyline clip-path="url(#clip082)" style="stroke:#000000; stroke-linecap:round; stroke-linejoin:round; stroke-width:2; stroke-opacity:0.1; fill:none" points="264.63,2120.16 2752.76,2120.16 "/>
<polyline clip-path="url(#clip082)" style="stroke:#000000; stroke-linecap:round; stroke-linejoin:round; stroke-width:2; stroke-opacity:0.1; fill:none" points="264.63,1711.46 2752.76,1711.46 "/>
<polyline clip-path="url(#clip082)" style="stroke:#000000; stroke-linecap:round; stroke-linejoin:round; stroke-width:2; stroke-opacity:0.1; fill:none" points="264.63,1302.76 2752.76,1302.76 "/>
<polyline clip-path="url(#clip082)" style="stroke:#000000; stroke-linecap:round; stroke-linejoin:round; stroke-width:2; stroke-opacity:0.1; fill:none" points="264.63,894.057 2752.76,894.057 "/>
<polyline clip-path="url(#clip082)" style="stroke:#000000; stroke-linecap:round; stroke-linejoin:round; stroke-width:2; stroke-opacity:0.1; fill:none" points="264.63,485.355 2752.76,485.355 "/>
<polyline clip-path="url(#clip080)" style="stroke:#000000; stroke-linecap:round; stroke-linejoin:round; stroke-width:4; stroke-opacity:1; fill:none" points="264.63,2384.33 2752.76,2384.33 "/>
<polyline clip-path="url(#clip080)" style="stroke:#000000; stroke-linecap:round; stroke-linejoin:round; stroke-width:4; stroke-opacity:1; fill:none" points="264.63,144.729 2752.76,144.729 "/>
<polyline clip-path="url(#clip080)" style="stroke:#000000; stroke-linecap:round; stroke-linejoin:round; stroke-width:4; stroke-opacity:1; fill:none" points="335.049,2384.33 335.049,2365.43 "/>
<polyline clip-path="url(#clip080)" style="stroke:#000000; stroke-linecap:round; stroke-linejoin:round; stroke-width:4; stroke-opacity:1; fill:none" points="473.125,2384.33 473.125,2365.43 "/>
<polyline clip-path="url(#clip080)" style="stroke:#000000; stroke-linecap:round; stroke-linejoin:round; stroke-width:4; stroke-opacity:1; fill:none" points="611.201,2384.33 611.201,2365.43 "/>
<polyline clip-path="url(#clip080)" style="stroke:#000000; stroke-linecap:round; stroke-linejoin:round; stroke-width:4; stroke-opacity:1; fill:none" points="749.276,2384.33 749.276,2365.43 "/>
<polyline clip-path="url(#clip080)" style="stroke:#000000; stroke-linecap:round; stroke-linejoin:round; stroke-width:4; stroke-opacity:1; fill:none" points="887.352,2384.33 887.352,2365.43 "/>
<polyline clip-path="url(#clip080)" style="stroke:#000000; stroke-linecap:round; stroke-linejoin:round; stroke-width:4; stroke-opacity:1; fill:none" points="1025.43,2384.33 1025.43,2365.43 "/>
<polyline clip-path="url(#clip080)" style="stroke:#000000; stroke-linecap:round; stroke-linejoin:round; stroke-width:4; stroke-opacity:1; fill:none" points="1163.5,2384.33 1163.5,2365.43 "/>
<polyline clip-path="url(#clip080)" style="stroke:#000000; stroke-linecap:round; stroke-linejoin:round; stroke-width:4; stroke-opacity:1; fill:none" points="1301.58,2384.33 1301.58,2365.43 "/>
<polyline clip-path="url(#clip080)" style="stroke:#000000; stroke-linecap:round; stroke-linejoin:round; stroke-width:4; stroke-opacity:1; fill:none" points="1439.66,2384.33 1439.66,2365.43 "/>
<polyline clip-path="url(#clip080)" style="stroke:#000000; stroke-linecap:round; stroke-linejoin:round; stroke-width:4; stroke-opacity:1; fill:none" points="1577.73,2384.33 1577.73,2365.43 "/>
<polyline clip-path="url(#clip080)" style="stroke:#000000; stroke-linecap:round; stroke-linejoin:round; stroke-width:4; stroke-opacity:1; fill:none" points="1715.81,2384.33 1715.81,2365.43 "/>
<polyline clip-path="url(#clip080)" style="stroke:#000000; stroke-linecap:round; stroke-linejoin:round; stroke-width:4; stroke-opacity:1; fill:none" points="1853.88,2384.33 1853.88,2365.43 "/>
<polyline clip-path="url(#clip080)" style="stroke:#000000; stroke-linecap:round; stroke-linejoin:round; stroke-width:4; stroke-opacity:1; fill:none" points="1991.96,2384.33 1991.96,2365.43 "/>
<polyline clip-path="url(#clip080)" style="stroke:#000000; stroke-linecap:round; stroke-linejoin:round; stroke-width:4; stroke-opacity:1; fill:none" points="2130.03,2384.33 2130.03,2365.43 "/>
<polyline clip-path="url(#clip080)" style="stroke:#000000; stroke-linecap:round; stroke-linejoin:round; stroke-width:4; stroke-opacity:1; fill:none" points="2268.11,2384.33 2268.11,2365.43 "/>
<polyline clip-path="url(#clip080)" style="stroke:#000000; stroke-linecap:round; stroke-linejoin:round; stroke-width:4; stroke-opacity:1; fill:none" points="2406.19,2384.33 2406.19,2365.43 "/>
<polyline clip-path="url(#clip080)" style="stroke:#000000; stroke-linecap:round; stroke-linejoin:round; stroke-width:4; stroke-opacity:1; fill:none" points="2544.26,2384.33 2544.26,2365.43 "/>
<polyline clip-path="url(#clip080)" style="stroke:#000000; stroke-linecap:round; stroke-linejoin:round; stroke-width:4; stroke-opacity:1; fill:none" points="2682.34,2384.33 2682.34,2365.43 "/>
<polyline clip-path="url(#clip080)" style="stroke:#000000; stroke-linecap:round; stroke-linejoin:round; stroke-width:4; stroke-opacity:1; fill:none" points="335.049,144.729 335.049,163.627 "/>
<polyline clip-path="url(#clip080)" style="stroke:#000000; stroke-linecap:round; stroke-linejoin:round; stroke-width:4; stroke-opacity:1; fill:none" points="473.125,144.729 473.125,163.627 "/>
<polyline clip-path="url(#clip080)" style="stroke:#000000; stroke-linecap:round; stroke-linejoin:round; stroke-width:4; stroke-opacity:1; fill:none" points="611.201,144.729 611.201,163.627 "/>
<polyline clip-path="url(#clip080)" style="stroke:#000000; stroke-linecap:round; stroke-linejoin:round; stroke-width:4; stroke-opacity:1; fill:none" points="749.276,144.729 749.276,163.627 "/>
<polyline clip-path="url(#clip080)" style="stroke:#000000; stroke-linecap:round; stroke-linejoin:round; stroke-width:4; stroke-opacity:1; fill:none" points="887.352,144.729 887.352,163.627 "/>
<polyline clip-path="url(#clip080)" style="stroke:#000000; stroke-linecap:round; stroke-linejoin:round; stroke-width:4; stroke-opacity:1; fill:none" points="1025.43,144.729 1025.43,163.627 "/>
<polyline clip-path="url(#clip080)" style="stroke:#000000; stroke-linecap:round; stroke-linejoin:round; stroke-width:4; stroke-opacity:1; fill:none" points="1163.5,144.729 1163.5,163.627 "/>
<polyline clip-path="url(#clip080)" style="stroke:#000000; stroke-linecap:round; stroke-linejoin:round; stroke-width:4; stroke-opacity:1; fill:none" points="1301.58,144.729 1301.58,163.627 "/>
<polyline clip-path="url(#clip080)" style="stroke:#000000; stroke-linecap:round; stroke-linejoin:round; stroke-width:4; stroke-opacity:1; fill:none" points="1439.66,144.729 1439.66,163.627 "/>
<polyline clip-path="url(#clip080)" style="stroke:#000000; stroke-linecap:round; stroke-linejoin:round; stroke-width:4; stroke-opacity:1; fill:none" points="1577.73,144.729 1577.73,163.627 "/>
<polyline clip-path="url(#clip080)" style="stroke:#000000; stroke-linecap:round; stroke-linejoin:round; stroke-width:4; stroke-opacity:1; fill:none" points="1715.81,144.729 1715.81,163.627 "/>
<polyline clip-path="url(#clip080)" style="stroke:#000000; stroke-linecap:round; stroke-linejoin:round; stroke-width:4; stroke-opacity:1; fill:none" points="1853.88,144.729 1853.88,163.627 "/>
<polyline clip-path="url(#clip080)" style="stroke:#000000; stroke-linecap:round; stroke-linejoin:round; stroke-width:4; stroke-opacity:1; fill:none" points="1991.96,144.729 1991.96,163.627 "/>
<polyline clip-path="url(#clip080)" style="stroke:#000000; stroke-linecap:round; stroke-linejoin:round; stroke-width:4; stroke-opacity:1; fill:none" points="2130.03,144.729 2130.03,163.627 "/>
<polyline clip-path="url(#clip080)" style="stroke:#000000; stroke-linecap:round; stroke-linejoin:round; stroke-width:4; stroke-opacity:1; fill:none" points="2268.11,144.729 2268.11,163.627 "/>
<polyline clip-path="url(#clip080)" style="stroke:#000000; stroke-linecap:round; stroke-linejoin:round; stroke-width:4; stroke-opacity:1; fill:none" points="2406.19,144.729 2406.19,163.627 "/>
<polyline clip-path="url(#clip080)" style="stroke:#000000; stroke-linecap:round; stroke-linejoin:round; stroke-width:4; stroke-opacity:1; fill:none" points="2544.26,144.729 2544.26,163.627 "/>
<polyline clip-path="url(#clip080)" style="stroke:#000000; stroke-linecap:round; stroke-linejoin:round; stroke-width:4; stroke-opacity:1; fill:none" points="2682.34,144.729 2682.34,163.627 "/>
<g clip-path="url(#clip080)">
<text style="fill:#000000; fill-opacity:1; font-family:Arial,Helvetica Neue,Helvetica,sans-serif; font-size:48px; text-anchor:middle;" transform="rotate(0, 335.049, 2449.38)" x="335.049" y="2449.38">1072</text>
</g>
<g clip-path="url(#clip080)">
<text style="fill:#000000; fill-opacity:1; font-family:Arial,Helvetica Neue,Helvetica,sans-serif; font-size:48px; text-anchor:middle;" transform="rotate(0, 473.125, 2449.38)" x="473.125" y="2449.38">Denna</text>
</g>
<g clip-path="url(#clip080)">
<text style="fill:#000000; fill-opacity:1; font-family:Arial,Helvetica Neue,Helvetica,sans-serif; font-size:48px; text-anchor:middle;" transform="rotate(0, 611.201, 2449.38)" x="611.201" y="2449.38">Rhea</text>
</g>
<g clip-path="url(#clip080)">
<text style="fill:#000000; fill-opacity:1; font-family:Arial,Helvetica Neue,Helvetica,sans-serif; font-size:48px; text-anchor:middle;" transform="rotate(0, 749.276, 2449.38)" x="749.276" y="2449.38">1060</text>
</g>
<g clip-path="url(#clip080)">
<text style="fill:#000000; fill-opacity:1; font-family:Arial,Helvetica Neue,Helvetica,sans-serif; font-size:48px; text-anchor:middle;" transform="rotate(0, 887.352, 2449.38)" x="887.352" y="2449.38">Rudy</text>
</g>
<g clip-path="url(#clip080)">
<text style="fill:#000000; fill-opacity:1; font-family:Arial,Helvetica Neue,Helvetica,sans-serif; font-size:48px; text-anchor:middle;" transform="rotate(0, 1025.43, 2449.38)" x="1025.43" y="2449.38">Remy</text>
</g>
<g clip-path="url(#clip080)">
<text style="fill:#000000; fill-opacity:1; font-family:Arial,Helvetica Neue,Helvetica,sans-serif; font-size:48px; text-anchor:middle;" transform="rotate(0, 1163.5, 2449.38)" x="1163.5" y="2449.38">Dopey</text>
</g>
<g clip-path="url(#clip080)">
<text style="fill:#000000; fill-opacity:1; font-family:Arial,Helvetica Neue,Helvetica,sans-serif; font-size:48px; text-anchor:middle;" transform="rotate(0, 1301.58, 2449.38)" x="1301.58" y="2449.38">1062</text>
</g>
<g clip-path="url(#clip080)">
<text style="fill:#000000; fill-opacity:1; font-family:Arial,Helvetica Neue,Helvetica,sans-serif; font-size:48px; text-anchor:middle;" transform="rotate(0, 1439.66, 2449.38)" x="1439.66" y="2449.38">Ron</text>
</g>
<g clip-path="url(#clip080)">
<text style="fill:#000000; fill-opacity:1; font-family:Arial,Helvetica Neue,Helvetica,sans-serif; font-size:48px; text-anchor:middle;" transform="rotate(0, 1577.73, 2449.38)" x="1577.73" y="2449.38">1054</text>
</g>
<g clip-path="url(#clip080)">
<text style="fill:#000000; fill-opacity:1; font-family:Arial,Helvetica Neue,Helvetica,sans-serif; font-size:48px; text-anchor:middle;" transform="rotate(0, 1715.81, 2449.38)" x="1715.81" y="2449.38">1029</text>
</g>
<g clip-path="url(#clip080)">
<text style="fill:#000000; fill-opacity:1; font-family:Arial,Helvetica Neue,Helvetica,sans-serif; font-size:48px; text-anchor:middle;" transform="rotate(0, 1853.88, 2449.38)" x="1853.88" y="2449.38">Robert</text>
</g>
<g clip-path="url(#clip080)">
<text style="fill:#000000; fill-opacity:1; font-family:Arial,Helvetica Neue,Helvetica,sans-serif; font-size:48px; text-anchor:middle;" transform="rotate(0, 1991.96, 2449.38)" x="1991.96" y="2449.38">1064</text>
</g>
<g clip-path="url(#clip080)">
<text style="fill:#000000; fill-opacity:1; font-family:Arial,Helvetica Neue,Helvetica,sans-serif; font-size:48px; text-anchor:middle;" transform="rotate(0, 2130.03, 2449.38)" x="2130.03" y="2449.38">Randy</text>
</g>
<g clip-path="url(#clip080)">
<text style="fill:#000000; fill-opacity:1; font-family:Arial,Helvetica Neue,Helvetica,sans-serif; font-size:48px; text-anchor:middle;" transform="rotate(0, 2268.11, 2449.38)" x="2268.11" y="2449.38">Draco</text>
</g>
<g clip-path="url(#clip080)">
<text style="fill:#000000; fill-opacity:1; font-family:Arial,Helvetica Neue,Helvetica,sans-serif; font-size:48px; text-anchor:middle;" transform="rotate(0, 2406.19, 2449.38)" x="2406.19" y="2449.38">1052</text>
</g>
<g clip-path="url(#clip080)">
<text style="fill:#000000; fill-opacity:1; font-family:Arial,Helvetica Neue,Helvetica,sans-serif; font-size:48px; text-anchor:middle;" transform="rotate(0, 2544.26, 2449.38)" x="2544.26" y="2449.38">1059</text>
</g>
<g clip-path="url(#clip080)">
<text style="fill:#000000; fill-opacity:1; font-family:Arial,Helvetica Neue,Helvetica,sans-serif; font-size:48px; text-anchor:middle;" transform="rotate(0, 2682.34, 2449.38)" x="2682.34" y="2449.38">1065</text>
</g>
<g clip-path="url(#clip080)">
<text style="fill:#000000; fill-opacity:1; font-family:Arial,Helvetica Neue,Helvetica,sans-serif; font-size:66px; text-anchor:middle;" transform="rotate(0, 1508.69, 2536.19)" x="1508.69" y="2536.19">Animals (sorted)</text>
</g>
<polyline clip-path="url(#clip080)" style="stroke:#000000; stroke-linecap:round; stroke-linejoin:round; stroke-width:4; stroke-opacity:1; fill:none" points="264.63,2384.33 264.63,144.729 "/>
<polyline clip-path="url(#clip080)" style="stroke:#000000; stroke-linecap:round; stroke-linejoin:round; stroke-width:4; stroke-opacity:1; fill:none" points="2752.76,2384.33 2752.76,144.729 "/>
<polyline clip-path="url(#clip080)" style="stroke:#000000; stroke-linecap:round; stroke-linejoin:round; stroke-width:4; stroke-opacity:1; fill:none" points="264.63,2120.16 283.528,2120.16 "/>
<polyline clip-path="url(#clip080)" style="stroke:#000000; stroke-linecap:round; stroke-linejoin:round; stroke-width:4; stroke-opacity:1; fill:none" points="264.63,1711.46 283.528,1711.46 "/>
<polyline clip-path="url(#clip080)" style="stroke:#000000; stroke-linecap:round; stroke-linejoin:round; stroke-width:4; stroke-opacity:1; fill:none" points="264.63,1302.76 283.528,1302.76 "/>
<polyline clip-path="url(#clip080)" style="stroke:#000000; stroke-linecap:round; stroke-linejoin:round; stroke-width:4; stroke-opacity:1; fill:none" points="264.63,894.057 283.528,894.057 "/>
<polyline clip-path="url(#clip080)" style="stroke:#000000; stroke-linecap:round; stroke-linejoin:round; stroke-width:4; stroke-opacity:1; fill:none" points="264.63,485.355 283.528,485.355 "/>
<polyline clip-path="url(#clip080)" style="stroke:#000000; stroke-linecap:round; stroke-linejoin:round; stroke-width:4; stroke-opacity:1; fill:none" points="2752.76,2120.16 2733.86,2120.16 "/>
<polyline clip-path="url(#clip080)" style="stroke:#000000; stroke-linecap:round; stroke-linejoin:round; stroke-width:4; stroke-opacity:1; fill:none" points="2752.76,1711.46 2733.86,1711.46 "/>
<polyline clip-path="url(#clip080)" style="stroke:#000000; stroke-linecap:round; stroke-linejoin:round; stroke-width:4; stroke-opacity:1; fill:none" points="2752.76,1302.76 2733.86,1302.76 "/>
<polyline clip-path="url(#clip080)" style="stroke:#000000; stroke-linecap:round; stroke-linejoin:round; stroke-width:4; stroke-opacity:1; fill:none" points="2752.76,894.057 2733.86,894.057 "/>
<polyline clip-path="url(#clip080)" style="stroke:#000000; stroke-linecap:round; stroke-linejoin:round; stroke-width:4; stroke-opacity:1; fill:none" points="2752.76,485.355 2733.86,485.355 "/>
<g clip-path="url(#clip080)">
<text style="fill:#000000; fill-opacity:1; font-family:Arial,Helvetica Neue,Helvetica,sans-serif; font-size:48px; text-anchor:middle;" transform="rotate(0, 175.796, 2137.66)" x="175.796" y="2137.66">−0.4</text>
</g>
<g clip-path="url(#clip080)">
<text style="fill:#000000; fill-opacity:1; font-family:Arial,Helvetica Neue,Helvetica,sans-serif; font-size:48px; text-anchor:middle;" transform="rotate(0, 175.796, 1728.96)" x="175.796" y="1728.96">−0.3</text>
</g>
<g clip-path="url(#clip080)">
<text style="fill:#000000; fill-opacity:1; font-family:Arial,Helvetica Neue,Helvetica,sans-serif; font-size:48px; text-anchor:middle;" transform="rotate(0, 175.796, 1320.26)" x="175.796" y="1320.26">−0.2</text>
</g>
<g clip-path="url(#clip080)">
<text style="fill:#000000; fill-opacity:1; font-family:Arial,Helvetica Neue,Helvetica,sans-serif; font-size:48px; text-anchor:middle;" transform="rotate(0, 175.796, 911.557)" x="175.796" y="911.557">−0.1</text>
</g>
<g clip-path="url(#clip080)">
<text style="fill:#000000; fill-opacity:1; font-family:Arial,Helvetica Neue,Helvetica,sans-serif; font-size:48px; text-anchor:middle;" transform="rotate(0, 189.177, 502.855)" x="189.177" y="502.855">0.0</text>
</g>
<g clip-path="url(#clip080)">
<text style="fill:#000000; fill-opacity:1; font-family:Arial,Helvetica Neue,Helvetica,sans-serif; font-size:66px; text-anchor:middle;" transform="rotate(-90, 75.4, 1264.53)" x="75.4" y="1264.53">Δ log loss (DDM − GLM)</text>
</g>
<g clip-path="url(#clip080)">
<text style="fill:#000000; fill-opacity:1; font-family:Arial,Helvetica Neue,Helvetica,sans-serif; font-size:84px; text-anchor:middle;" transform="rotate(0, 1508.69, 73.2)" x="1508.69" y="73.2">Δ log loss (DDM − GLM), blocked posterior-only</text>
</g>
<circle clip-path="url(#clip082)" cx="335.049" cy="2320.95" r="18" fill="#009af9" fill-rule="evenodd" fill-opacity="1" stroke="#000000" stroke-opacity="1" stroke-width="5.2"/>
<circle clip-path="url(#clip082)" cx="473.125" cy="669.261" r="18" fill="#009af9" fill-rule="evenodd" fill-opacity="1" stroke="#000000" stroke-opacity="1" stroke-width="5.2"/>
<circle clip-path="url(#clip082)" cx="611.201" cy="509.241" r="18" fill="#009af9" fill-rule="evenodd" fill-opacity="1" stroke="#000000" stroke-opacity="1" stroke-width="5.2"/>
<circle clip-path="url(#clip082)" cx="749.276" cy="492.967" r="18" fill="#009af9" fill-rule="evenodd" fill-opacity="1" stroke="#000000" stroke-opacity="1" stroke-width="5.2"/>
<circle clip-path="url(#clip082)" cx="887.352" cy="487.095" r="18" fill="#009af9" fill-rule="evenodd" fill-opacity="1" stroke="#000000" stroke-opacity="1" stroke-width="5.2"/>
<circle clip-path="url(#clip082)" cx="1025.43" cy="484.473" r="18" fill="#009af9" fill-rule="evenodd" fill-opacity="1" stroke="#000000" stroke-opacity="1" stroke-width="5.2"/>
<circle clip-path="url(#clip082)" cx="1163.5" cy="468.545" r="18" fill="#009af9" fill-rule="evenodd" fill-opacity="1" stroke="#000000" stroke-opacity="1" stroke-width="5.2"/>
<circle clip-path="url(#clip082)" cx="1301.58" cy="464.507" r="18" fill="#009af9" fill-rule="evenodd" fill-opacity="1" stroke="#000000" stroke-opacity="1" stroke-width="5.2"/>
<circle clip-path="url(#clip082)" cx="1439.66" cy="450.796" r="18" fill="#009af9" fill-rule="evenodd" fill-opacity="1" stroke="#000000" stroke-opacity="1" stroke-width="5.2"/>
<circle clip-path="url(#clip082)" cx="1577.73" cy="450.522" r="18" fill="#009af9" fill-rule="evenodd" fill-opacity="1" stroke="#000000" stroke-opacity="1" stroke-width="5.2"/>
<circle clip-path="url(#clip082)" cx="1715.81" cy="425.978" r="18" fill="#009af9" fill-rule="evenodd" fill-opacity="1" stroke="#000000" stroke-opacity="1" stroke-width="5.2"/>
<circle clip-path="url(#clip082)" cx="1853.88" cy="415.466" r="18" fill="#009af9" fill-rule="evenodd" fill-opacity="1" stroke="#000000" stroke-opacity="1" stroke-width="5.2"/>
<circle clip-path="url(#clip082)" cx="1991.96" cy="410.178" r="18" fill="#009af9" fill-rule="evenodd" fill-opacity="1" stroke="#000000" stroke-opacity="1" stroke-width="5.2"/>
<circle clip-path="url(#clip082)" cx="2130.03" cy="401.116" r="18" fill="#009af9" fill-rule="evenodd" fill-opacity="1" stroke="#000000" stroke-opacity="1" stroke-width="5.2"/>
<circle clip-path="url(#clip082)" cx="2268.11" cy="366.315" r="18" fill="#009af9" fill-rule="evenodd" fill-opacity="1" stroke="#000000" stroke-opacity="1" stroke-width="5.2"/>
<circle clip-path="url(#clip082)" cx="2406.19" cy="354.652" r="18" fill="#009af9" fill-rule="evenodd" fill-opacity="1" stroke="#000000" stroke-opacity="1" stroke-width="5.2"/>
<circle clip-path="url(#clip082)" cx="2544.26" cy="306.024" r="18" fill="#009af9" fill-rule="evenodd" fill-opacity="1" stroke="#000000" stroke-opacity="1" stroke-width="5.2"/>
<circle clip-path="url(#clip082)" cx="2682.34" cy="208.114" r="18" fill="#009af9" fill-rule="evenodd" fill-opacity="1" stroke="#000000" stroke-opacity="1" stroke-width="5.2"/>
<polyline clip-path="url(#clip082)" style="stroke:#e26f46; stroke-linecap:round; stroke-linejoin:round; stroke-width:8; stroke-opacity:1; fill:none" stroke-dasharray="32, 20" points="-2223.5,485.355 5240.88,485.355 "/>
<path clip-path="url(#clip080)" d="M360.483 309.17 Q362.479 305.582 365.257 303.874 Q368.035 302.167 371.796 302.167 Q376.86 302.167 379.609 305.726 Q382.358 309.256 382.358 315.796 L382.358 335.356 L377.005 335.356 L377.005 315.969 Q377.005 311.311 375.355 309.054 Q373.706 306.797 370.321 306.797 Q366.183 306.797 363.781 309.546 Q361.38 312.295 361.38 317.04 L361.38 335.356 L356.027 335.356 L356.027 315.969 Q356.027 311.282 354.378 309.054 Q352.728 306.797 349.285 306.797 Q345.205 306.797 342.804 309.575 Q340.402 312.323 340.402 317.04 L340.402 335.356 L335.049 335.356 L335.049 302.948 L340.402 302.948 L340.402 307.983 Q342.225 305.003 344.771 303.585 Q347.317 302.167 350.819 302.167 Q354.349 302.167 356.808 303.961 Q359.297 305.755 360.483 309.17 Z" fill="#000000" fill-rule="nonzero" fill-opacity="1" /><path clip-path="url(#clip080)" d="M420.697 317.821 L420.697 320.425 L396.218 320.425 Q396.565 325.923 399.516 328.816 Q402.497 331.681 407.792 331.681 Q410.859 331.681 413.723 330.929 Q416.617 330.176 419.452 328.672 L419.452 333.706 Q416.588 334.922 413.579 335.558 Q410.569 336.195 407.473 336.195 Q399.719 336.195 395.176 331.681 Q390.662 327.167 390.662 319.47 Q390.662 311.513 394.944 306.855 Q399.256 302.167 406.547 302.167 Q413.087 302.167 416.877 306.392 Q420.697 310.587 420.697 317.821 M415.373 316.259 Q415.315 311.889 412.913 309.285 Q410.54 306.681 406.605 306.681 Q402.149 306.681 399.458 309.198 Q396.796 311.716 396.391 316.288 L415.373 316.259 Z" fill="#000000" fill-rule="nonzero" fill-opacity="1" /><path clip-path="url(#clip080)" d="M444.163 319.065 Q437.71 319.065 435.222 320.541 Q432.734 322.017 432.734 325.576 Q432.734 328.411 434.585 330.09 Q436.466 331.739 439.678 331.739 Q444.105 331.739 446.767 328.614 Q449.458 325.46 449.458 320.252 L449.458 319.065 L444.163 319.065 M454.782 316.866 L454.782 335.356 L449.458 335.356 L449.458 330.437 Q447.635 333.388 444.915 334.806 Q442.195 336.195 438.26 336.195 Q433.283 336.195 430.332 333.417 Q427.41 330.61 427.41 325.923 Q427.41 320.454 431.055 317.676 Q434.73 314.899 441.993 314.899 L449.458 314.899 L449.458 314.378 Q449.458 310.703 447.028 308.707 Q444.626 306.681 440.257 306.681 Q437.479 306.681 434.846 307.347 Q432.213 308.012 429.782 309.343 L429.782 304.424 Q432.705 303.296 435.454 302.746 Q438.202 302.167 440.806 302.167 Q447.838 302.167 451.31 305.813 Q454.782 309.459 454.782 316.866 Z" fill="#000000" fill-rule="nonzero" fill-opacity="1" /><path clip-path="url(#clip080)" d="M492.687 315.796 L492.687 335.356 L487.363 335.356 L487.363 315.969 Q487.363 311.369 485.569 309.083 Q483.775 306.797 480.187 306.797 Q475.876 306.797 473.387 309.546 Q470.899 312.295 470.899 317.04 L470.899 335.356 L465.546 335.356 L465.546 302.948 L470.899 302.948 L470.899 307.983 Q472.809 305.061 475.384 303.614 Q477.988 302.167 481.373 302.167 Q486.958 302.167 489.822 305.639 Q492.687 309.083 492.687 315.796 Z" fill="#000000" fill-rule="nonzero" fill-opacity="1" /><path clip-path="url(#clip080)" d="M536.813 297.914 L524.95 330.495 L548.705 330.495 L536.813 297.914 M517.021 335.356 L533.514 292.156 L540.14 292.156 L556.604 335.356 L517.021 335.356 Z" fill="#000000" fill-rule="nonzero" fill-opacity="1" /><path clip-path="url(#clip080)" d="M582.212 308.446 L619.307 308.446 L619.307 313.307 L582.212 313.307 L582.212 308.446 M582.212 320.252 L619.307 320.252 L619.307 325.171 L582.212 325.171 L582.212 320.252 Z" fill="#000000" fill-rule="nonzero" fill-opacity="1" /><path clip-path="url(#clip080)" d="M647.316 316.751 L662.912 316.751 L662.912 321.496 L647.316 321.496 L647.316 316.751 Z" fill="#000000" fill-rule="nonzero" fill-opacity="1" /><path clip-path="url(#clip080)" d="M684.642 296.004 Q680.128 296.004 677.842 300.46 Q675.585 304.887 675.585 313.799 Q675.585 322.682 677.842 327.138 Q680.128 331.565 684.642 331.565 Q689.185 331.565 691.442 327.138 Q693.728 322.682 693.728 313.799 Q693.728 304.887 691.442 300.46 Q689.185 296.004 684.642 296.004 M684.642 291.374 Q691.905 291.374 695.724 297.133 Q699.572 302.862 699.572 313.799 Q699.572 324.708 695.724 330.466 Q691.905 336.195 684.642 336.195 Q677.379 336.195 673.531 330.466 Q669.712 324.708 669.712 313.799 Q669.712 302.862 673.531 297.133 Q677.379 291.374 684.642 291.374 Z" fill="#000000" fill-rule="nonzero" fill-opacity="1" /><path clip-path="url(#clip080)" d="M709.844 328.006 L715.95 328.006 L715.95 335.356 L709.844 335.356 L709.844 328.006 Z" fill="#000000" fill-rule="nonzero" fill-opacity="1" /><path clip-path="url(#clip080)" d="M741.181 296.004 Q736.667 296.004 734.381 300.46 Q732.124 304.887 732.124 313.799 Q732.124 322.682 734.381 327.138 Q736.667 331.565 741.181 331.565 Q745.724 331.565 747.981 327.138 Q750.267 322.682 750.267 313.799 Q750.267 304.887 747.981 300.46 Q745.724 296.004 741.181 296.004 M741.181 291.374 Q748.444 291.374 752.263 297.133 Q756.112 302.862 756.112 313.799 Q756.112 324.708 752.263 330.466 Q748.444 336.195 741.181 336.195 Q733.918 336.195 730.07 330.466 Q726.251 324.708 726.251 313.799 Q726.251 302.862 730.07 297.133 Q733.918 291.374 741.181 291.374 Z" fill="#000000" fill-rule="nonzero" fill-opacity="1" /><path clip-path="url(#clip080)" d="M767.396 330.437 L776.945 330.437 L776.945 297.48 L766.557 299.563 L766.557 294.239 L776.887 292.156 L782.732 292.156 L782.732 330.437 L792.28 330.437 L792.28 335.356 L767.396 335.356 L767.396 330.437 Z" fill="#000000" fill-rule="nonzero" fill-opacity="1" /><path clip-path="url(#clip080)" d="M809.12 330.437 L829.52 330.437 L829.52 335.356 L802.089 335.356 L802.089 330.437 Q805.417 326.994 811.146 321.206 Q816.904 315.391 818.38 313.712 Q821.186 310.558 822.286 308.388 Q823.414 306.189 823.414 304.077 Q823.414 300.634 820.984 298.464 Q818.582 296.293 814.705 296.293 Q811.956 296.293 808.889 297.248 Q805.851 298.203 802.379 300.142 L802.379 294.239 Q805.909 292.821 808.976 292.098 Q812.043 291.374 814.589 291.374 Q821.302 291.374 825.295 294.731 Q829.288 298.087 829.288 303.701 Q829.288 306.363 828.275 308.764 Q827.292 311.137 824.659 314.378 Q823.935 315.217 820.058 319.239 Q816.181 323.232 809.12 330.437 Z" fill="#000000" fill-rule="nonzero" fill-opacity="1" /><path clip-path="url(#clip080)" d="M841.962 334.459 L841.962 329.135 Q844.161 330.176 846.418 330.726 Q848.675 331.276 850.845 331.276 Q856.632 331.276 859.67 327.399 Q862.737 323.492 863.171 315.564 Q861.493 318.053 858.918 319.384 Q856.342 320.715 853.217 320.715 Q846.736 320.715 842.946 316.808 Q839.184 312.873 839.184 306.073 Q839.184 299.418 843.119 295.396 Q847.054 291.374 853.594 291.374 Q861.088 291.374 865.023 297.133 Q868.987 302.862 868.987 313.799 Q868.987 324.013 864.126 330.118 Q859.294 336.195 851.105 336.195 Q848.906 336.195 846.649 335.761 Q844.392 335.327 841.962 334.459 M853.594 316.143 Q857.529 316.143 859.815 313.452 Q862.129 310.761 862.129 306.073 Q862.129 301.415 859.815 298.724 Q857.529 296.004 853.594 296.004 Q849.658 296.004 847.344 298.724 Q845.058 301.415 845.058 306.073 Q845.058 310.761 847.344 313.452 Q849.658 316.143 853.594 316.143 Z" fill="#000000" fill-rule="nonzero" fill-opacity="1" /><path clip-path="url(#clip080)" d="M919.247 298.203 L919.247 309.401 L935.364 309.401 L935.364 314.32 L919.247 314.32 L919.247 325.518 L914.386 325.518 L914.386 314.32 L898.269 314.32 L898.269 309.401 L914.386 309.401 L914.386 298.203 L919.247 298.203 M898.269 330.437 L935.364 330.437 L935.364 335.356 L898.269 335.356 L898.269 330.437 Z" fill="#000000" fill-rule="nonzero" fill-opacity="1" /><path clip-path="url(#clip080)" d="M979.316 296.004 Q974.802 296.004 972.517 300.46 Q970.26 304.887 970.26 313.799 Q970.26 322.682 972.517 327.138 Q974.802 331.565 979.316 331.565 Q983.859 331.565 986.116 327.138 Q988.402 322.682 988.402 313.799 Q988.402 304.887 986.116 300.46 Q983.859 296.004 979.316 296.004 M979.316 291.374 Q986.579 291.374 990.398 297.133 Q994.247 302.862 994.247 313.799 Q994.247 324.708 990.398 330.466 Q986.579 336.195 979.316 336.195 Q972.054 336.195 968.205 330.466 Q964.386 324.708 964.386 313.799 Q964.386 302.862 968.205 297.133 Q972.054 291.374 979.316 291.374 Z" fill="#000000" fill-rule="nonzero" fill-opacity="1" /><path clip-path="url(#clip080)" d="M1004.52 328.006 L1010.62 328.006 L1010.62 335.356 L1004.52 335.356 L1004.52 328.006 Z" fill="#000000" fill-rule="nonzero" fill-opacity="1" /><path clip-path="url(#clip080)" d="M1035.86 296.004 Q1031.34 296.004 1029.06 300.46 Q1026.8 304.887 1026.8 313.799 Q1026.8 322.682 1029.06 327.138 Q1031.34 331.565 1035.86 331.565 Q1040.4 331.565 1042.66 327.138 Q1044.94 322.682 1044.94 313.799 Q1044.94 304.887 1042.66 300.46 Q1040.4 296.004 1035.86 296.004 M1035.86 291.374 Q1043.12 291.374 1046.94 297.133 Q1050.79 302.862 1050.79 313.799 Q1050.79 324.708 1046.94 330.466 Q1043.12 336.195 1035.86 336.195 Q1028.59 336.195 1024.74 330.466 Q1020.92 324.708 1020.92 313.799 Q1020.92 302.862 1024.74 297.133 Q1028.59 291.374 1035.86 291.374 Z" fill="#000000" fill-rule="nonzero" fill-opacity="1" /><path clip-path="url(#clip080)" d="M1066.09 330.437 L1086.49 330.437 L1086.49 335.356 L1059.06 335.356 L1059.06 330.437 Q1062.39 326.994 1068.12 321.206 Q1073.88 315.391 1075.35 313.712 Q1078.16 310.558 1079.26 308.388 Q1080.39 306.189 1080.39 304.077 Q1080.39 300.634 1077.96 298.464 Q1075.55 296.293 1071.68 296.293 Q1068.93 296.293 1065.86 297.248 Q1062.82 298.203 1059.35 300.142 L1059.35 294.239 Q1062.88 292.821 1065.95 292.098 Q1069.01 291.374 1071.56 291.374 Q1078.27 291.374 1082.27 294.731 Q1086.26 298.087 1086.26 303.701 Q1086.26 306.363 1085.25 308.764 Q1084.26 311.137 1081.63 314.378 Q1080.91 315.217 1077.03 319.239 Q1073.15 323.232 1066.09 330.437 Z" fill="#000000" fill-rule="nonzero" fill-opacity="1" /><path clip-path="url(#clip080)" d="M1111.98 311.426 Q1108.05 311.426 1105.73 314.117 Q1103.45 316.808 1103.45 321.496 Q1103.45 326.154 1105.73 328.874 Q1108.05 331.565 1111.98 331.565 Q1115.92 331.565 1118.2 328.874 Q1120.52 326.154 1120.52 321.496 Q1120.52 316.808 1118.2 314.117 Q1115.92 311.426 1111.98 311.426 M1123.59 293.111 L1123.59 298.435 Q1121.39 297.393 1119.13 296.843 Q1116.9 296.293 1114.7 296.293 Q1108.92 296.293 1105.85 300.2 Q1102.81 304.106 1102.38 312.005 Q1104.08 309.488 1106.66 308.157 Q1109.23 306.797 1112.33 306.797 Q1118.84 306.797 1122.6 310.761 Q1126.39 314.696 1126.39 321.496 Q1126.39 328.151 1122.46 332.173 Q1118.52 336.195 1111.98 336.195 Q1104.49 336.195 1100.53 330.466 Q1096.56 324.708 1096.56 313.799 Q1096.56 303.556 1101.42 297.48 Q1106.28 291.374 1114.47 291.374 Q1116.67 291.374 1118.9 291.809 Q1121.16 292.243 1123.59 293.111 Z" fill="#000000" fill-rule="nonzero" fill-opacity="1" /><path clip-path="url(#clip080)" d="M1167.34 290.391 Q1163.46 297.046 1161.58 303.556 Q1159.7 310.067 1159.7 316.751 Q1159.7 323.434 1161.58 330.003 Q1163.49 336.542 1167.34 343.168 L1162.71 343.168 Q1158.37 336.368 1156.2 329.8 Q1154.05 323.232 1154.05 316.751 Q1154.05 310.298 1156.2 303.759 Q1158.34 297.219 1162.71 290.391 L1167.34 290.391 Z" fill="#000000" fill-rule="nonzero" fill-opacity="1" /><path clip-path="url(#clip080)" d="M1203.79 293.574 L1203.79 299.274 Q1200.47 297.682 1197.52 296.901 Q1194.56 296.12 1191.82 296.12 Q1187.04 296.12 1184.44 297.972 Q1181.86 299.824 1181.86 303.238 Q1181.86 306.102 1183.57 307.578 Q1185.3 309.025 1190.11 309.922 L1193.64 310.645 Q1200.18 311.889 1203.27 315.043 Q1206.4 318.168 1206.4 323.434 Q1206.4 329.713 1202.17 332.954 Q1197.98 336.195 1189.85 336.195 Q1186.78 336.195 1183.31 335.5 Q1179.87 334.806 1176.16 333.446 L1176.16 327.428 Q1179.72 329.424 1183.13 330.437 Q1186.55 331.449 1189.85 331.449 Q1194.85 331.449 1197.57 329.482 Q1200.29 327.514 1200.29 323.869 Q1200.29 320.686 1198.33 318.892 Q1196.39 317.098 1191.93 316.201 L1188.37 315.506 Q1181.83 314.204 1178.91 311.426 Q1175.99 308.649 1175.99 303.701 Q1175.99 297.972 1180.01 294.673 Q1184.06 291.374 1191.15 291.374 Q1194.19 291.374 1197.34 291.924 Q1200.5 292.474 1203.79 293.574 Z" fill="#000000" fill-rule="nonzero" fill-opacity="1" /><path clip-path="url(#clip080)" d="M1215.51 292.156 L1242.83 292.156 L1242.83 297.075 L1221.36 297.075 L1221.36 309.864 L1241.93 309.864 L1241.93 314.783 L1221.36 314.783 L1221.36 330.437 L1243.35 330.437 L1243.35 335.356 L1215.51 335.356 L1215.51 292.156 Z" fill="#000000" fill-rule="nonzero" fill-opacity="1" /><path clip-path="url(#clip080)" d="M1252.95 292.156 L1261.66 292.156 L1272.69 321.554 L1283.77 292.156 L1292.48 292.156 L1292.48 335.356 L1286.78 335.356 L1286.78 297.422 L1275.64 327.051 L1269.77 327.051 L1258.63 297.422 L1258.63 335.356 L1252.95 335.356 L1252.95 292.156 Z" fill="#000000" fill-rule="nonzero" fill-opacity="1" /><path clip-path="url(#clip080)" d="M1303.01 290.391 L1307.64 290.391 Q1311.98 297.219 1314.12 303.759 Q1316.29 310.298 1316.29 316.751 Q1316.29 323.232 1314.12 329.8 Q1311.98 336.368 1307.64 343.168 L1303.01 343.168 Q1306.86 336.542 1308.74 330.003 Q1310.65 323.434 1310.65 316.751 Q1310.65 310.067 1308.74 303.556 Q1306.86 297.046 1303.01 290.391 Z" fill="#000000" fill-rule="nonzero" fill-opacity="1" /></svg>
