<?xml version="1.0" encoding="utf-8"?>
<svg xmlns="http://www.w3.org/2000/svg" xmlns:xlink="http://www.w3.org/1999/xlink" width="600" height="400" viewBox="0 0 2400 1600">
<defs>
  <clipPath id="clip860">
    <rect x="0" y="0" width="2400" height="1600"/>
  </clipPath>
</defs>
<path clip-path="url(#clip860)" d="M0 1600 L2400 1600 L2400 0 L0 0  Z" fill="#ffffff" fill-rule="evenodd" fill-opacity="1"/>
<defs>
  <clipPath id="clip861">
    <rect x="480" y="0" width="1681" height="1600"/>
  </clipPath>
</defs>
<path clip-path="url(#clip860)" d="M242.516 1425.62 L2352.76 1425.62 L2352.76 121.675 L242.516 121.675  Z" fill="#ffffff" fill-rule="evenodd" fill-opacity="1"/>
<defs>
  <clipPath id="clip862">
    <rect x="242" y="121" width="2111" height="1305"/>
  </clipPath>
</defs>
<polyline clip-path="url(#clip862)" style="stroke:#000000; stroke-linecap:round; stroke-linejoin:round; stroke-width:2; stroke-opacity:0.1; fill:none" points="721.354,1425.62 721.354,121.675 "/>
<polyline clip-path="url(#clip862)" style="stroke:#000000; stroke-linecap:round; stroke-linejoin:round; stroke-width:2; stroke-opacity:0.1; fill:none" points="1245.25,1425.62 1245.25,121.675 "/>
<polyline clip-path="url(#clip862)" style="stroke:#000000; stroke-linecap:round; stroke-linejoin:round; stroke-width:2; stroke-opacity:0.1; fill:none" points="1769.14,1425.62 1769.14,121.675 "/>
<polyline clip-path="url(#clip862)" style="stroke:#000000; stroke-linecap:round; stroke-linejoin:round; stroke-width:2; stroke-opacity:0.1; fill:none" points="2293.03,1425.62 2293.03,121.675 "/>
<polyline clip-path="url(#clip862)" style="stroke:#000000; stroke-linecap:round; stroke-linejoin:round; stroke-width:2; stroke-opacity:0.1; fill:none" points="242.516,1245.83 2352.76,1245.83 "/>
<polyline clip-path="url(#clip862)" style="stroke:#000000; stroke-linecap:round; stroke-linejoin:round; stroke-width:2; stroke-opacity:0.1; fill:none" points="242.516,1064.47 2352.76,1064.47 "/>
<polyline clip-path="url(#clip862)" style="stroke:#000000; stroke-linecap:round; stroke-linejoin:round; stroke-width:2; stroke-opacity:0.1; fill:none" points="242.516,883.105 2352.76,883.105 "/>
<polyline clip-path="url(#clip862)" style="stroke:#000000; stroke-linecap:round; stroke-linejoin:round; stroke-width:2; stroke-opacity:0.1; fill:none" points="242.516,701.741 2352.76,701.741 "/>
<polyline clip-path="url(#clip862)" style="stroke:#000000; stroke-linecap:round; stroke-linejoin:round; stroke-width:2; stroke-opacity:0.1; fill:none" points="242.516,520.377 2352.76,520.377 "/>
<polyline clip-path="url(#clip862)" style="stroke:#000000; stroke-linecap:round; stroke-linejoin:round; stroke-width:2; stroke-opacity:0.1; fill:none" points="242.516,339.013 2352.76,339.013 "/>
<polyline clip-path="url(#clip862)" style="stroke:#000000; stroke-linecap:round; stroke-linejoin:round; stroke-width:2; stroke-opacity:0.1; fill:none" points="242.516,157.649 2352.76,157.649 "/>
<polyline clip-path="url(#clip860)" style="stroke:#000000; stroke-linecap:round; stroke-linejoin:round; stroke-width:4; stroke-opacity:1; fill:none" points="242.516,1425.62 2352.76,1425.62 "/>
<polyline clip-path="url(#clip860)" style="stroke:#000000; stroke-linecap:round; stroke-linejoin:round; stroke-width:4; stroke-opacity:1; fill:none" points="721.354,1425.62 721.354,1406.72 "/>
<polyline clip-path="url(#clip860)" style="stroke:#000000; stroke-linecap:round; stroke-linejoin:round; stroke-width:4; stroke-opacity:1; fill:none" points="1245.25,1425.62 1245.25,1406.72 "/>
<polyline clip-path="url(#clip860)" style="stroke:#000000; stroke-linecap:round; stroke-linejoin:round; stroke-width:4; stroke-opacity:1; fill:none" points="1769.14,1425.62 1769.14,1406.72 "/>
<polyline clip-path="url(#clip860)" style="stroke:#000000; stroke-linecap:round; stroke-linejoin:round; stroke-width:4; stroke-opacity:1; fill:none" points="2293.03,1425.62 2293.03,1406.72 "/>
<g clip-path="url(#clip860)">
<text style="fill:#000000; fill-opacity:1; font-family:Arial,Helvetica Neue,Helvetica,sans-serif; font-size:48px; text-anchor:middle;" transform="rotate(0, 721.354, 1487.47)" x="721.354" y="1487.47">5</text>
</g>
<g clip-path="url(#clip860)">
<text style="fill:#000000; fill-opacity:1; font-family:Arial,Helvetica Neue,Helvetica,sans-serif; font-size:48px; text-anchor:middle;" transform="rotate(0, 1245.25, 1487.47)" x="1245.25" y="1487.47">10</text>
</g>
<g clip-path="url(#clip860)">
<text style="fill:#000000; fill-opacity:1; font-family:Arial,Helvetica Neue,Helvetica,sans-serif; font-size:48px; text-anchor:middle;" transform="rotate(0, 1769.14, 1487.47)" x="1769.14" y="1487.47">15</text>
</g>
<g clip-path="url(#clip860)">
<text style="fill:#000000; fill-opacity:1; font-family:Arial,Helvetica Neue,Helvetica,sans-serif; font-size:48px; text-anchor:middle;" transform="rotate(0, 2293.03, 1487.47)" x="2293.03" y="1487.47">20</text>
</g>
<g clip-path="url(#clip860)">
<text style="fill:#000000; fill-opacity:1; font-family:Arial,Helvetica Neue,Helvetica,sans-serif; font-size:66px; text-anchor:middle;" transform="rotate(0, 1297.64, 1571.48)" x="1297.64" y="1571.48">Lag</text>
</g>
<polyline clip-path="url(#clip860)" style="stroke:#000000; stroke-linecap:round; stroke-linejoin:round; stroke-width:4; stroke-opacity:1; fill:none" points="242.516,1425.62 242.516,121.675 "/>
<polyline clip-path="url(#clip860)" style="stroke:#000000; stroke-linecap:round; stroke-linejoin:round; stroke-width:4; stroke-opacity:1; fill:none" points="242.516,1245.83 261.414,1245.83 "/>
<polyline clip-path="url(#clip860)" style="stroke:#000000; stroke-linecap:round; stroke-linejoin:round; stroke-width:4; stroke-opacity:1; fill:none" points="242.516,1064.47 261.414,1064.47 "/>
<polyline clip-path="url(#clip860)" style="stroke:#000000; stroke-linecap:round; stroke-linejoin:round; stroke-width:4; stroke-opacity:1; fill:none" points="242.516,883.105 261.414,883.105 "/>
<polyline clip-path="url(#clip860)" style="stroke:#000000; stroke-linecap:round; stroke-linejoin:round; stroke-width:4; stroke-opacity:1; fill:none" points="242.516,701.741 261.414,701.741 "/>
<polyline clip-path="url(#clip860)" style="stroke:#000000; stroke-linecap:round; stroke-linejoin:round; stroke-width:4; stroke-opacity:1; fill:none" points="242.516,520.377 261.414,520.377 "/>
<polyline clip-path="url(#clip860)" style="stroke:#000000; stroke-linecap:round; stroke-linejoin:round; stroke-width:4; stroke-opacity:1; fill:none" points="242.516,339.013 261.414,339.013 "/>
<polyline clip-path="url(#clip860)" style="stroke:#000000; stroke-linecap:round; stroke-linejoin:round; stroke-width:4; stroke-opacity:1; fill:none" points="242.516,157.649 261.414,157.649 "/>
<g clip-path="url(#clip860)">
<text style="fill:#000000; fill-opacity:1; font-family:Arial,Helvetica Neue,Helvetica,sans-serif; font-size:48px; text-anchor:middle;" transform="rotate(0, 159.682, 1263.33)" x="159.682" y="1263.33">0.05</text>
</g>
<g clip-path="url(#clip860)">
<text style="fill:#000000; fill-opacity:1; font-family:Arial,Helvetica Neue,Helvetica,sans-serif; font-size:48px; text-anchor:middle;" transform="rotate(0, 159.682, 1081.97)" x="159.682" y="1081.97">0.10</text>
</g>
<g clip-path="url(#clip860)">
<text style="fill:#000000; fill-opacity:1; font-family:Arial,Helvetica Neue,Helvetica,sans-serif; font-size:48px; text-anchor:middle;" transform="rotate(0, 159.682, 900.605)" x="159.682" y="900.605">0.15</text>
</g>
<g clip-path="url(#clip860)">
<text style="fill:#000000; fill-opacity:1; font-family:Arial,Helvetica Neue,Helvetica,sans-serif; font-size:48px; text-anchor:middle;" transform="rotate(0, 159.682, 719.241)" x="159.682" y="719.241">0.20</text>
</g>
<g clip-path="url(#clip860)">
<text style="fill:#000000; fill-opacity:1; font-family:Arial,Helvetica Neue,Helvetica,sans-serif; font-size:48px; text-anchor:middle;" transform="rotate(0, 159.682, 537.877)" x="159.682" y="537.877">0.25</text>
</g>
<g clip-path="url(#clip860)">
<text style="fill:#000000; fill-opacity:1; font-family:Arial,Helvetica Neue,Helvetica,sans-serif; font-size:48px; text-anchor:middle;" transform="rotate(0, 159.682, 356.513)" x="159.682" y="356.513">0.30</text>
</g>
<g clip-path="url(#clip860)">
<text style="fill:#000000; fill-opacity:1; font-family:Arial,Helvetica Neue,Helvetica,sans-serif; font-size:48px; text-anchor:middle;" transform="rotate(0, 159.682, 175.149)" x="159.682" y="175.149">0.35</text>
</g>
<g clip-path="url(#clip860)">
<text style="fill:#000000; fill-opacity:1; font-family:Arial,Helvetica Neue,Helvetica,sans-serif; font-size:66px; text-anchor:middle;" transform="rotate(-90, 65.2861, 773.647)" x="65.2861" y="773.647">PACF</text>
</g>
<g clip-path="url(#clip860)">
<text style="fill:#000000; fill-opacity:1; font-family:Arial,Helvetica Neue,Helvetica,sans-serif; font-size:84px; text-anchor:middle;" transform="rotate(0, 1297.64, 73.2)" x="1297.64" y="73.2">Mean PACF of Trial Parameters Across Rats</text>
</g>
<path clip-path="url(#clip862)" d="M302.24 721.739 L407.019 892.463 L511.797 1024.69 L616.576 1087.01 L721.354 1140.39 L826.133 1180.89 L930.911 1228.72 L1035.69 1248.13 L1140.47 1275.17 L1245.25 1277.09 L1350.03 1302.39 L1454.8 1309.73 L1559.58 1334.13 L1664.36 1339.7 L1769.14 1344.55 L1873.92 1354.58 L1978.7 1351.84 L2083.48 1358.14 L2188.25 1370 L2293.03 1367.52 L2293.03 1334.5 L2188.25 1335.04 L2083.48 1332.67 L1978.7 1332.17 L1873.92 1326.13 L1769.14 1301.59 L1664.36 1307.72 L1559.58 1305.13 L1454.8 1269.06 L1350.03 1272.85 L1245.25 1237.42 L1140.47 1223.78 L1035.69 1205.82 L930.911 1176.34 L826.133 1126.93 L721.354 1075.14 L616.576 1005.85 L511.797 919.836 L407.019 746.154 L302.24 482.041  Z" fill="#009af9" fill-rule="evenodd" fill-opacity="0.5"/>
<polyline clip-path="url(#clip862)" style="stroke:#009af9; stroke-linecap:round; stroke-linejoin:round; stroke-width:8; stroke-opacity:1; fill:none" points="302.24,601.89 407.019,819.308 511.797,972.263 616.576,1046.43 721.354,1107.77 826.133,1153.91 930.911,1202.53 1035.69,1226.98 1140.47,1249.48 1245.25,1257.25 1350.03,1287.62 1454.8,1289.4 1559.58,1319.63 1664.36,1323.71 1769.14,1323.07 1873.92,1340.36 1978.7,1342.01 2083.48,1345.41 2188.25,1352.52 2293.03,1351.01 "/>
<path clip-path="url(#clip862)" d="M302.24 447.442 L407.019 825.564 L511.797 978.434 L616.576 1082.82 L721.354 1133.64 L826.133 1180.47 L930.911 1221.5 L1035.69 1260.06 L1140.47 1277.57 L1245.25 1280.91 L1350.03 1301.04 L1454.8 1315.77 L1559.58 1328.69 L1664.36 1339.13 L1769.14 1352.05 L1873.92 1348.77 L1978.7 1365.02 L2083.48 1369.03 L2188.25 1360.5 L2293.03 1365.33 L2293.03 1316.46 L2188.25 1315.2 L2083.48 1334.06 L1978.7 1324.7 L1873.92 1308.78 L1769.14 1306.27 L1664.36 1291.27 L1559.58 1289.96 L1454.8 1268.68 L1350.03 1243.66 L1245.25 1222.63 L1140.47 1216.77 L1035.69 1189.25 L930.911 1140.51 L826.133 1104.01 L721.354 1032.33 L616.576 968.894 L511.797 843.031 L407.019 628.375 L302.24 158.579  Z" fill="#e26f46" fill-rule="evenodd" fill-opacity="0.5"/>
<polyline clip-path="url(#clip862)" style="stroke:#e26f46; stroke-linecap:round; stroke-linejoin:round; stroke-width:8; stroke-opacity:1; fill:none" points="302.24,303.011 407.019,726.969 511.797,910.732 616.576,1025.86 721.354,1082.99 826.133,1142.24 930.911,1181 1035.69,1224.65 1140.47,1247.17 1245.25,1251.77 1350.03,1272.35 1454.8,1292.22 1559.58,1309.32 1664.36,1315.2 1769.14,1329.16 1873.92,1328.78 1978.7,1344.86 2083.48,1351.54 2188.25,1337.85 2293.03,1340.9 "/>
<path clip-path="url(#clip862)" d="M302.24 1247.59 L407.019 1308.55 L511.797 1332.04 L616.576 1340.3 L721.354 1361.83 L826.133 1350.79 L930.911 1356.87 L1035.69 1359.8 L1140.47 1378.61 L1245.25 1366.84 L1350.03 1367.79 L1454.8 1371.75 L1559.58 1371.18 L1664.36 1380.22 L1769.14 1376.97 L1873.92 1381.32 L1978.7 1378.68 L2083.48 1380.44 L2188.25 1388.71 L2293.03 1383.46 L2293.03 1362.14 L2188.25 1369.84 L2083.48 1355.35 L1978.7 1341.26 L1873.92 1355.08 L1769.14 1347 L1664.36 1349.16 L1559.58 1346.13 L1454.8 1338.3 L1350.03 1343.12 L1245.25 1333.14 L1140.47 1345.04 L1035.69 1325.45 L930.911 1328.91 L826.133 1317.72 L721.354 1327.35 L616.576 1297.85 L511.797 1287.8 L407.019 1273 L302.24 1203.54  Z" fill="#3da44d" fill-rule="evenodd" fill-opacity="0.5"/>
<polyline clip-path="url(#clip862)" style="stroke:#3da44d; stroke-linecap:round; stroke-linejoin:round; stroke-width:8; stroke-opacity:1; fill:none" points="302.24,1225.56 407.019,1290.77 511.797,1309.92 616.576,1319.07 721.354,1344.59 826.133,1334.25 930.911,1342.89 1035.69,1342.63 1140.47,1361.83 1245.25,1349.99 1350.03,1355.46 1454.8,1355.02 1559.58,1358.65 1664.36,1364.69 1769.14,1361.98 1873.92,1368.2 1978.7,1359.97 2083.48,1367.9 2188.25,1379.28 2293.03,1372.8 "/>
<path clip-path="url(#clip862)" d="M302.24 704.731 L407.019 1146.82 L511.797 1169.55 L616.576 1207.24 L721.354 1215.1 L826.133 1234.75 L930.911 1266.63 L1035.69 1281.47 L1140.47 1288.38 L1245.25 1290.22 L1350.03 1309.48 L1454.8 1322.6 L1559.58 1315.49 L1664.36 1338.96 L1769.14 1338.91 L1873.92 1346.05 L1978.7 1364.59 L2083.48 1374.75 L2188.25 1362.16 L2293.03 1381.35 L2293.03 1348.64 L2188.25 1315.12 L2083.48 1330.89 L1978.7 1331.65 L1873.92 1309.73 L1769.14 1299.29 L1664.36 1296.82 L1559.58 1271.94 L1454.8 1287.6 L1350.03 1271.35 L1245.25 1267.79 L1140.47 1238.83 L1035.69 1240.7 L930.911 1205.9 L826.133 1183.84 L721.354 1158.65 L616.576 1113.68 L511.797 1069.51 L407.019 1012.02 L302.24 407.733  Z" fill="#c271d2" fill-rule="evenodd" fill-opacity="0.5"/>
<polyline clip-path="url(#clip862)" style="stroke:#c271d2; stroke-linecap:round; stroke-linejoin:round; stroke-width:8; stroke-opacity:1; fill:none" points="302.24,556.232 407.019,1079.42 511.797,1119.53 616.576,1160.46 721.354,1186.88 826.133,1209.29 930.911,1236.26 1035.69,1261.09 1140.47,1263.6 1245.25,1279 1350.03,1290.42 1454.8,1305.1 1559.58,1293.71 1664.36,1317.89 1769.14,1319.1 1873.92,1327.89 1978.7,1348.12 2083.48,1352.82 2188.25,1338.64 2293.03,1364.99 "/>
<path clip-path="url(#clip860)" d="M2017.87 416.639 L2282.41 416.639 L2282.41 165.14 L2017.87 165.14  Z" fill="#ffffff" fill-rule="evenodd" fill-opacity="1"/>
<polyline clip-path="url(#clip860)" style="stroke:#000000; stroke-linecap:round; stroke-linejoin:round; stroke-width:4; stroke-opacity:1; fill:none" points="2017.87,416.639 2282.41,416.639 2282.41,165.14 2017.87,165.14 2017.87,416.639 "/>
<polyline clip-path="url(#clip860)" style="stroke:#009af9; stroke-linecap:round; stroke-linejoin:round; stroke-width:8; stroke-opacity:1; fill:none" points="2041.31,215.44 2182,215.44 "/>
<g clip-path="url(#clip860)">
<text style="fill:#000000; fill-opacity:1; font-family:Arial,Helvetica Neue,Helvetica,sans-serif; font-size:48px; text-anchor:start;" transform="rotate(0, 2205.44, 232.94)" x="2205.44" y="232.94">B</text>
</g>
<polyline clip-path="url(#clip860)" style="stroke:#e26f46; stroke-linecap:round; stroke-linejoin:round; stroke-width:8; stroke-opacity:1; fill:none" points="2041.31,265.739 2182,265.739 "/>
<g clip-path="url(#clip860)">
<text style="fill:#000000; fill-opacity:1; font-family:Arial,Helvetica Neue,Helvetica,sans-serif; font-size:48px; text-anchor:start;" transform="rotate(0, 2205.44, 283.239)" x="2205.44" y="283.239">τ</text>
</g>
<polyline clip-path="url(#clip860)" style="stroke:#3da44d; stroke-linecap:round; stroke-linejoin:round; stroke-width:8; stroke-opacity:1; fill:none" points="2041.31,316.039 2182,316.039 "/>
<g clip-path="url(#clip860)">
<text style="fill:#000000; fill-opacity:1; font-family:Arial,Helvetica Neue,Helvetica,sans-serif; font-size:48px; text-anchor:start;" transform="rotate(0, 2205.44, 333.539)" x="2205.44" y="333.539">v</text>
</g>
<polyline clip-path="url(#clip860)" style="stroke:#c271d2; stroke-linecap:round; stroke-linejoin:round; stroke-width:8; stroke-opacity:1; fill:none" points="2041.31,366.339 2182,366.339 "/>
<g clip-path="url(#clip860)">
<text style="fill:#000000; fill-opacity:1; font-family:Arial,Helvetica Neue,Helvetica,sans-serif; font-size:48px; text-anchor:start;" transform="rotate(0, 2205.44, 383.839)" x="2205.44" y="383.839">a0</text>
</g>
</svg>
