<?xml version="1.0" encoding="utf-8"?>
<svg xmlns="http://www.w3.org/2000/svg" xmlns:xlink="http://www.w3.org/1999/xlink" width="760" height="300" viewBox="0 0 3040 1200">
<defs>
  <clipPath id="clip960">
    <rect x="0" y="0" width="3040" height="1200"/>
  </clipPath>
</defs>
<path clip-path="url(#clip960)" d="M0 1200 L3040 1200 L3040 0 L0 0  Z" fill="#ffffff" fill-rule="evenodd" fill-opacity="1"/>
<defs>
  <clipPath id="clip961">
    <rect x="608" y="0" width="2129" height="1200"/>
  </clipPath>
</defs>
<path clip-path="url(#clip960)" d="M462.048 1060.66 L2992.76 1060.66 L2992.76 47.2441 L462.048 47.2441  Z" fill="#ffffff" fill-rule="evenodd" fill-opacity="1"/>
<defs>
  <clipPath id="clip962">
    <rect x="462" y="47" width="2532" height="1014"/>
  </clipPath>
</defs>
<polyline clip-path="url(#clip960)" style="stroke:#000000; stroke-linecap:round; stroke-linejoin:round; stroke-width:4; stroke-opacity:1; fill:none" points="462.048,1060.66 2992.76,1060.66 "/>
<polyline clip-path="url(#clip960)" style="stroke:#000000; stroke-linecap:round; stroke-linejoin:round; stroke-width:4; stroke-opacity:1; fill:none" points="462.048,47.2441 2992.76,47.2441 "/>
<polyline clip-path="url(#clip960)" style="stroke:#000000; stroke-linecap:round; stroke-linejoin:round; stroke-width:4; stroke-opacity:1; fill:none" points="462.048,1060.66 462.048,1041.76 "/>
<polyline clip-path="url(#clip960)" style="stroke:#000000; stroke-linecap:round; stroke-linejoin:round; stroke-width:4; stroke-opacity:1; fill:none" points="1094.72,1060.66 1094.72,1041.76 "/>
<polyline clip-path="url(#clip960)" style="stroke:#000000; stroke-linecap:round; stroke-linejoin:round; stroke-width:4; stroke-opacity:1; fill:none" points="1727.4,1060.66 1727.4,1041.76 "/>
<polyline clip-path="url(#clip960)" style="stroke:#000000; stroke-linecap:round; stroke-linejoin:round; stroke-width:4; stroke-opacity:1; fill:none" points="2360.08,1060.66 2360.08,1041.76 "/>
<polyline clip-path="url(#clip960)" style="stroke:#000000; stroke-linecap:round; stroke-linejoin:round; stroke-width:4; stroke-opacity:1; fill:none" points="2992.76,1060.66 2992.76,1041.76 "/>
<polyline clip-path="url(#clip960)" style="stroke:#000000; stroke-linecap:round; stroke-linejoin:round; stroke-width:4; stroke-opacity:1; fill:none" points="462.048,47.2441 462.048,66.1417 "/>
<polyline clip-path="url(#clip960)" style="stroke:#000000; stroke-linecap:round; stroke-linejoin:round; stroke-width:4; stroke-opacity:1; fill:none" points="1094.72,47.2441 1094.72,66.1417 "/>
<polyline clip-path="url(#clip960)" style="stroke:#000000; stroke-linecap:round; stroke-linejoin:round; stroke-width:4; stroke-opacity:1; fill:none" points="1727.4,47.2441 1727.4,66.1417 "/>
<polyline clip-path="url(#clip960)" style="stroke:#000000; stroke-linecap:round; stroke-linejoin:round; stroke-width:4; stroke-opacity:1; fill:none" points="2360.08,47.2441 2360.08,66.1417 "/>
<polyline clip-path="url(#clip960)" style="stroke:#000000; stroke-linecap:round; stroke-linejoin:round; stroke-width:4; stroke-opacity:1; fill:none" points="2992.76,47.2441 2992.76,66.1417 "/>
<path clip-path="url(#clip960)" d="M462.048 1096.7 Q458.436 1096.7 456.608 1100.26 Q454.802 1103.8 454.802 1110.93 Q454.802 1118.04 456.608 1121.61 Q458.436 1125.15 462.048 1125.15 Q465.682 1125.15 467.487 1121.61 Q469.316 1118.04 469.316 1110.93 Q469.316 1103.8 467.487 1100.26 Q465.682 1096.7 462.048 1096.7 M462.048 1092.99 Q467.858 1092.99 470.913 1097.6 Q473.992 1102.18 473.992 1110.93 Q473.992 1119.66 470.913 1124.27 Q467.858 1128.85 462.048 1128.85 Q456.237 1128.85 453.159 1124.27 Q450.103 1119.66 450.103 1110.93 Q450.103 1102.18 453.159 1097.6 Q456.237 1092.99 462.048 1092.99 Z" fill="#000000" fill-rule="nonzero" fill-opacity="1" /><path clip-path="url(#clip960)" d="M1085.11 1124.24 L1092.75 1124.24 L1092.75 1097.88 L1084.44 1099.55 L1084.44 1095.29 L1092.7 1093.62 L1097.38 1093.62 L1097.38 1124.24 L1105.01 1124.24 L1105.01 1128.18 L1085.11 1128.18 L1085.11 1124.24 Z" fill="#000000" fill-rule="nonzero" fill-opacity="1" /><path clip-path="url(#clip960)" d="M1722.05 1124.24 L1738.37 1124.24 L1738.37 1128.18 L1716.43 1128.18 L1716.43 1124.24 Q1719.09 1121.49 1723.67 1116.86 Q1728.28 1112.21 1729.46 1110.87 Q1731.71 1108.34 1732.59 1106.61 Q1733.49 1104.85 1733.49 1103.16 Q1733.49 1100.4 1731.55 1098.67 Q1729.62 1096.93 1726.52 1096.93 Q1724.32 1096.93 1721.87 1097.69 Q1719.44 1098.46 1716.66 1100.01 L1716.66 1095.29 Q1719.49 1094.15 1721.94 1093.57 Q1724.39 1092.99 1726.43 1092.99 Q1731.8 1092.99 1734.99 1095.68 Q1738.19 1098.37 1738.19 1102.86 Q1738.19 1104.99 1737.38 1106.91 Q1736.59 1108.8 1734.49 1111.4 Q1733.91 1112.07 1730.8 1115.29 Q1727.7 1118.48 1722.05 1124.24 Z" fill="#000000" fill-rule="nonzero" fill-opacity="1" /><path clip-path="url(#clip960)" d="M2364.33 1109.55 Q2367.68 1110.26 2369.56 1112.53 Q2371.46 1114.8 2371.46 1118.13 Q2371.46 1123.25 2367.94 1126.05 Q2364.42 1128.85 2357.94 1128.85 Q2355.76 1128.85 2353.45 1128.41 Q2351.16 1127.99 2348.7 1127.14 L2348.7 1122.62 Q2350.65 1123.76 2352.96 1124.34 Q2355.28 1124.92 2357.8 1124.92 Q2362.2 1124.92 2364.49 1123.18 Q2366.8 1121.44 2366.8 1118.13 Q2366.8 1115.08 2364.65 1113.37 Q2362.52 1111.63 2358.7 1111.63 L2354.67 1111.63 L2354.67 1107.79 L2358.89 1107.79 Q2362.34 1107.79 2364.16 1106.42 Q2365.99 1105.03 2365.99 1102.44 Q2365.99 1099.78 2364.1 1098.37 Q2362.22 1096.93 2358.7 1096.93 Q2356.78 1096.93 2354.58 1097.35 Q2352.38 1097.76 2349.74 1098.64 L2349.74 1094.48 Q2352.41 1093.74 2354.72 1093.37 Q2357.06 1092.99 2359.12 1092.99 Q2364.44 1092.99 2367.54 1095.43 Q2370.65 1097.83 2370.65 1101.95 Q2370.65 1104.82 2369 1106.81 Q2367.36 1108.78 2364.33 1109.55 Z" fill="#000000" fill-rule="nonzero" fill-opacity="1" /><path clip-path="url(#clip960)" d="M2995.77 1097.69 L2983.96 1116.14 L2995.77 1116.14 L2995.77 1097.69 M2994.54 1093.62 L3000.42 1093.62 L3000.42 1116.14 L3005.35 1116.14 L3005.35 1120.03 L3000.42 1120.03 L3000.42 1128.18 L2995.77 1128.18 L2995.77 1120.03 L2980.16 1120.03 L2980.16 1115.52 L2994.54 1093.62 Z" fill="#000000" fill-rule="nonzero" fill-opacity="1" /><path clip-path="url(#clip960)" d="M1500.16 1169.35 L1500.16 1179.48 L1512.22 1179.48 L1512.22 1184.03 L1500.16 1184.03 L1500.16 1203.38 Q1500.16 1207.74 1501.34 1208.98 Q1502.55 1210.22 1506.21 1210.22 L1512.22 1210.22 L1512.22 1215.12 L1506.21 1215.12 Q1499.43 1215.12 1496.85 1212.61 Q1494.27 1210.06 1494.27 1203.38 L1494.27 1184.03 L1489.98 1184.03 L1489.98 1179.48 L1494.27 1179.48 L1494.27 1169.35 L1500.16 1169.35 Z" fill="#000000" fill-rule="nonzero" fill-opacity="1" /><path clip-path="url(#clip960)" d="M1519.93 1179.48 L1525.78 1179.48 L1525.78 1215.12 L1519.93 1215.12 L1519.93 1179.48 M1519.93 1165.6 L1525.78 1165.6 L1525.78 1173.01 L1519.93 1173.01 L1519.93 1165.6 Z" fill="#000000" fill-rule="nonzero" fill-opacity="1" /><path clip-path="url(#clip960)" d="M1565.79 1186.32 Q1567.99 1182.37 1571.04 1180.49 Q1574.1 1178.62 1578.24 1178.62 Q1583.81 1178.62 1586.83 1182.53 Q1589.85 1186.41 1589.85 1193.61 L1589.85 1215.12 L1583.97 1215.12 L1583.97 1193.8 Q1583.97 1188.67 1582.15 1186.19 Q1580.34 1183.71 1576.61 1183.71 Q1572.06 1183.71 1569.42 1186.73 Q1566.78 1189.76 1566.78 1194.98 L1566.78 1215.12 L1560.89 1215.12 L1560.89 1193.8 Q1560.89 1188.64 1559.08 1186.19 Q1557.26 1183.71 1553.47 1183.71 Q1548.99 1183.71 1546.35 1186.76 Q1543.7 1189.79 1543.7 1194.98 L1543.7 1215.12 L1537.82 1215.12 L1537.82 1179.48 L1543.7 1179.48 L1543.7 1185.01 Q1545.71 1181.74 1548.51 1180.18 Q1551.31 1178.62 1555.16 1178.62 Q1559.04 1178.62 1561.75 1180.59 Q1564.49 1182.56 1565.79 1186.32 Z" fill="#000000" fill-rule="nonzero" fill-opacity="1" /><path clip-path="url(#clip960)" d="M1632.03 1195.84 L1632.03 1198.7 L1605.1 1198.7 Q1605.48 1204.75 1608.73 1207.93 Q1612.01 1211.08 1617.83 1211.08 Q1621.21 1211.08 1624.36 1210.25 Q1627.54 1209.43 1630.66 1207.77 L1630.66 1213.31 Q1627.51 1214.65 1624.2 1215.35 Q1620.89 1216.05 1617.48 1216.05 Q1608.95 1216.05 1603.95 1211.08 Q1598.99 1206.12 1598.99 1197.65 Q1598.99 1188.9 1603.7 1183.77 Q1608.44 1178.62 1616.46 1178.62 Q1623.66 1178.62 1627.83 1183.26 Q1632.03 1187.88 1632.03 1195.84 M1626.17 1194.12 Q1626.11 1189.31 1623.47 1186.45 Q1620.86 1183.58 1616.53 1183.58 Q1611.63 1183.58 1608.67 1186.35 Q1605.74 1189.12 1605.29 1194.15 L1626.17 1194.12 Z" fill="#000000" fill-rule="nonzero" fill-opacity="1" /><path clip-path="url(#clip960)" d="M1662.36 1179.48 L1668.22 1179.48 L1668.22 1215.12 L1662.36 1215.12 L1662.36 1179.48 M1662.36 1165.6 L1668.22 1165.6 L1668.22 1173.01 L1662.36 1173.01 L1662.36 1165.6 Z" fill="#000000" fill-rule="nonzero" fill-opacity="1" /><path clip-path="url(#clip960)" d="M1710.1 1193.61 L1710.1 1215.12 L1704.25 1215.12 L1704.25 1193.8 Q1704.25 1188.74 1702.27 1186.22 Q1700.3 1183.71 1696.35 1183.71 Q1691.61 1183.71 1688.87 1186.73 Q1686.14 1189.76 1686.14 1194.98 L1686.14 1215.12 L1680.25 1215.12 L1680.25 1179.48 L1686.14 1179.48 L1686.14 1185.01 Q1688.24 1181.8 1691.07 1180.21 Q1693.93 1178.62 1697.66 1178.62 Q1703.8 1178.62 1706.95 1182.44 Q1710.1 1186.22 1710.1 1193.61 Z" fill="#000000" fill-rule="nonzero" fill-opacity="1" /><path clip-path="url(#clip960)" d="M1748.3 1169.35 L1748.3 1179.48 L1760.36 1179.48 L1760.36 1184.03 L1748.3 1184.03 L1748.3 1203.38 Q1748.3 1207.74 1749.47 1208.98 Q1750.68 1210.22 1754.34 1210.22 L1760.36 1210.22 L1760.36 1215.12 L1754.34 1215.12 Q1747.57 1215.12 1744.99 1212.61 Q1742.41 1210.06 1742.41 1203.38 L1742.41 1184.03 L1738.11 1184.03 L1738.11 1179.48 L1742.41 1179.48 L1742.41 1169.35 L1748.3 1169.35 Z" fill="#000000" fill-rule="nonzero" fill-opacity="1" /><path clip-path="url(#clip960)" d="M1788.72 1184.95 Q1787.73 1184.38 1786.56 1184.12 Q1785.41 1183.84 1784.01 1183.84 Q1779.04 1183.84 1776.37 1187.08 Q1773.73 1190.3 1773.73 1196.35 L1773.73 1215.12 L1767.84 1215.12 L1767.84 1179.48 L1773.73 1179.48 L1773.73 1185.01 Q1775.57 1181.77 1778.53 1180.21 Q1781.49 1178.62 1785.73 1178.62 Q1786.33 1178.62 1787.06 1178.71 Q1787.8 1178.78 1788.69 1178.93 L1788.72 1184.95 Z" fill="#000000" fill-rule="nonzero" fill-opacity="1" /><path clip-path="url(#clip960)" d="M1794.86 1179.48 L1800.72 1179.48 L1800.72 1215.12 L1794.86 1215.12 L1794.86 1179.48 M1794.86 1165.6 L1800.72 1165.6 L1800.72 1173.01 L1794.86 1173.01 L1794.86 1165.6 Z" fill="#000000" fill-rule="nonzero" fill-opacity="1" /><path clip-path="url(#clip960)" d="M1829.17 1197.2 Q1822.08 1197.2 1819.34 1198.83 Q1816.6 1200.45 1816.6 1204.37 Q1816.6 1207.48 1818.64 1209.33 Q1820.71 1211.15 1824.24 1211.15 Q1829.11 1211.15 1832.04 1207.71 Q1835 1204.24 1835 1198.51 L1835 1197.2 L1829.17 1197.2 M1840.85 1194.79 L1840.85 1215.12 L1835 1215.12 L1835 1209.71 Q1832.99 1212.96 1830 1214.52 Q1827.01 1216.05 1822.68 1216.05 Q1817.21 1216.05 1813.96 1212.99 Q1810.74 1209.9 1810.74 1204.75 Q1810.74 1198.73 1814.76 1195.68 Q1818.8 1192.62 1826.79 1192.62 L1835 1192.62 L1835 1192.05 Q1835 1188.01 1832.32 1185.81 Q1829.68 1183.58 1824.88 1183.58 Q1821.82 1183.58 1818.92 1184.31 Q1816.03 1185.05 1813.35 1186.51 L1813.35 1181.1 Q1816.57 1179.86 1819.59 1179.25 Q1822.62 1178.62 1825.48 1178.62 Q1833.22 1178.62 1837.04 1182.63 Q1840.85 1186.64 1840.85 1194.79 Z" fill="#000000" fill-rule="nonzero" fill-opacity="1" /><path clip-path="url(#clip960)" d="M1852.92 1165.6 L1858.77 1165.6 L1858.77 1215.12 L1852.92 1215.12 L1852.92 1165.6 Z" fill="#000000" fill-rule="nonzero" fill-opacity="1" /><path clip-path="url(#clip960)" d="M1905.82 1165.66 Q1901.55 1172.98 1899.48 1180.14 Q1897.41 1187.31 1897.41 1194.66 Q1897.41 1202.01 1899.48 1209.24 Q1901.58 1216.43 1905.82 1223.72 L1900.72 1223.72 Q1895.95 1216.24 1893.56 1209.01 Q1891.21 1201.79 1891.21 1194.66 Q1891.21 1187.56 1893.56 1180.37 Q1895.92 1173.17 1900.72 1165.66 L1905.82 1165.66 Z" fill="#000000" fill-rule="nonzero" fill-opacity="1" /><path clip-path="url(#clip960)" d="M1939.9 1180.53 L1939.9 1186.06 Q1937.42 1184.79 1934.75 1184.15 Q1932.08 1183.52 1929.21 1183.52 Q1924.85 1183.52 1922.65 1184.85 Q1920.49 1186.19 1920.49 1188.87 Q1920.49 1190.9 1922.05 1192.08 Q1923.61 1193.23 1928.32 1194.28 L1930.32 1194.72 Q1936.56 1196.06 1939.17 1198.51 Q1941.81 1200.93 1941.81 1205.29 Q1941.81 1210.25 1937.87 1213.15 Q1933.95 1216.05 1927.08 1216.05 Q1924.21 1216.05 1921.09 1215.47 Q1918.01 1214.93 1914.57 1213.82 L1914.57 1207.77 Q1917.82 1209.46 1920.97 1210.32 Q1924.12 1211.15 1927.21 1211.15 Q1931.34 1211.15 1933.57 1209.74 Q1935.8 1208.31 1935.8 1205.73 Q1935.8 1203.35 1934.18 1202.07 Q1932.58 1200.8 1927.14 1199.62 L1925.1 1199.15 Q1919.66 1198 1917.24 1195.64 Q1914.82 1193.26 1914.82 1189.12 Q1914.82 1184.09 1918.39 1181.35 Q1921.95 1178.62 1928.51 1178.62 Q1931.76 1178.62 1934.62 1179.09 Q1937.49 1179.57 1939.9 1180.53 Z" fill="#000000" fill-rule="nonzero" fill-opacity="1" /><path clip-path="url(#clip960)" d="M1950.22 1165.66 L1955.31 1165.66 Q1960.08 1173.17 1962.44 1180.37 Q1964.83 1187.56 1964.83 1194.66 Q1964.83 1201.79 1962.44 1209.01 Q1960.08 1216.24 1955.31 1223.72 L1950.22 1223.72 Q1954.45 1216.43 1956.52 1209.24 Q1958.62 1202.01 1958.62 1194.66 Q1958.62 1187.31 1956.52 1180.14 Q1954.45 1172.98 1950.22 1165.66 Z" fill="#000000" fill-rule="nonzero" fill-opacity="1" /><polyline clip-path="url(#clip960)" style="stroke:#000000; stroke-linecap:round; stroke-linejoin:round; stroke-width:4; stroke-opacity:1; fill:none" points="462.048,1060.66 462.048,47.2441 "/>
<polyline clip-path="url(#clip960)" style="stroke:#000000; stroke-linecap:round; stroke-linejoin:round; stroke-width:4; stroke-opacity:1; fill:none" points="2992.76,1060.66 2992.76,47.2441 "/>
<polyline clip-path="url(#clip960)" style="stroke:#000000; stroke-linecap:round; stroke-linejoin:round; stroke-width:4; stroke-opacity:1; fill:none" points="462.048,959.318 480.945,959.318 "/>
<polyline clip-path="url(#clip960)" style="stroke:#000000; stroke-linecap:round; stroke-linejoin:round; stroke-width:4; stroke-opacity:1; fill:none" points="462.048,756.635 480.945,756.635 "/>
<polyline clip-path="url(#clip960)" style="stroke:#000000; stroke-linecap:round; stroke-linejoin:round; stroke-width:4; stroke-opacity:1; fill:none" points="462.048,553.952 480.945,553.952 "/>
<polyline clip-path="url(#clip960)" style="stroke:#000000; stroke-linecap:round; stroke-linejoin:round; stroke-width:4; stroke-opacity:1; fill:none" points="462.048,351.269 480.945,351.269 "/>
<polyline clip-path="url(#clip960)" style="stroke:#000000; stroke-linecap:round; stroke-linejoin:round; stroke-width:4; stroke-opacity:1; fill:none" points="462.048,148.586 480.945,148.586 "/>
<polyline clip-path="url(#clip960)" style="stroke:#000000; stroke-linecap:round; stroke-linejoin:round; stroke-width:4; stroke-opacity:1; fill:none" points="2992.76,959.318 2973.86,959.318 "/>
<polyline clip-path="url(#clip960)" style="stroke:#000000; stroke-linecap:round; stroke-linejoin:round; stroke-width:4; stroke-opacity:1; fill:none" points="2992.76,756.635 2973.86,756.635 "/>
<polyline clip-path="url(#clip960)" style="stroke:#000000; stroke-linecap:round; stroke-linejoin:round; stroke-width:4; stroke-opacity:1; fill:none" points="2992.76,553.952 2973.86,553.952 "/>
<polyline clip-path="url(#clip960)" style="stroke:#000000; stroke-linecap:round; stroke-linejoin:round; stroke-width:4; stroke-opacity:1; fill:none" points="2992.76,351.269 2973.86,351.269 "/>
<polyline clip-path="url(#clip960)" style="stroke:#000000; stroke-linecap:round; stroke-linejoin:round; stroke-width:4; stroke-opacity:1; fill:none" points="2992.76,148.586 2973.86,148.586 "/>
<path clip-path="url(#clip960)" d="M66.7041 954.608 L66.7041 940.58 L70.9633 940.58 L70.9633 976.598 L66.7041 976.598 L66.7041 972.709 Q65.3615 975.024 63.3013 976.158 Q61.2643 977.27 58.3939 977.27 Q53.6949 977.27 50.7319 973.52 Q47.7921 969.77 47.7921 963.659 Q47.7921 957.547 50.7319 953.797 Q53.6949 950.047 58.3939 950.047 Q61.2643 950.047 63.3013 951.182 Q65.3615 952.293 66.7041 954.608 M52.1903 963.659 Q52.1903 968.358 54.1115 971.043 Q56.056 973.705 59.4356 973.705 Q62.8152 973.705 64.7596 971.043 Q66.7041 968.358 66.7041 963.659 Q66.7041 958.959 64.7596 956.297 Q62.8152 953.612 59.4356 953.612 Q56.056 953.612 54.1115 956.297 Q52.1903 958.959 52.1903 963.659 Z" fill="#000000" fill-rule="nonzero" fill-opacity="1" /><path clip-path="url(#clip960)" d="M101.912 962.571 L101.912 964.654 L82.329 964.654 Q82.6068 969.052 84.9679 971.367 Q87.3521 973.658 91.5882 973.658 Q94.0419 973.658 96.3335 973.057 Q98.6483 972.455 100.917 971.251 L100.917 975.279 Q98.6252 976.251 96.2178 976.76 Q93.8104 977.27 91.3336 977.27 Q85.1299 977.27 81.4956 973.658 Q77.8846 970.047 77.8846 963.89 Q77.8846 957.524 81.3105 953.797 Q84.7595 950.047 90.5928 950.047 Q95.8243 950.047 98.8567 953.427 Q101.912 956.784 101.912 962.571 M97.653 961.321 Q97.6067 957.825 95.6854 955.742 Q93.7872 953.659 90.6391 953.659 Q87.0743 953.659 84.9216 955.672 Q82.7919 957.686 82.4679 961.344 L97.653 961.321 Z" fill="#000000" fill-rule="nonzero" fill-opacity="1" /><path clip-path="url(#clip960)" d="M127.56 951.668 L127.56 955.649 Q125.755 954.654 123.926 954.168 Q122.12 953.659 120.269 953.659 Q116.125 953.659 113.833 956.297 Q111.542 958.913 111.542 963.659 Q111.542 968.404 113.833 971.043 Q116.125 973.658 120.269 973.658 Q122.12 973.658 123.926 973.172 Q125.755 972.663 127.56 971.668 L127.56 975.603 Q125.778 976.436 123.857 976.853 Q121.958 977.27 119.806 977.27 Q113.949 977.27 110.5 973.589 Q107.051 969.908 107.051 963.659 Q107.051 957.316 110.523 953.682 Q114.019 950.047 120.083 950.047 Q122.051 950.047 123.926 950.464 Q125.801 950.858 127.56 951.668 Z" fill="#000000" fill-rule="nonzero" fill-opacity="1" /><path clip-path="url(#clip960)" d="M134.968 950.672 L139.227 950.672 L139.227 976.598 L134.968 976.598 L134.968 950.672 M134.968 940.58 L139.227 940.58 L139.227 945.973 L134.968 945.973 L134.968 940.58 Z" fill="#000000" fill-rule="nonzero" fill-opacity="1" /><path clip-path="url(#clip960)" d="M164.666 951.436 L164.666 955.464 Q162.861 954.538 160.917 954.075 Q158.972 953.612 156.889 953.612 Q153.717 953.612 152.12 954.584 Q150.546 955.557 150.546 957.501 Q150.546 958.983 151.68 959.839 Q152.815 960.672 156.241 961.436 L157.699 961.76 Q162.236 962.733 164.134 964.515 Q166.055 966.274 166.055 969.446 Q166.055 973.057 163.185 975.163 Q160.338 977.27 155.338 977.27 Q153.255 977.27 150.986 976.853 Q148.741 976.459 146.241 975.649 L146.241 971.251 Q148.602 972.478 150.893 973.103 Q153.185 973.705 155.43 973.705 Q158.44 973.705 160.06 972.686 Q161.68 971.645 161.68 969.77 Q161.68 968.033 160.5 967.108 Q159.342 966.182 155.384 965.325 L153.903 964.978 Q149.944 964.145 148.185 962.432 Q146.426 960.696 146.426 957.686 Q146.426 954.029 149.018 952.038 Q151.611 950.047 156.38 950.047 Q158.741 950.047 160.824 950.395 Q162.907 950.742 164.666 951.436 Z" fill="#000000" fill-rule="nonzero" fill-opacity="1" /><path clip-path="url(#clip960)" d="M172.838 950.672 L177.097 950.672 L177.097 976.598 L172.838 976.598 L172.838 950.672 M172.838 940.58 L177.097 940.58 L177.097 945.973 L172.838 945.973 L172.838 940.58 Z" fill="#000000" fill-rule="nonzero" fill-opacity="1" /><path clip-path="url(#clip960)" d="M196.055 953.659 Q192.629 953.659 190.639 956.344 Q188.648 959.006 188.648 963.659 Q188.648 968.311 190.615 970.996 Q192.606 973.658 196.055 973.658 Q199.458 973.658 201.449 970.973 Q203.439 968.288 203.439 963.659 Q203.439 959.052 201.449 956.367 Q199.458 953.659 196.055 953.659 M196.055 950.047 Q201.611 950.047 204.782 953.659 Q207.953 957.27 207.953 963.659 Q207.953 970.024 204.782 973.658 Q201.611 977.27 196.055 977.27 Q190.477 977.27 187.305 973.658 Q184.157 970.024 184.157 963.659 Q184.157 957.27 187.305 953.659 Q190.477 950.047 196.055 950.047 Z" fill="#000000" fill-rule="nonzero" fill-opacity="1" /><path clip-path="url(#clip960)" d="M236.564 960.95 L236.564 976.598 L232.305 976.598 L232.305 961.089 Q232.305 957.409 230.87 955.58 Q229.435 953.751 226.564 953.751 Q223.115 953.751 221.125 955.95 Q219.134 958.149 219.134 961.946 L219.134 976.598 L214.851 976.598 L214.851 950.672 L219.134 950.672 L219.134 954.7 Q220.662 952.362 222.722 951.205 Q224.805 950.047 227.513 950.047 Q231.981 950.047 234.273 952.825 Q236.564 955.58 236.564 960.95 Z" fill="#000000" fill-rule="nonzero" fill-opacity="1" /><path clip-path="url(#clip960)" d="M252.629 942.038 L256.564 942.038 L244.527 980.996 L240.592 980.996 L252.629 942.038 Z" fill="#000000" fill-rule="nonzero" fill-opacity="1" /><path clip-path="url(#clip960)" d="M276.055 954.654 Q275.337 954.237 274.481 954.052 Q273.647 953.844 272.629 953.844 Q269.018 953.844 267.073 956.205 Q265.152 958.543 265.152 962.941 L265.152 976.598 L260.87 976.598 L260.87 950.672 L265.152 950.672 L265.152 954.7 Q266.495 952.339 268.647 951.205 Q270.8 950.047 273.879 950.047 Q274.319 950.047 274.851 950.117 Q275.383 950.163 276.032 950.279 L276.055 954.654 Z" fill="#000000" fill-rule="nonzero" fill-opacity="1" /><path clip-path="url(#clip960)" d="M301.657 962.571 L301.657 964.654 L282.073 964.654 Q282.351 969.052 284.712 971.367 Q287.096 973.658 291.332 973.658 Q293.786 973.658 296.078 973.057 Q298.393 972.455 300.661 971.251 L300.661 975.279 Q298.369 976.251 295.962 976.76 Q293.555 977.27 291.078 977.27 Q284.874 977.27 281.24 973.658 Q277.629 970.047 277.629 963.89 Q277.629 957.524 281.055 953.797 Q284.504 950.047 290.337 950.047 Q295.569 950.047 298.601 953.427 Q301.657 956.784 301.657 962.571 M297.397 961.321 Q297.351 957.825 295.43 955.742 Q293.532 953.659 290.383 953.659 Q286.819 953.659 284.666 955.672 Q282.536 957.686 282.212 961.344 L297.397 961.321 Z" fill="#000000" fill-rule="nonzero" fill-opacity="1" /><path clip-path="url(#clip960)" d="M306.17 950.672 L310.43 950.672 L315.754 970.904 L321.055 950.672 L326.078 950.672 L331.402 970.904 L336.703 950.672 L340.962 950.672 L334.179 976.598 L329.156 976.598 L323.578 955.348 L317.976 976.598 L312.953 976.598 L306.17 950.672 Z" fill="#000000" fill-rule="nonzero" fill-opacity="1" /><path clip-path="url(#clip960)" d="M359.202 963.566 Q354.04 963.566 352.05 964.746 Q350.059 965.927 350.059 968.774 Q350.059 971.043 351.54 972.385 Q353.045 973.705 355.615 973.705 Q359.156 973.705 361.286 971.205 Q363.439 968.682 363.439 964.515 L363.439 963.566 L359.202 963.566 M367.698 961.807 L367.698 976.598 L363.439 976.598 L363.439 972.663 Q361.98 975.024 359.804 976.158 Q357.628 977.27 354.48 977.27 Q350.499 977.27 348.138 975.047 Q345.8 972.802 345.8 969.052 Q345.8 964.677 348.716 962.455 Q351.656 960.233 357.466 960.233 L363.439 960.233 L363.439 959.816 Q363.439 956.876 361.494 955.279 Q359.573 953.659 356.078 953.659 Q353.855 953.659 351.749 954.191 Q349.642 954.723 347.698 955.788 L347.698 951.853 Q350.036 950.95 352.235 950.51 Q354.434 950.047 356.517 950.047 Q362.142 950.047 364.92 952.964 Q367.698 955.881 367.698 961.807 Z" fill="#000000" fill-rule="nonzero" fill-opacity="1" /><path clip-path="url(#clip960)" d="M391.494 954.654 Q390.776 954.237 389.92 954.052 Q389.087 953.844 388.068 953.844 Q384.457 953.844 382.513 956.205 Q380.591 958.543 380.591 962.941 L380.591 976.598 L376.309 976.598 L376.309 950.672 L380.591 950.672 L380.591 954.7 Q381.934 952.339 384.087 951.205 Q386.239 950.047 389.318 950.047 Q389.758 950.047 390.29 950.117 Q390.823 950.163 391.471 950.279 L391.494 954.654 Z" fill="#000000" fill-rule="nonzero" fill-opacity="1" /><path clip-path="url(#clip960)" d="M412.188 954.608 L412.188 940.58 L416.448 940.58 L416.448 976.598 L412.188 976.598 L412.188 972.709 Q410.846 975.024 408.786 976.158 Q406.749 977.27 403.878 977.27 Q399.179 977.27 396.216 973.52 Q393.276 969.77 393.276 963.659 Q393.276 957.547 396.216 953.797 Q399.179 950.047 403.878 950.047 Q406.749 950.047 408.786 951.182 Q410.846 952.293 412.188 954.608 M397.675 963.659 Q397.675 968.358 399.596 971.043 Q401.54 973.705 404.92 973.705 Q408.299 973.705 410.244 971.043 Q412.188 968.358 412.188 963.659 Q412.188 958.959 410.244 956.297 Q408.299 953.612 404.92 953.612 Q401.54 953.612 399.596 956.297 Q397.675 958.959 397.675 963.659 Z" fill="#000000" fill-rule="nonzero" fill-opacity="1" /><path clip-path="url(#clip960)" d="M219.435 737.897 L223.694 737.897 L223.694 773.915 L219.435 773.915 L219.435 737.897 Z" fill="#000000" fill-rule="nonzero" fill-opacity="1" /><path clip-path="url(#clip960)" d="M254.782 759.887 L254.782 761.971 L235.199 761.971 Q235.476 766.369 237.837 768.684 Q240.222 770.975 244.458 770.975 Q246.911 770.975 249.203 770.373 Q251.518 769.772 253.786 768.568 L253.786 772.596 Q251.495 773.568 249.087 774.077 Q246.68 774.586 244.203 774.586 Q237.999 774.586 234.365 770.975 Q230.754 767.364 230.754 761.207 Q230.754 754.841 234.18 751.114 Q237.629 747.364 243.462 747.364 Q248.694 747.364 251.726 750.744 Q254.782 754.1 254.782 759.887 M250.523 758.637 Q250.476 755.142 248.555 753.059 Q246.657 750.975 243.509 750.975 Q239.944 750.975 237.791 752.989 Q235.661 755.003 235.337 758.661 L250.523 758.637 Z" fill="#000000" fill-rule="nonzero" fill-opacity="1" /><path clip-path="url(#clip960)" d="M274.897 737.897 L274.897 741.438 L270.823 741.438 Q268.532 741.438 267.629 742.364 Q266.749 743.29 266.749 745.698 L266.749 747.989 L273.763 747.989 L273.763 751.299 L266.749 751.299 L266.749 773.915 L262.467 773.915 L262.467 751.299 L258.393 751.299 L258.393 747.989 L262.467 747.989 L262.467 746.184 Q262.467 741.855 264.481 739.888 Q266.495 737.897 270.87 737.897 L274.897 737.897 Z" fill="#000000" fill-rule="nonzero" fill-opacity="1" /><path clip-path="url(#clip960)" d="M281.842 740.628 L281.842 747.989 L290.615 747.989 L290.615 751.299 L281.842 751.299 L281.842 765.373 Q281.842 768.545 282.698 769.448 Q283.578 770.35 286.24 770.35 L290.615 770.35 L290.615 773.915 L286.24 773.915 Q281.309 773.915 279.434 772.086 Q277.559 770.235 277.559 765.373 L277.559 751.299 L274.434 751.299 L274.434 747.989 L277.559 747.989 L277.559 740.628 L281.842 740.628 Z" fill="#000000" fill-rule="nonzero" fill-opacity="1" /><path clip-path="url(#clip960)" d="M324.411 737.897 L324.411 741.438 L320.337 741.438 Q318.045 741.438 317.143 742.364 Q316.263 743.29 316.263 745.698 L316.263 747.989 L323.277 747.989 L323.277 751.299 L316.263 751.299 L316.263 773.915 L311.981 773.915 L311.981 751.299 L307.906 751.299 L307.906 747.989 L311.981 747.989 L311.981 746.184 Q311.981 741.855 313.994 739.888 Q316.008 737.897 320.383 737.897 L324.411 737.897 Z" fill="#000000" fill-rule="nonzero" fill-opacity="1" /><path clip-path="url(#clip960)" d="M327.976 737.897 L332.235 737.897 L332.235 773.915 L327.976 773.915 L327.976 737.897 Z" fill="#000000" fill-rule="nonzero" fill-opacity="1" /><path clip-path="url(#clip960)" d="M352.929 760.883 Q347.767 760.883 345.777 762.063 Q343.786 763.244 343.786 766.091 Q343.786 768.36 345.267 769.702 Q346.772 771.022 349.341 771.022 Q352.883 771.022 355.013 768.522 Q357.165 765.998 357.165 761.832 L357.165 760.883 L352.929 760.883 M361.425 759.124 L361.425 773.915 L357.165 773.915 L357.165 769.98 Q355.707 772.341 353.531 773.475 Q351.355 774.586 348.207 774.586 Q344.226 774.586 341.865 772.364 Q339.527 770.119 339.527 766.369 Q339.527 761.994 342.443 759.772 Q345.383 757.549 351.193 757.549 L357.165 757.549 L357.165 757.133 Q357.165 754.193 355.221 752.596 Q353.3 750.975 349.804 750.975 Q347.582 750.975 345.476 751.508 Q343.369 752.04 341.425 753.105 L341.425 749.17 Q343.763 748.267 345.962 747.827 Q348.161 747.364 350.244 747.364 Q355.869 747.364 358.647 750.281 Q361.425 753.198 361.425 759.124 Z" fill="#000000" fill-rule="nonzero" fill-opacity="1" /><path clip-path="url(#clip960)" d="M386.725 748.753 L386.725 752.781 Q384.92 751.855 382.976 751.392 Q381.031 750.929 378.948 750.929 Q375.776 750.929 374.179 751.901 Q372.605 752.874 372.605 754.818 Q372.605 756.299 373.739 757.156 Q374.874 757.989 378.3 758.753 L379.758 759.077 Q384.295 760.049 386.193 761.832 Q388.114 763.591 388.114 766.762 Q388.114 770.373 385.244 772.48 Q382.397 774.586 377.397 774.586 Q375.314 774.586 373.045 774.17 Q370.8 773.776 368.3 772.966 L368.3 768.568 Q370.661 769.795 372.952 770.42 Q375.244 771.022 377.489 771.022 Q380.499 771.022 382.119 770.003 Q383.739 768.961 383.739 767.086 Q383.739 765.35 382.559 764.424 Q381.401 763.499 377.443 762.642 L375.962 762.295 Q372.003 761.461 370.244 759.749 Q368.485 758.012 368.485 755.003 Q368.485 751.346 371.077 749.355 Q373.67 747.364 378.439 747.364 Q380.8 747.364 382.883 747.712 Q384.966 748.059 386.725 748.753 Z" fill="#000000" fill-rule="nonzero" fill-opacity="1" /><path clip-path="url(#clip960)" d="M416.448 758.267 L416.448 773.915 L412.188 773.915 L412.188 758.406 Q412.188 754.725 410.753 752.897 Q409.318 751.068 406.448 751.068 Q402.999 751.068 401.008 753.267 Q399.017 755.466 399.017 759.262 L399.017 773.915 L394.735 773.915 L394.735 737.897 L399.017 737.897 L399.017 752.017 Q400.545 749.679 402.605 748.522 Q404.688 747.364 407.397 747.364 Q411.864 747.364 414.156 750.142 Q416.448 752.897 416.448 758.267 Z" fill="#000000" fill-rule="nonzero" fill-opacity="1" /><path clip-path="url(#clip960)" d="M199.851 549.288 Q199.134 548.871 198.277 548.686 Q197.444 548.477 196.426 548.477 Q192.814 548.477 190.87 550.839 Q188.949 553.177 188.949 557.575 L188.949 571.232 L184.666 571.232 L184.666 545.306 L188.949 545.306 L188.949 549.334 Q190.291 546.973 192.444 545.839 Q194.597 544.681 197.676 544.681 Q198.115 544.681 198.648 544.751 Q199.18 544.797 199.828 544.913 L199.851 549.288 Z" fill="#000000" fill-rule="nonzero" fill-opacity="1" /><path clip-path="url(#clip960)" d="M204.319 545.306 L208.578 545.306 L208.578 571.232 L204.319 571.232 L204.319 545.306 M204.319 535.214 L208.578 535.214 L208.578 540.607 L204.319 540.607 L204.319 535.214 Z" fill="#000000" fill-rule="nonzero" fill-opacity="1" /><path clip-path="url(#clip960)" d="M234.55 557.968 Q234.55 553.339 232.629 550.792 Q230.731 548.246 227.282 548.246 Q223.856 548.246 221.935 550.792 Q220.037 553.339 220.037 557.968 Q220.037 562.575 221.935 565.121 Q223.856 567.667 227.282 567.667 Q230.731 567.667 232.629 565.121 Q234.55 562.575 234.55 557.968 M238.81 568.014 Q238.81 574.635 235.87 577.852 Q232.93 581.093 226.865 581.093 Q224.62 581.093 222.629 580.746 Q220.638 580.422 218.763 579.727 L218.763 575.584 Q220.638 576.602 222.467 577.088 Q224.296 577.575 226.194 577.575 Q230.384 577.575 232.467 575.375 Q234.55 573.2 234.55 568.778 L234.55 566.672 Q233.231 568.963 231.171 570.098 Q229.111 571.232 226.24 571.232 Q221.472 571.232 218.555 567.598 Q215.638 563.963 215.638 557.968 Q215.638 551.95 218.555 548.315 Q221.472 544.681 226.24 544.681 Q229.111 544.681 231.171 545.815 Q233.231 546.95 234.55 549.241 L234.55 545.306 L238.81 545.306 L238.81 568.014 Z" fill="#000000" fill-rule="nonzero" fill-opacity="1" /><path clip-path="url(#clip960)" d="M269.134 555.584 L269.134 571.232 L264.874 571.232 L264.874 555.723 Q264.874 552.042 263.439 550.214 Q262.004 548.385 259.134 548.385 Q255.685 548.385 253.694 550.584 Q251.703 552.783 251.703 556.579 L251.703 571.232 L247.421 571.232 L247.421 535.214 L251.703 535.214 L251.703 549.334 Q253.231 546.996 255.291 545.839 Q257.374 544.681 260.083 544.681 Q264.55 544.681 266.842 547.459 Q269.134 550.214 269.134 555.584 Z" fill="#000000" fill-rule="nonzero" fill-opacity="1" /><path clip-path="url(#clip960)" d="M281.842 537.945 L281.842 545.306 L290.615 545.306 L290.615 548.616 L281.842 548.616 L281.842 562.69 Q281.842 565.862 282.698 566.764 Q283.578 567.667 286.24 567.667 L290.615 567.667 L290.615 571.232 L286.24 571.232 Q281.309 571.232 279.434 569.403 Q277.559 567.551 277.559 562.69 L277.559 548.616 L274.434 548.616 L274.434 545.306 L277.559 545.306 L277.559 537.945 L281.842 537.945 Z" fill="#000000" fill-rule="nonzero" fill-opacity="1" /><path clip-path="url(#clip960)" d="M324.411 535.214 L324.411 538.755 L320.337 538.755 Q318.045 538.755 317.143 539.681 Q316.263 540.607 316.263 543.015 L316.263 545.306 L323.277 545.306 L323.277 548.616 L316.263 548.616 L316.263 571.232 L311.981 571.232 L311.981 548.616 L307.906 548.616 L307.906 545.306 L311.981 545.306 L311.981 543.501 Q311.981 539.172 313.994 537.204 Q316.008 535.214 320.383 535.214 L324.411 535.214 Z" fill="#000000" fill-rule="nonzero" fill-opacity="1" /><path clip-path="url(#clip960)" d="M327.976 535.214 L332.235 535.214 L332.235 571.232 L327.976 571.232 L327.976 535.214 Z" fill="#000000" fill-rule="nonzero" fill-opacity="1" /><path clip-path="url(#clip960)" d="M352.929 558.2 Q347.767 558.2 345.777 559.38 Q343.786 560.561 343.786 563.408 Q343.786 565.676 345.267 567.019 Q346.772 568.338 349.341 568.338 Q352.883 568.338 355.013 565.838 Q357.165 563.315 357.165 559.149 L357.165 558.2 L352.929 558.2 M361.425 556.44 L361.425 571.232 L357.165 571.232 L357.165 567.297 Q355.707 569.658 353.531 570.792 Q351.355 571.903 348.207 571.903 Q344.226 571.903 341.865 569.681 Q339.527 567.436 339.527 563.686 Q339.527 559.311 342.443 557.089 Q345.383 554.866 351.193 554.866 L357.165 554.866 L357.165 554.45 Q357.165 551.51 355.221 549.913 Q353.3 548.292 349.804 548.292 Q347.582 548.292 345.476 548.825 Q343.369 549.357 341.425 550.422 L341.425 546.487 Q343.763 545.584 345.962 545.144 Q348.161 544.681 350.244 544.681 Q355.869 544.681 358.647 547.598 Q361.425 550.514 361.425 556.44 Z" fill="#000000" fill-rule="nonzero" fill-opacity="1" /><path clip-path="url(#clip960)" d="M386.725 546.07 L386.725 550.098 Q384.92 549.172 382.976 548.709 Q381.031 548.246 378.948 548.246 Q375.776 548.246 374.179 549.218 Q372.605 550.19 372.605 552.135 Q372.605 553.616 373.739 554.473 Q374.874 555.306 378.3 556.07 L379.758 556.394 Q384.295 557.366 386.193 559.149 Q388.114 560.908 388.114 564.079 Q388.114 567.69 385.244 569.797 Q382.397 571.903 377.397 571.903 Q375.314 571.903 373.045 571.487 Q370.8 571.093 368.3 570.283 L368.3 565.885 Q370.661 567.112 372.952 567.737 Q375.244 568.338 377.489 568.338 Q380.499 568.338 382.119 567.32 Q383.739 566.278 383.739 564.403 Q383.739 562.667 382.559 561.741 Q381.401 560.815 377.443 559.959 L375.962 559.612 Q372.003 558.778 370.244 557.065 Q368.485 555.329 368.485 552.32 Q368.485 548.663 371.077 546.672 Q373.67 544.681 378.439 544.681 Q380.8 544.681 382.883 545.028 Q384.966 545.376 386.725 546.07 Z" fill="#000000" fill-rule="nonzero" fill-opacity="1" /><path clip-path="url(#clip960)" d="M416.448 555.584 L416.448 571.232 L412.188 571.232 L412.188 555.723 Q412.188 552.042 410.753 550.214 Q409.318 548.385 406.448 548.385 Q402.999 548.385 401.008 550.584 Q399.017 552.783 399.017 556.579 L399.017 571.232 L394.735 571.232 L394.735 535.214 L399.017 535.214 L399.017 549.334 Q400.545 546.996 402.605 545.839 Q404.688 544.681 407.397 544.681 Q411.864 544.681 414.156 547.459 Q416.448 550.214 416.448 555.584 Z" fill="#000000" fill-rule="nonzero" fill-opacity="1" /><path clip-path="url(#clip960)" d="M160.477 343.618 L160.477 347.6 Q158.671 346.604 156.842 346.118 Q155.037 345.609 153.185 345.609 Q149.042 345.609 146.75 348.248 Q144.458 350.864 144.458 355.609 Q144.458 360.354 146.75 362.993 Q149.042 365.609 153.185 365.609 Q155.037 365.609 156.842 365.123 Q158.671 364.614 160.477 363.618 L160.477 367.553 Q158.694 368.387 156.773 368.803 Q154.875 369.22 152.722 369.22 Q146.866 369.22 143.417 365.54 Q139.968 361.859 139.968 355.609 Q139.968 349.267 143.44 345.632 Q146.935 341.998 153 341.998 Q154.967 341.998 156.842 342.415 Q158.717 342.808 160.477 343.618 Z" fill="#000000" fill-rule="nonzero" fill-opacity="1" /><path clip-path="url(#clip960)" d="M190.06 354.521 L190.06 356.604 L170.477 356.604 Q170.754 361.003 173.116 363.317 Q175.5 365.609 179.736 365.609 Q182.19 365.609 184.481 365.007 Q186.796 364.405 189.065 363.202 L189.065 367.229 Q186.773 368.202 184.365 368.711 Q181.958 369.22 179.481 369.22 Q173.278 369.22 169.643 365.609 Q166.032 361.998 166.032 355.841 Q166.032 349.475 169.458 345.748 Q172.907 341.998 178.74 341.998 Q183.972 341.998 187.004 345.378 Q190.06 348.734 190.06 354.521 M185.801 353.271 Q185.754 349.776 183.833 347.692 Q181.935 345.609 178.787 345.609 Q175.222 345.609 173.069 347.623 Q170.94 349.637 170.616 353.294 L185.801 353.271 Z" fill="#000000" fill-rule="nonzero" fill-opacity="1" /><path clip-path="url(#clip960)" d="M218.601 352.901 L218.601 368.549 L214.342 368.549 L214.342 353.04 Q214.342 349.359 212.907 347.53 Q211.472 345.702 208.601 345.702 Q205.152 345.702 203.162 347.901 Q201.171 350.1 201.171 353.896 L201.171 368.549 L196.889 368.549 L196.889 342.623 L201.171 342.623 L201.171 346.651 Q202.699 344.313 204.759 343.155 Q206.842 341.998 209.551 341.998 Q214.018 341.998 216.31 344.776 Q218.601 347.53 218.601 352.901 Z" fill="#000000" fill-rule="nonzero" fill-opacity="1" /><path clip-path="url(#clip960)" d="M231.31 335.262 L231.31 342.623 L240.083 342.623 L240.083 345.933 L231.31 345.933 L231.31 360.007 Q231.31 363.178 232.166 364.081 Q233.046 364.984 235.708 364.984 L240.083 364.984 L240.083 368.549 L235.708 368.549 Q230.777 368.549 228.902 366.72 Q227.027 364.868 227.027 360.007 L227.027 345.933 L223.902 345.933 L223.902 342.623 L227.027 342.623 L227.027 335.262 L231.31 335.262 Z" fill="#000000" fill-rule="nonzero" fill-opacity="1" /><path clip-path="url(#clip960)" d="M267.86 354.521 L267.86 356.604 L248.277 356.604 Q248.555 361.003 250.916 363.317 Q253.3 365.609 257.536 365.609 Q259.99 365.609 262.282 365.007 Q264.597 364.405 266.865 363.202 L266.865 367.229 Q264.573 368.202 262.166 368.711 Q259.759 369.22 257.282 369.22 Q251.078 369.22 247.444 365.609 Q243.833 361.998 243.833 355.841 Q243.833 349.475 247.259 345.748 Q250.708 341.998 256.541 341.998 Q261.772 341.998 264.805 345.378 Q267.86 348.734 267.86 354.521 M263.601 353.271 Q263.555 349.776 261.634 347.692 Q259.735 345.609 256.587 345.609 Q253.023 345.609 250.87 347.623 Q248.74 349.637 248.416 353.294 L263.601 353.271 Z" fill="#000000" fill-rule="nonzero" fill-opacity="1" /><path clip-path="url(#clip960)" d="M289.874 346.604 Q289.157 346.188 288.3 346.003 Q287.467 345.794 286.448 345.794 Q282.837 345.794 280.893 348.155 Q278.971 350.493 278.971 354.891 L278.971 368.549 L274.689 368.549 L274.689 342.623 L278.971 342.623 L278.971 346.651 Q280.314 344.29 282.467 343.155 Q284.62 341.998 287.698 341.998 Q288.138 341.998 288.67 342.067 Q289.203 342.114 289.851 342.23 L289.874 346.604 Z" fill="#000000" fill-rule="nonzero" fill-opacity="1" /><path clip-path="url(#clip960)" d="M313.531 364.66 L313.531 378.41 L309.249 378.41 L309.249 342.623 L313.531 342.623 L313.531 346.558 Q314.874 344.243 316.911 343.132 Q318.971 341.998 321.818 341.998 Q326.541 341.998 329.48 345.748 Q332.443 349.498 332.443 355.609 Q332.443 361.72 329.48 365.47 Q326.541 369.22 321.818 369.22 Q318.971 369.22 316.911 368.109 Q314.874 366.975 313.531 364.66 M328.022 355.609 Q328.022 350.91 326.078 348.248 Q324.156 345.563 320.777 345.563 Q317.397 345.563 315.453 348.248 Q313.531 350.91 313.531 355.609 Q313.531 360.308 315.453 362.993 Q317.397 365.655 320.777 365.655 Q324.156 365.655 326.078 362.993 Q328.022 360.308 328.022 355.609 Z" fill="#000000" fill-rule="nonzero" fill-opacity="1" /><path clip-path="url(#clip960)" d="M349.55 345.609 Q346.124 345.609 344.133 348.294 Q342.142 350.956 342.142 355.609 Q342.142 360.262 344.11 362.947 Q346.101 365.609 349.55 365.609 Q352.953 365.609 354.943 362.924 Q356.934 360.239 356.934 355.609 Q356.934 351.003 354.943 348.317 Q352.953 345.609 349.55 345.609 M349.55 341.998 Q355.105 341.998 358.277 345.609 Q361.448 349.22 361.448 355.609 Q361.448 361.975 358.277 365.609 Q355.105 369.22 349.55 369.22 Q343.971 369.22 340.8 365.609 Q337.652 361.975 337.652 355.609 Q337.652 349.22 340.8 345.609 Q343.971 341.998 349.55 341.998 Z" fill="#000000" fill-rule="nonzero" fill-opacity="1" /><path clip-path="url(#clip960)" d="M368.346 332.53 L372.628 332.53 L372.628 353.804 L385.337 342.623 L390.776 342.623 L377.026 354.753 L391.355 368.549 L385.8 368.549 L372.628 355.887 L372.628 368.549 L368.346 368.549 L368.346 332.53 Z" fill="#000000" fill-rule="nonzero" fill-opacity="1" /><path clip-path="url(#clip960)" d="M416.448 354.521 L416.448 356.604 L396.864 356.604 Q397.142 361.003 399.503 363.317 Q401.887 365.609 406.124 365.609 Q408.577 365.609 410.869 365.007 Q413.184 364.405 415.452 363.202 L415.452 367.229 Q413.161 368.202 410.753 368.711 Q408.346 369.22 405.869 369.22 Q399.665 369.22 396.031 365.609 Q392.42 361.998 392.42 355.841 Q392.42 349.475 395.846 345.748 Q399.295 341.998 405.128 341.998 Q410.36 341.998 413.392 345.378 Q416.448 348.734 416.448 354.521 M412.188 353.271 Q412.142 349.776 410.221 347.692 Q408.323 345.609 405.174 345.609 Q401.61 345.609 399.457 347.623 Q397.327 349.637 397.003 353.294 L412.188 353.271 Z" fill="#000000" fill-rule="nonzero" fill-opacity="1" /><path clip-path="url(#clip960)" d="M168.046 140.935 L168.046 144.917 Q166.241 143.921 164.412 143.435 Q162.606 142.926 160.754 142.926 Q156.611 142.926 154.319 145.565 Q152.028 148.181 152.028 152.926 Q152.028 157.671 154.319 160.31 Q156.611 162.926 160.754 162.926 Q162.606 162.926 164.412 162.44 Q166.241 161.931 168.046 160.935 L168.046 164.87 Q166.264 165.704 164.342 166.12 Q162.444 166.537 160.292 166.537 Q154.435 166.537 150.986 162.856 Q147.537 159.176 147.537 152.926 Q147.537 146.583 151.009 142.949 Q154.505 139.315 160.569 139.315 Q162.537 139.315 164.412 139.732 Q166.287 140.125 168.046 140.935 Z" fill="#000000" fill-rule="nonzero" fill-opacity="1" /><path clip-path="url(#clip960)" d="M197.629 151.838 L197.629 153.921 L178.046 153.921 Q178.324 158.319 180.685 160.634 Q183.069 162.926 187.305 162.926 Q189.759 162.926 192.051 162.324 Q194.365 161.722 196.634 160.518 L196.634 164.546 Q194.342 165.518 191.935 166.028 Q189.527 166.537 187.051 166.537 Q180.847 166.537 177.213 162.926 Q173.602 159.315 173.602 153.157 Q173.602 146.792 177.028 143.065 Q180.477 139.315 186.31 139.315 Q191.541 139.315 194.574 142.694 Q197.629 146.051 197.629 151.838 M193.37 150.588 Q193.324 147.093 191.402 145.009 Q189.504 142.926 186.356 142.926 Q182.791 142.926 180.639 144.94 Q178.509 146.954 178.185 150.611 L193.37 150.588 Z" fill="#000000" fill-rule="nonzero" fill-opacity="1" /><path clip-path="url(#clip960)" d="M226.171 150.218 L226.171 165.866 L221.912 165.866 L221.912 150.356 Q221.912 146.676 220.476 144.847 Q219.041 143.019 216.171 143.019 Q212.722 143.019 210.731 145.218 Q208.74 147.417 208.74 151.213 L208.74 165.866 L204.458 165.866 L204.458 139.94 L208.74 139.94 L208.74 143.968 Q210.268 141.63 212.328 140.472 Q214.412 139.315 217.12 139.315 Q221.587 139.315 223.879 142.093 Q226.171 144.847 226.171 150.218 Z" fill="#000000" fill-rule="nonzero" fill-opacity="1" /><path clip-path="url(#clip960)" d="M238.879 132.579 L238.879 139.94 L247.652 139.94 L247.652 143.25 L238.879 143.25 L238.879 157.324 Q238.879 160.495 239.736 161.398 Q240.615 162.301 243.277 162.301 L247.652 162.301 L247.652 165.866 L243.277 165.866 Q238.347 165.866 236.472 164.037 Q234.597 162.185 234.597 157.324 L234.597 143.25 L231.472 143.25 L231.472 139.94 L234.597 139.94 L234.597 132.579 L238.879 132.579 Z" fill="#000000" fill-rule="nonzero" fill-opacity="1" /><path clip-path="url(#clip960)" d="M275.43 151.838 L275.43 153.921 L255.847 153.921 Q256.124 158.319 258.485 160.634 Q260.87 162.926 265.106 162.926 Q267.559 162.926 269.851 162.324 Q272.166 161.722 274.434 160.518 L274.434 164.546 Q272.143 165.518 269.735 166.028 Q267.328 166.537 264.851 166.537 Q258.647 166.537 255.013 162.926 Q251.402 159.315 251.402 153.157 Q251.402 146.792 254.828 143.065 Q258.277 139.315 264.11 139.315 Q269.342 139.315 272.374 142.694 Q275.43 146.051 275.43 151.838 M271.171 150.588 Q271.124 147.093 269.203 145.009 Q267.305 142.926 264.157 142.926 Q260.592 142.926 258.439 144.94 Q256.31 146.954 255.985 150.611 L271.171 150.588 Z" fill="#000000" fill-rule="nonzero" fill-opacity="1" /><path clip-path="url(#clip960)" d="M297.444 143.921 Q296.726 143.505 295.87 143.319 Q295.036 143.111 294.018 143.111 Q290.407 143.111 288.462 145.472 Q286.541 147.81 286.541 152.208 L286.541 165.866 L282.258 165.866 L282.258 139.94 L286.541 139.94 L286.541 143.968 Q287.883 141.607 290.036 140.472 Q292.189 139.315 295.268 139.315 Q295.707 139.315 296.24 139.384 Q296.772 139.431 297.42 139.546 L297.444 143.921 Z" fill="#000000" fill-rule="nonzero" fill-opacity="1" /><path clip-path="url(#clip960)" d="M316.98 129.847 L321.24 129.847 L321.24 165.866 L316.98 165.866 L316.98 129.847 Z" fill="#000000" fill-rule="nonzero" fill-opacity="1" /><path clip-path="url(#clip960)" d="M330.152 139.94 L334.411 139.94 L334.411 165.866 L330.152 165.866 L330.152 139.94 M330.152 129.847 L334.411 129.847 L334.411 135.241 L330.152 135.241 L330.152 129.847 Z" fill="#000000" fill-rule="nonzero" fill-opacity="1" /><path clip-path="url(#clip960)" d="M360.383 152.602 Q360.383 147.972 358.462 145.426 Q356.564 142.88 353.115 142.88 Q349.689 142.88 347.767 145.426 Q345.869 147.972 345.869 152.602 Q345.869 157.208 347.767 159.755 Q349.689 162.301 353.115 162.301 Q356.564 162.301 358.462 159.755 Q360.383 157.208 360.383 152.602 M364.642 162.648 Q364.642 169.268 361.702 172.486 Q358.763 175.727 352.698 175.727 Q350.453 175.727 348.462 175.38 Q346.471 175.055 344.596 174.361 L344.596 170.217 Q346.471 171.236 348.3 171.722 Q350.128 172.208 352.027 172.208 Q356.216 172.208 358.3 170.009 Q360.383 167.833 360.383 163.412 L360.383 161.306 Q359.064 163.597 357.003 164.731 Q354.943 165.866 352.073 165.866 Q347.304 165.866 344.388 162.231 Q341.471 158.597 341.471 152.602 Q341.471 146.583 344.388 142.949 Q347.304 139.315 352.073 139.315 Q354.943 139.315 357.003 140.449 Q359.064 141.583 360.383 143.875 L360.383 139.94 L364.642 139.94 L364.642 162.648 Z" fill="#000000" fill-rule="nonzero" fill-opacity="1" /><path clip-path="url(#clip960)" d="M394.966 150.218 L394.966 165.866 L390.707 165.866 L390.707 150.356 Q390.707 146.676 389.272 144.847 Q387.837 143.019 384.966 143.019 Q381.517 143.019 379.526 145.218 Q377.536 147.417 377.536 151.213 L377.536 165.866 L373.253 165.866 L373.253 129.847 L377.536 129.847 L377.536 143.968 Q379.063 141.63 381.124 140.472 Q383.207 139.315 385.915 139.315 Q390.383 139.315 392.675 142.093 Q394.966 144.847 394.966 150.218 Z" fill="#000000" fill-rule="nonzero" fill-opacity="1" /><path clip-path="url(#clip960)" d="M407.674 132.579 L407.674 139.94 L416.448 139.94 L416.448 143.25 L407.674 143.25 L407.674 157.324 Q407.674 160.495 408.531 161.398 Q409.411 162.301 412.073 162.301 L416.448 162.301 L416.448 165.866 L412.073 165.866 Q407.142 165.866 405.267 164.037 Q403.392 162.185 403.392 157.324 L403.392 143.25 L400.267 143.25 L400.267 139.94 L403.392 139.94 L403.392 132.579 L407.674 132.579 Z" fill="#000000" fill-rule="nonzero" fill-opacity="1" /><path clip-path="url(#clip962)" d="M841.654 1060.66 L1790.67 1060.66 L1790.67 47.2441 L841.654 47.2441 L841.654 1060.66  Z" fill="#000000" fill-rule="evenodd" fill-opacity="0.12"/>
<polyline clip-path="url(#clip962)" style="stroke:#000000; stroke-linecap:round; stroke-linejoin:round; stroke-width:4; stroke-opacity:0; fill:none" points="841.654,1060.66 1790.67,1060.66 1790.67,47.2441 841.654,47.2441 841.654,1060.66 "/>
<polyline clip-path="url(#clip962)" style="stroke:#000000; stroke-linecap:round; stroke-linejoin:round; stroke-width:4; stroke-opacity:1; fill:none" points="462.048,1060.66 462.048,47.2441 "/>
<polyline clip-path="url(#clip962)" style="stroke:#000000; stroke-linecap:round; stroke-linejoin:round; stroke-width:8; stroke-opacity:1; fill:none" points="462.048,211.417 462.048,211.417 462.048,85.7539 841.654,85.7539 841.654,211.417 2992.76,211.417 "/>
<polyline clip-path="url(#clip962)" style="stroke:#000000; stroke-linecap:round; stroke-linejoin:round; stroke-width:8; stroke-opacity:1; fill:none" points="462.048,414.101 462.048,414.101 841.654,414.101 841.654,288.437 904.922,288.437 904.922,414.101 2992.76,414.101 "/>
<polyline clip-path="url(#clip962)" style="stroke:#000000; stroke-linecap:round; stroke-linejoin:round; stroke-width:8; stroke-opacity:1; fill:none" points="841.654,622.864 841.654,485.04 "/>
<polyline clip-path="url(#clip962)" style="stroke:#000000; stroke-linecap:round; stroke-linejoin:round; stroke-width:8; stroke-opacity:1; fill:none" points="904.922,622.864 904.922,485.04 "/>
<polyline clip-path="url(#clip962)" style="stroke:#000000; stroke-linecap:round; stroke-linejoin:round; stroke-width:8; stroke-opacity:1; fill:none" points="1031.46,622.864 1031.46,485.04 "/>
<polyline clip-path="url(#clip962)" style="stroke:#000000; stroke-linecap:round; stroke-linejoin:round; stroke-width:8; stroke-opacity:1; fill:none" points="1094.72,622.864 1094.72,485.04 "/>
<polyline clip-path="url(#clip962)" style="stroke:#000000; stroke-linecap:round; stroke-linejoin:round; stroke-width:8; stroke-opacity:1; fill:none" points="1157.99,622.864 1157.99,485.04 "/>
<polyline clip-path="url(#clip962)" style="stroke:#000000; stroke-linecap:round; stroke-linejoin:round; stroke-width:8; stroke-opacity:1; fill:none" points="1284.53,622.864 1284.53,485.04 "/>
<polyline clip-path="url(#clip962)" style="stroke:#000000; stroke-linecap:round; stroke-linejoin:round; stroke-width:8; stroke-opacity:1; fill:none" points="1347.8,622.864 1347.8,485.04 "/>
<polyline clip-path="url(#clip962)" style="stroke:#000000; stroke-linecap:round; stroke-linejoin:round; stroke-width:8; stroke-opacity:1; fill:none" points="1411.06,622.864 1411.06,485.04 "/>
<polyline clip-path="url(#clip962)" style="stroke:#000000; stroke-linecap:round; stroke-linejoin:round; stroke-width:8; stroke-opacity:1; fill:none" points="1474.33,622.864 1474.33,485.04 "/>
<polyline clip-path="url(#clip962)" style="stroke:#000000; stroke-linecap:round; stroke-linejoin:round; stroke-width:8; stroke-opacity:1; fill:none" points="1537.6,622.864 1537.6,485.04 "/>
<polyline clip-path="url(#clip962)" style="stroke:#000000; stroke-linecap:round; stroke-linejoin:round; stroke-width:8; stroke-opacity:1; fill:none" points="1600.87,622.864 1600.87,485.04 "/>
<polyline clip-path="url(#clip962)" style="stroke:#000000; stroke-linecap:round; stroke-linejoin:round; stroke-width:8; stroke-opacity:1; fill:none" points="1664.13,622.864 1664.13,485.04 "/>
<polyline clip-path="url(#clip962)" style="stroke:#000000; stroke-linecap:round; stroke-linejoin:round; stroke-width:8; stroke-opacity:1; fill:none" points="841.654,805.279 841.654,707.991 "/>
<polyline clip-path="url(#clip962)" style="stroke:#000000; stroke-linecap:round; stroke-linejoin:round; stroke-width:8; stroke-opacity:1; fill:none" points="968.189,805.279 968.189,707.991 "/>
<polyline clip-path="url(#clip962)" style="stroke:#000000; stroke-linecap:round; stroke-linejoin:round; stroke-width:8; stroke-opacity:1; fill:none" points="1221.26,805.279 1221.26,707.991 "/>
<polyline clip-path="url(#clip962)" style="stroke:#000000; stroke-linecap:round; stroke-linejoin:round; stroke-width:8; stroke-opacity:1; fill:none" points="1727.4,805.279 1727.4,707.991 "/>
<polyline clip-path="url(#clip962)" style="stroke:#000000; stroke-linecap:round; stroke-linejoin:round; stroke-width:12; stroke-opacity:1; fill:none" points="462.048,1030.26 462.048,1030.26 1790.67,1030.26 1790.67,888.379 2486.61,888.379 2486.61,1030.26 2992.76,1030.26 "/>
</svg>
